{"accessors":[{"bufferView":0,"byteOffset":0,"componentType":5126,"count":140,"max":[0.2,1.0767015017891759e-18,0.2],"min":[-0.2,0.0,-0.2],"type":"VEC3"},{"bufferView":0,"byteOffset":1680,"componentType":5126,"count":4,"max":[0.1451,0.005,-0.15],"min":[0.14490000000000004,0.0,-0.15],"type":"VEC3"},{"bufferView":0,"byteOffset":1728,"componentType":5126,"count":66,"max":[0.14490000000000004,0.005,-0.15],"min":[0.14000000000000005,0.0,-0.1549],"type":"VEC3"},{"bufferView":0,"byteOffset":2520,"componentType":5126,"count":66,"max":[0.15,0.005000000000000001,-0.15],"min":[0.1451,0.0,-0.1549],"type":"VEC3"},{"bufferView":0,"byteOffset":3312,"componentType":5126,"count":57,"max":[0.14000000000000005,0.4339687062781462,-0.1549],"min":[0.14,0.0,-0.36433134131190456],"type":"VEC3"},{"bufferView":0,"byteOffset":3996,"componentType":5126,"count":56,"max":[0.15,0.005,-0.1549],"min":[0.15,-0.4148733169663576,-0.3592010391620198],"type":"VEC3"},{"bufferView":0,"byteOffset":4668,"componentType":5126,"count":54,"max":[0.14,0.006579798566743307,-0.2],"min":[-0.14,0.0,-0.20939692620785908],"type":"VEC3"},{"bufferView":0,"byteOffset":5316,"componentType":5126,"count":52,"max":[0.2,0.0,-0.2],"min":[0.15,-0.003289899283371653,-0.20469846310392954],"type":"VEC3"},{"bufferView":0,"byteOffset":5940,"componentType":5126,"count":57,"max":[-0.14,0.43396870627814629,-0.1549],"min":[-0.1400000000000001,0.0,-0.36433134131190467],"type":"VEC3"},{"bufferView":0,"byteOffset":6624,"componentType":5126,"count":108,"max":[0.20000000000000013,0.005,0.3592010391620198],"min":[0.2,-0.4148733169663576,-0.3592010391620198],"type":"VEC3"},{"bufferView":0,"byteOffset":7920,"componentType":5126,"count":66,"max":[-0.1400000000000001,0.005,-0.15],"min":[-0.14490000000000009,0.0,-0.1549],"type":"VEC3"},{"bufferView":0,"byteOffset":8712,"componentType":5126,"count":52,"max":[0.2,0.0,0.20469846310392954],"min":[-0.2,-0.003289899283371653,0.2],"type":"VEC3"},{"bufferView":0,"byteOffset":9336,"componentType":5126,"count":4,"max":[-0.14490000000000009,0.005,-0.15],"min":[-0.14509999999999999,0.0,-0.15],"type":"VEC3"},{"bufferView":0,"byteOffset":9384,"componentType":5126,"count":108,"max":[-0.2,0.005,0.3592010391620198],"min":[-0.20000000000000013,-0.4148733169663576,-0.3592010391620198],"type":"VEC3"},{"bufferView":0,"byteOffset":10680,"componentType":5126,"count":66,"max":[-0.14509999999999999,0.005000000000000001,-0.15],"min":[-0.14999999999999998,0.0,-0.1549],"type":"VEC3"},{"bufferView":0,"byteOffset":11472,"componentType":5126,"count":52,"max":[-0.15,0.0,-0.2],"min":[-0.2,-0.003289899283371653,-0.20469846310392954],"type":"VEC3"},{"bufferView":0,"byteOffset":12096,"componentType":5126,"count":56,"max":[-0.14999999999999998,0.005,-0.1549],"min":[-0.15,-0.41487331696635756,-0.3592010391620198],"type":"VEC3"},{"bufferView":0,"byteOffset":12768,"componentType":5126,"count":140,"max":[0.2,0.005000000000000001,0.2],"min":[-0.2,0.005,-0.2],"type":"VEC3"},{"bufferView":0,"byteOffset":14448,"componentType":5126,"count":52,"max":[0.14,0.008289899283371655,-0.2],"min":[-0.14,0.005,-0.20469846310392957],"type":"VEC3"},{"bufferView":0,"byteOffset":15072,"componentType":5126,"count":68,"max":[0.14,0.4715564111095826,-0.20469846310392957],"min":[-0.14000000000000005,0.008289899283371625,-0.373313683941002],"type":"VEC3"},{"bufferView":0,"byteOffset":15888,"componentType":5126,"count":66,"max":[0.14,0.4715564111095825,-0.35963287820797509],"min":[0.1,0.43225860556151787,-0.3780121470449315],"type":"VEC3"},{"bufferView":0,"byteOffset":16680,"componentType":5126,"count":68,"max":[0.14,0.4698463103929542,-0.20939692620785906],"min":[-0.14000000000000005,0.006579798566743293,-0.3780121470449316],"type":"VEC3"},{"bufferView":0,"byteOffset":17496,"componentType":5126,"count":52,"max":[0.2,0.005,-0.2],"min":[0.15,-0.0015797985667433072,-0.20939692620785908],"type":"VEC3"},{"bufferView":0,"byteOffset":18120,"componentType":5126,"count":68,"max":[0.20000000000000008,-0.0015797985667433072,-0.20939692620785908],"min":[0.15,-0.4178616793536588,-0.3609111398786481],"type":"VEC3"},{"bufferView":0,"byteOffset":18936,"componentType":5126,"count":66,"max":[0.155,-0.4131632162497293,-0.3545025760580902],"min":[0.15,-0.41957178007028719,-0.3609111398786481],"type":"VEC3"},{"bufferView":0,"byteOffset":19728,"componentType":5126,"count":68,"max":[0.20000000000000008,-0.003289899283371653,-0.20469846310392954],"min":[0.15,-0.41957178007028719,-0.3562126767747186],"type":"VEC3"},{"bufferView":0,"byteOffset":20544,"componentType":5126,"count":66,"max":[-0.10000000000000004,0.4715564111095826,-0.35963287820797509],"min":[-0.14000000000000005,0.43225860556151798,-0.3780121470449316],"type":"VEC3"},{"bufferView":0,"byteOffset":21336,"componentType":5126,"count":66,"max":[0.20000000000000008,-0.4131632162497293,-0.3545025760580902],"min":[0.19500000000000007,-0.41957178007028719,-0.3609111398786481],"type":"VEC3"},{"bufferView":0,"byteOffset":22128,"componentType":5126,"count":52,"max":[0.2,0.005,0.20939692620785908],"min":[-0.2,-0.0015797985667433072,0.2],"type":"VEC3"},{"bufferView":0,"byteOffset":22752,"componentType":5126,"count":200,"max":[0.20000000000000013,-0.0015797985667433072,0.3609111398786481],"min":[-0.20000000000000013,-0.4178616793536588,0.20939692620785908],"type":"VEC3"},{"bufferView":0,"byteOffset":25152,"componentType":5126,"count":66,"max":[0.20000000000000013,-0.4131632162497293,0.3609111398786481],"min":[0.19500000000000013,-0.41957178007028719,0.3545025760580902],"type":"VEC3"},{"bufferView":0,"byteOffset":25944,"componentType":5126,"count":200,"max":[0.20000000000000013,-0.003289899283371653,0.3562126767747186],"min":[-0.20000000000000013,-0.41957178007028719,0.20469846310392954],"type":"VEC3"},{"bufferView":0,"byteOffset":28344,"componentType":5126,"count":68,"max":[-0.14999999999999998,-0.003289899283371653,-0.20469846310392954],"min":[-0.20000000000000013,-0.41957178007028719,-0.3562126767747186],"type":"VEC3"},{"bufferView":0,"byteOffset":29160,"componentType":5126,"count":66,"max":[-0.19500000000000013,-0.4131632162497293,-0.3545025760580902],"min":[-0.20000000000000013,-0.41957178007028719,-0.3609111398786481],"type":"VEC3"},{"bufferView":0,"byteOffset":29952,"componentType":5126,"count":68,"max":[-0.14999999999999998,-0.0015797985667433072,-0.20939692620785908],"min":[-0.20000000000000013,-0.4178616793536588,-0.3609111398786481],"type":"VEC3"},{"bufferView":0,"byteOffset":30768,"componentType":5126,"count":52,"max":[-0.15,0.005,-0.2],"min":[-0.2,-0.0015797985667433072,-0.20939692620785908],"type":"VEC3"},{"bufferView":0,"byteOffset":31392,"componentType":5126,"count":66,"max":[-0.19500000000000013,-0.41316321624972926,0.3609111398786481],"min":[-0.20000000000000013,-0.4195717800702871,0.35450257605809029],"type":"VEC3"},{"bufferView":0,"byteOffset":32184,"componentType":5126,"count":66,"max":[-0.14999999999999998,-0.41316321624972926,-0.3545025760580902],"min":[-0.15499999999999998,-0.4195717800702871,-0.3609111398786481],"type":"VEC3"},{"bufferView":0,"byteOffset":32976,"componentType":5126,"count":4,"max":[0.1,0.4715564111095826,-0.37331368394100197],"min":[-0.10000000000000004,0.46984631039295418,-0.3780121470449316],"type":"VEC3"},{"bufferView":0,"byteOffset":33024,"componentType":5126,"count":4,"max":[0.19500000000000007,-0.4178616793536588,-0.3562126767747186],"min":[0.155,-0.4195717800702871,-0.3609111398786481],"type":"VEC3"},{"bufferView":0,"byteOffset":33072,"componentType":5126,"count":4,"max":[-0.155,-0.41786167935365878,0.3609111398786481],"min":[-0.19500000000000013,-0.41957178007028719,0.3562126767747186],"type":"VEC3"},{"bufferView":0,"byteOffset":33120,"componentType":5126,"count":66,"max":[-0.15,-0.41316321624972937,0.3609111398786481],"min":[-0.155,-0.41957178007028719,0.3545025760580901],"type":"VEC3"},{"bufferView":0,"byteOffset":33912,"componentType":5126,"count":4,"max":[-0.15,-0.07958134152118007,0.3592010391620197],"min":[-0.15,-0.41487331696635768,0.23308870296618115],"type":"VEC3"},{"bufferView":0,"byteOffset":33960,"componentType":5126,"count":66,"max":[-0.10999999999999999,-0.04199363668974372,0.2377871660701107],"min":[-0.15,-0.08129144223780842,0.2194078972331544],"type":"VEC3"},{"bufferView":0,"byteOffset":34752,"componentType":5126,"count":4,"max":[0.11000000000000004,-0.04199363668974372,0.22410636033708396],"min":[-0.10999999999999999,-0.043703737406372077,0.2194078972331544],"type":"VEC3"},{"bufferView":0,"byteOffset":34800,"componentType":5126,"count":66,"max":[0.15000000000000006,-0.04199363668974372,0.2377871660701107],"min":[0.11000000000000004,-0.08129144223780845,0.2194078972331544],"type":"VEC3"},{"bufferView":0,"byteOffset":35592,"componentType":5126,"count":4,"max":[0.15000000000000009,-0.0795813415211801,0.3592010391620197],"min":[0.15000000000000006,-0.4148733169663576,0.23308870296618115],"type":"VEC3"},{"bufferView":0,"byteOffset":35640,"componentType":5126,"count":4,"max":[0.19500000000000013,-0.41786167935365878,0.3609111398786481],"min":[0.15500000000000009,-0.41957178007028719,0.3562126767747186],"type":"VEC3"},{"bufferView":0,"byteOffset":35688,"componentType":5126,"count":66,"max":[0.15500000000000009,-0.4131632162497293,0.36091113987864806],"min":[0.15000000000000009,-0.4195717800702871,0.3545025760580901],"type":"VEC3"},{"bufferView":0,"byteOffset":36480,"componentType":5126,"count":4,"max":[-0.15499999999999998,-0.4178616793536588,-0.3562126767747186],"min":[-0.19500000000000013,-0.4195717800702871,-0.3609111398786481],"type":"VEC3"},{"bufferView":1,"byteOffset":0,"componentType":5126,"count":140,"type":"VEC3"},{"bufferView":1,"byteOffset":1680,"componentType":5126,"count":4,"type":"VEC3"},{"bufferView":1,"byteOffset":1728,"componentType":5126,"count":66,"type":"VEC3"},{"bufferView":1,"byteOffset":2520,"componentType":5126,"count":66,"type":"VEC3"},{"bufferView":1,"byteOffset":3312,"componentType":5126,"count":57,"type":"VEC3"},{"bufferView":1,"byteOffset":3996,"componentType":5126,"count":56,"type":"VEC3"},{"bufferView":1,"byteOffset":4668,"componentType":5126,"count":54,"type":"VEC3"},{"bufferView":1,"byteOffset":5316,"componentType":5126,"count":52,"type":"VEC3"},{"bufferView":1,"byteOffset":5940,"componentType":5126,"count":57,"type":"VEC3"},{"bufferView":1,"byteOffset":6624,"componentType":5126,"count":108,"type":"VEC3"},{"bufferView":1,"byteOffset":7920,"componentType":5126,"count":66,"type":"VEC3"},{"bufferView":1,"byteOffset":8712,"componentType":5126,"count":52,"type":"VEC3"},{"bufferView":1,"byteOffset":9336,"componentType":5126,"count":4,"type":"VEC3"},{"bufferView":1,"byteOffset":9384,"componentType":5126,"count":108,"type":"VEC3"},{"bufferView":1,"byteOffset":10680,"componentType":5126,"count":66,"type":"VEC3"},{"bufferView":1,"byteOffset":11472,"componentType":5126,"count":52,"type":"VEC3"},{"bufferView":1,"byteOffset":12096,"componentType":5126,"count":56,"type":"VEC3"},{"bufferView":1,"byteOffset":12768,"componentType":5126,"count":140,"type":"VEC3"},{"bufferView":1,"byteOffset":14448,"componentType":5126,"count":52,"type":"VEC3"},{"bufferView":1,"byteOffset":15072,"componentType":5126,"count":68,"type":"VEC3"},{"bufferView":1,"byteOffset":15888,"componentType":5126,"count":66,"type":"VEC3"},{"bufferView":1,"byteOffset":16680,"componentType":5126,"count":68,"type":"VEC3"},{"bufferView":1,"byteOffset":17496,"componentType":5126,"count":52,"type":"VEC3"},{"bufferView":1,"byteOffset":18120,"componentType":5126,"count":68,"type":"VEC3"},{"bufferView":1,"byteOffset":18936,"componentType":5126,"count":66,"type":"VEC3"},{"bufferView":1,"byteOffset":19728,"componentType":5126,"count":68,"type":"VEC3"},{"bufferView":1,"byteOffset":20544,"componentType":5126,"count":66,"type":"VEC3"},{"bufferView":1,"byteOffset":21336,"componentType":5126,"count":66,"type":"VEC3"},{"bufferView":1,"byteOffset":22128,"componentType":5126,"count":52,"type":"VEC3"},{"bufferView":1,"byteOffset":22752,"componentType":5126,"count":200,"type":"VEC3"},{"bufferView":1,"byteOffset":25152,"componentType":5126,"count":66,"type":"VEC3"},{"bufferView":1,"byteOffset":25944,"componentType":5126,"count":200,"type":"VEC3"},{"bufferView":1,"byteOffset":28344,"componentType":5126,"count":68,"type":"VEC3"},{"bufferView":1,"byteOffset":29160,"componentType":5126,"count":66,"type":"VEC3"},{"bufferView":1,"byteOffset":29952,"componentType":5126,"count":68,"type":"VEC3"},{"bufferView":1,"byteOffset":30768,"componentType":5126,"count":52,"type":"VEC3"},{"bufferView":1,"byteOffset":31392,"componentType":5126,"count":66,"type":"VEC3"},{"bufferView":1,"byteOffset":32184,"componentType":5126,"count":66,"type":"VEC3"},{"bufferView":1,"byteOffset":32976,"componentType":5126,"count":4,"type":"VEC3"},{"bufferView":1,"byteOffset":33024,"componentType":5126,"count":4,"type":"VEC3"},{"bufferView":1,"byteOffset":33072,"componentType":5126,"count":4,"type":"VEC3"},{"bufferView":1,"byteOffset":33120,"componentType":5126,"count":66,"type":"VEC3"},{"bufferView":1,"byteOffset":33912,"componentType":5126,"count":4,"type":"VEC3"},{"bufferView":1,"byteOffset":33960,"componentType":5126,"count":66,"type":"VEC3"},{"bufferView":1,"byteOffset":34752,"componentType":5126,"count":4,"type":"VEC3"},{"bufferView":1,"byteOffset":34800,"componentType":5126,"count":66,"type":"VEC3"},{"bufferView":1,"byteOffset":35592,"componentType":5126,"count":4,"type":"VEC3"},{"bufferView":1,"byteOffset":35640,"componentType":5126,"count":4,"type":"VEC3"},{"bufferView":1,"byteOffset":35688,"componentType":5126,"count":66,"type":"VEC3"},{"bufferView":1,"byteOffset":36480,"componentType":5126,"count":4,"type":"VEC3"},{"bufferView":2,"byteOffset":0,"componentType":5123,"count":414,"type":"SCALAR"},{"bufferView":2,"byteOffset":828,"componentType":5123,"count":6,"type":"SCALAR"},{"bufferView":2,"byteOffset":840,"componentType":5123,"count":192,"type":"SCALAR"},{"bufferView":2,"byteOffset":1224,"componentType":5123,"count":192,"type":"SCALAR"},{"bufferView":2,"byteOffset":1608,"componentType":5123,"count":165,"type":"SCALAR"},{"bufferView":2,"byteOffset":1940,"componentType":5123,"count":162,"type":"SCALAR"},{"bufferView":2,"byteOffset":2264,"componentType":5123,"count":156,"type":"SCALAR"},{"bufferView":2,"byteOffset":2576,"componentType":5123,"count":150,"type":"SCALAR"},{"bufferView":2,"byteOffset":2876,"componentType":5123,"count":165,"type":"SCALAR"},{"bufferView":2,"byteOffset":3208,"componentType":5123,"count":318,"type":"SCALAR"},{"bufferView":2,"byteOffset":3844,"componentType":5123,"count":192,"type":"SCALAR"},{"bufferView":2,"byteOffset":4228,"componentType":5123,"count":150,"type":"SCALAR"},{"bufferView":2,"byteOffset":4528,"componentType":5123,"count":6,"type":"SCALAR"},{"bufferView":2,"byteOffset":4540,"componentType":5123,"count":318,"type":"SCALAR"},{"bufferView":2,"byteOffset":5176,"componentType":5123,"count":192,"type":"SCALAR"},{"bufferView":2,"byteOffset":5560,"componentType":5123,"count":150,"type":"SCALAR"},{"bufferView":2,"byteOffset":5860,"componentType":5123,"count":162,"type":"SCALAR"},{"bufferView":2,"byteOffset":6184,"componentType":5123,"count":414,"type":"SCALAR"},{"bufferView":2,"byteOffset":7012,"componentType":5123,"count":150,"type":"SCALAR"},{"bufferView":2,"byteOffset":7312,"componentType":5123,"count":198,"type":"SCALAR"},{"bufferView":2,"byteOffset":7708,"componentType":5123,"count":192,"type":"SCALAR"},{"bufferView":2,"byteOffset":8092,"componentType":5123,"count":198,"type":"SCALAR"},{"bufferView":2,"byteOffset":8488,"componentType":5123,"count":150,"type":"SCALAR"},{"bufferView":2,"byteOffset":8788,"componentType":5123,"count":198,"type":"SCALAR"},{"bufferView":2,"byteOffset":9184,"componentType":5123,"count":192,"type":"SCALAR"},{"bufferView":2,"byteOffset":9568,"componentType":5123,"count":198,"type":"SCALAR"},{"bufferView":2,"byteOffset":9964,"componentType":5123,"count":192,"type":"SCALAR"},{"bufferView":2,"byteOffset":10348,"componentType":5123,"count":192,"type":"SCALAR"},{"bufferView":2,"byteOffset":10732,"componentType":5123,"count":150,"type":"SCALAR"},{"bufferView":2,"byteOffset":11032,"componentType":5123,"count":594,"type":"SCALAR"},{"bufferView":2,"byteOffset":12220,"componentType":5123,"count":192,"type":"SCALAR"},{"bufferView":2,"byteOffset":12604,"componentType":5123,"count":594,"type":"SCALAR"},{"bufferView":2,"byteOffset":13792,"componentType":5123,"count":198,"type":"SCALAR"},{"bufferView":2,"byteOffset":14188,"componentType":5123,"count":192,"type":"SCALAR"},{"bufferView":2,"byteOffset":14572,"componentType":5123,"count":198,"type":"SCALAR"},{"bufferView":2,"byteOffset":14968,"componentType":5123,"count":150,"type":"SCALAR"},{"bufferView":2,"byteOffset":15268,"componentType":5123,"count":192,"type":"SCALAR"},{"bufferView":2,"byteOffset":15652,"componentType":5123,"count":192,"type":"SCALAR"},{"bufferView":2,"byteOffset":16036,"componentType":5123,"count":6,"type":"SCALAR"},{"bufferView":2,"byteOffset":16048,"componentType":5123,"count":6,"type":"SCALAR"},{"bufferView":2,"byteOffset":16060,"componentType":5123,"count":6,"type":"SCALAR"},{"bufferView":2,"byteOffset":16072,"componentType":5123,"count":192,"type":"SCALAR"},{"bufferView":2,"byteOffset":16456,"componentType":5123,"count":6,"type":"SCALAR"},{"bufferView":2,"byteOffset":16468,"componentType":5123,"count":192,"type":"SCALAR"},{"bufferView":2,"byteOffset":16852,"componentType":5123,"count":6,"type":"SCALAR"},{"bufferView":2,"byteOffset":16864,"componentType":5123,"count":192,"type":"SCALAR"},{"bufferView":2,"byteOffset":17248,"componentType":5123,"count":6,"type":"SCALAR"},{"bufferView":2,"byteOffset":17260,"componentType":5123,"count":6,"type":"SCALAR"},{"bufferView":2,"byteOffset":17272,"componentType":5123,"count":192,"type":"SCALAR"},{"bufferView":2,"byteOffset":17656,"componentType":5123,"count":6,"type":"SCALAR"}],"asset":{"generator":"Open CASCADE Technology 7.8 [dev.opencascade.org]","version":"2.0"},"bufferViews":[{"buffer":0,"byteLength":36528,"byteOffset":0,"byteStride":12,"target":34962},{"buffer":0,"byteLength":36528,"byteOffset":36528,"byteStride":12,"target":34962},{"buffer":0,"byteLength":17668,"byteOffset":73056,"target":34963}],"buffers":[{"byteLength":90724,"uri":"Steel chair folded-Body.bin"}],"materials":[{"name":"mat_0","pbrMetallicRoughness":{"baseColorFactor":[0.16826939582824708,0.19120168685913087,0.2158605307340622,1.0]},"doubleSided":true}],"meshes":[{"name":"Fillet013","primitives":[{"attributes":{"NORMAL":50,"POSITION":0},"indices":100,"material":0,"mode":4},{"attributes":{"NORMAL":51,"POSITION":1},"indices":101,"material":0,"mode":4},{"attributes":{"NORMAL":52,"POSITION":2},"indices":102,"material":0,"mode":4},{"attributes":{"NORMAL":53,"POSITION":3},"indices":103,"material":0,"mode":4},{"attributes":{"NORMAL":54,"POSITION":4},"indices":104,"material":0,"mode":4},{"attributes":{"NORMAL":55,"POSITION":5},"indices":105,"material":0,"mode":4},{"attributes":{"NORMAL":56,"POSITION":6},"indices":106,"material":0,"mode":4},{"attributes":{"NORMAL":57,"POSITION":7},"indices":107,"material":0,"mode":4},{"attributes":{"NORMAL":58,"POSITION":8},"indices":108,"material":0,"mode":4},{"attributes":{"NORMAL":59,"POSITION":9},"indices":109,"material":0,"mode":4},{"attributes":{"NORMAL":60,"POSITION":10},"indices":110,"material":0,"mode":4},{"attributes":{"NORMAL":61,"POSITION":11},"indices":111,"material":0,"mode":4},{"attributes":{"NORMAL":62,"POSITION":12},"indices":112,"material":0,"mode":4},{"attributes":{"NORMAL":63,"POSITION":13},"indices":113,"material":0,"mode":4},{"attributes":{"NORMAL":64,"POSITION":14},"indices":114,"material":0,"mode":4},{"attributes":{"NORMAL":65,"POSITION":15},"indices":115,"material":0,"mode":4},{"attributes":{"NORMAL":66,"POSITION":16},"indices":116,"material":0,"mode":4},{"attributes":{"NORMAL":67,"POSITION":17},"indices":117,"material":0,"mode":4},{"attributes":{"NORMAL":68,"POSITION":18},"indices":118,"material":0,"mode":4},{"attributes":{"NORMAL":69,"POSITION":19},"indices":119,"material":0,"mode":4},{"attributes":{"NORMAL":70,"POSITION":20},"indices":120,"material":0,"mode":4},{"attributes":{"NORMAL":71,"POSITION":21},"indices":121,"material":0,"mode":4},{"attributes":{"NORMAL":72,"POSITION":22},"indices":122,"material":0,"mode":4},{"attributes":{"NORMAL":73,"POSITION":23},"indices":123,"material":0,"mode":4},{"attributes":{"NORMAL":74,"POSITION":24},"indices":124,"material":0,"mode":4},{"attributes":{"NORMAL":75,"POSITION":25},"indices":125,"material":0,"mode":4},{"attributes":{"NORMAL":76,"POSITION":26},"indices":126,"material":0,"mode":4},{"attributes":{"NORMAL":77,"POSITION":27},"indices":127,"material":0,"mode":4},{"attributes":{"NORMAL":78,"POSITION":28},"indices":128,"material":0,"mode":4},{"attributes":{"NORMAL":79,"POSITION":29},"indices":129,"material":0,"mode":4},{"attributes":{"NORMAL":80,"POSITION":30},"indices":130,"material":0,"mode":4},{"attributes":{"NORMAL":81,"POSITION":31},"indices":131,"material":0,"mode":4},{"attributes":{"NORMAL":82,"POSITION":32},"indices":132,"material":0,"mode":4},{"attributes":{"NORMAL":83,"POSITION":33},"indices":133,"material":0,"mode":4},{"attributes":{"NORMAL":84,"POSITION":34},"indices":134,"material":0,"mode":4},{"attributes":{"NORMAL":85,"POSITION":35},"indices":135,"material":0,"mode":4},{"attributes":{"NORMAL":86,"POSITION":36},"indices":136,"material":0,"mode":4},{"attributes":{"NORMAL":87,"POSITION":37},"indices":137,"material":0,"mode":4},{"attributes":{"NORMAL":88,"POSITION":38},"indices":138,"material":0,"mode":4},{"attributes":{"NORMAL":89,"POSITION":39},"indices":139,"material":0,"mode":4},{"attributes":{"NORMAL":90,"POSITION":40},"indices":140,"material":0,"mode":4},{"attributes":{"NORMAL":91,"POSITION":41},"indices":141,"material":0,"mode":4},{"attributes":{"NORMAL":92,"POSITION":42},"indices":142,"material":0,"mode":4},{"attributes":{"NORMAL":93,"POSITION":43},"indices":143,"material":0,"mode":4},{"attributes":{"NORMAL":94,"POSITION":44},"indices":144,"material":0,"mode":4},{"attributes":{"NORMAL":95,"POSITION":45},"indices":145,"material":0,"mode":4},{"attributes":{"NORMAL":96,"POSITION":46},"indices":146,"material":0,"mode":4},{"attributes":{"NORMAL":97,"POSITION":47},"indices":147,"material":0,"mode":4},{"attributes":{"NORMAL":98,"POSITION":48},"indices":148,"material":0,"mode":4},{"attributes":{"NORMAL":99,"POSITION":49},"indices":149,"material":0,"mode":4}]}],"nodes":[{"mesh":0,"name":"Fillet013"}],"scene":0,"scenes":[{"nodes":[0]}]}