ISO-10303-21;
HEADER;
FILE_DESCRIPTION(('FreeCAD Model'),'2;1');
FILE_NAME('Open CASCADE Shape Model','2026-06-05T15:28:08',(''),(''),
  'Open CASCADE STEP processor 7.8','FreeCAD','Unknown');
FILE_SCHEMA(('AUTOMOTIVE_DESIGN { 1 0 10303 214 1 1 1 1 }'));
ENDSEC;
DATA;
#1 = APPLICATION_PROTOCOL_DEFINITION('international standard',
  'automotive_design',2000,#2);
#2 = APPLICATION_CONTEXT(
  'core data for automotive mechanical design processes');
#3 = SHAPE_DEFINITION_REPRESENTATION(#4,#10);
#4 = PRODUCT_DEFINITION_SHAPE('','',#5);
#5 = PRODUCT_DEFINITION('design','',#6,#9);
#6 = PRODUCT_DEFINITION_FORMATION('','',#7);
#7 = PRODUCT('Fillet013','Fillet013','',(#8));
#8 = PRODUCT_CONTEXT('',#2,'mechanical');
#9 = PRODUCT_DEFINITION_CONTEXT('part definition',#2,'design');
#10 = ADVANCED_BREP_SHAPE_REPRESENTATION('',(#11,#15),#1705);
#11 = AXIS2_PLACEMENT_3D('',#12,#13,#14);
#12 = CARTESIAN_POINT('',(0.,0.,0.));
#13 = DIRECTION('',(0.,0.,1.));
#14 = DIRECTION('',(1.,0.,-0.));
#15 = MANIFOLD_SOLID_BREP('',#16);
#16 = CLOSED_SHELL('',(#17,#157,#188,#213,#238,#314,#372,#417,#442,#501,
    #592,#617,#642,#666,#757,#782,#807,#857,#901,#918,#953,#978,#1005,
    #1022,#1057,#1082,#1109,#1126,#1143,#1160,#1263,#1288,#1383,#1418,
    #1443,#1475,#1487,#1504,#1521,#1533,#1545,#1562,#1579,#1596,#1613,
    #1630,#1647,#1664,#1681,#1693));
#17 = ADVANCED_FACE('',(#18),#152,.T.);
#18 = FACE_BOUND('',#19,.T.);
#19 = EDGE_LOOP('',(#20,#30,#39,#47,#55,#63,#71,#79,#87,#95,#104,#112,
    #121,#129,#137,#145));
#20 = ORIENTED_EDGE('',*,*,#21,.T.);
#21 = EDGE_CURVE('',#22,#24,#26,.T.);
#22 = VERTEX_POINT('',#23);
#23 = CARTESIAN_POINT('',(144.9,150.,0.));
#24 = VERTEX_POINT('',#25);
#25 = CARTESIAN_POINT('',(145.1,150.,0.));
#26 = LINE('',#27,#28);
#27 = CARTESIAN_POINT('',(140.,150.,0.));
#28 = VECTOR('',#29,1.);
#29 = DIRECTION('',(1.,0.,0.));
#30 = ORIENTED_EDGE('',*,*,#31,.T.);
#31 = EDGE_CURVE('',#24,#32,#34,.T.);
#32 = VERTEX_POINT('',#33);
#33 = CARTESIAN_POINT('',(150.,154.9,0.));
#34 = CIRCLE('',#35,4.9);
#35 = AXIS2_PLACEMENT_3D('',#36,#37,#38);
#36 = CARTESIAN_POINT('',(145.1,154.9,0.));
#37 = DIRECTION('',(-0.,2.2E-16,1.));
#38 = DIRECTION('',(0.,-1.,2.2E-16));
#39 = ORIENTED_EDGE('',*,*,#40,.T.);
#40 = EDGE_CURVE('',#32,#41,#43,.T.);
#41 = VERTEX_POINT('',#42);
#42 = CARTESIAN_POINT('',(150.,200.,0.));
#43 = LINE('',#44,#45);
#44 = CARTESIAN_POINT('',(150.,150.,0.));
#45 = VECTOR('',#46,1.);
#46 = DIRECTION('',(0.,1.,0.));
#47 = ORIENTED_EDGE('',*,*,#48,.F.);
#48 = EDGE_CURVE('',#49,#41,#51,.T.);
#49 = VERTEX_POINT('',#50);
#50 = CARTESIAN_POINT('',(200.,200.,0.));
#51 = LINE('',#52,#53);
#52 = CARTESIAN_POINT('',(200.,200.,0.));
#53 = VECTOR('',#54,1.);
#54 = DIRECTION('',(-1.,0.,0.));
#55 = ORIENTED_EDGE('',*,*,#56,.F.);
#56 = EDGE_CURVE('',#57,#49,#59,.T.);
#57 = VERTEX_POINT('',#58);
#58 = CARTESIAN_POINT('',(200.,-200.,0.));
#59 = LINE('',#60,#61);
#60 = CARTESIAN_POINT('',(200.,150.,0.));
#61 = VECTOR('',#62,1.);
#62 = DIRECTION('',(0.,1.,0.));
#63 = ORIENTED_EDGE('',*,*,#64,.F.);
#64 = EDGE_CURVE('',#65,#57,#67,.T.);
#65 = VERTEX_POINT('',#66);
#66 = CARTESIAN_POINT('',(-200.,-200.,0.));
#67 = LINE('',#68,#69);
#68 = CARTESIAN_POINT('',(-200.,-200.,0.));
#69 = VECTOR('',#70,1.);
#70 = DIRECTION('',(1.,0.,0.));
#71 = ORIENTED_EDGE('',*,*,#72,.F.);
#72 = EDGE_CURVE('',#73,#65,#75,.T.);
#73 = VERTEX_POINT('',#74);
#74 = CARTESIAN_POINT('',(-200.,200.,0.));
#75 = LINE('',#76,#77);
#76 = CARTESIAN_POINT('',(-200.,200.,0.));
#77 = VECTOR('',#78,1.);
#78 = DIRECTION('',(0.,-1.,0.));
#79 = ORIENTED_EDGE('',*,*,#80,.F.);
#80 = EDGE_CURVE('',#81,#73,#83,.T.);
#81 = VERTEX_POINT('',#82);
#82 = CARTESIAN_POINT('',(-150.,200.,0.));
#83 = LINE('',#84,#85);
#84 = CARTESIAN_POINT('',(-150.,200.,0.));
#85 = VECTOR('',#86,1.);
#86 = DIRECTION('',(-1.,0.,0.));
#87 = ORIENTED_EDGE('',*,*,#88,.F.);
#88 = EDGE_CURVE('',#89,#81,#91,.T.);
#89 = VERTEX_POINT('',#90);
#90 = CARTESIAN_POINT('',(-150.,154.9,0.));
#91 = LINE('',#92,#93);
#92 = CARTESIAN_POINT('',(-150.,150.,0.));
#93 = VECTOR('',#94,1.);
#94 = DIRECTION('',(0.,1.,0.));
#95 = ORIENTED_EDGE('',*,*,#96,.T.);
#96 = EDGE_CURVE('',#89,#97,#99,.T.);
#97 = VERTEX_POINT('',#98);
#98 = CARTESIAN_POINT('',(-145.1,150.,0.));
#99 = CIRCLE('',#100,4.9);
#100 = AXIS2_PLACEMENT_3D('',#101,#102,#103);
#101 = CARTESIAN_POINT('',(-145.1,154.9,0.));
#102 = DIRECTION('',(0.,2.2E-16,1.));
#103 = DIRECTION('',(0.,1.,-2.2E-16));
#104 = ORIENTED_EDGE('',*,*,#105,.T.);
#105 = EDGE_CURVE('',#97,#106,#108,.T.);
#106 = VERTEX_POINT('',#107);
#107 = CARTESIAN_POINT('',(-144.9,150.,0.));
#108 = LINE('',#109,#110);
#109 = CARTESIAN_POINT('',(-200.,150.,0.));
#110 = VECTOR('',#111,1.);
#111 = DIRECTION('',(1.,0.,0.));
#112 = ORIENTED_EDGE('',*,*,#113,.T.);
#113 = EDGE_CURVE('',#106,#114,#116,.T.);
#114 = VERTEX_POINT('',#115);
#115 = CARTESIAN_POINT('',(-140.,154.9,0.));
#116 = CIRCLE('',#117,4.9);
#117 = AXIS2_PLACEMENT_3D('',#118,#119,#120);
#118 = CARTESIAN_POINT('',(-144.9,154.9,0.));
#119 = DIRECTION('',(0.,-0.,1.));
#120 = DIRECTION('',(0.,1.,0.));
#121 = ORIENTED_EDGE('',*,*,#122,.T.);
#122 = EDGE_CURVE('',#114,#123,#125,.T.);
#123 = VERTEX_POINT('',#124);
#124 = CARTESIAN_POINT('',(-140.,200.,0.));
#125 = LINE('',#126,#127);
#126 = CARTESIAN_POINT('',(-140.,150.,0.));
#127 = VECTOR('',#128,1.);
#128 = DIRECTION('',(0.,1.,0.));
#129 = ORIENTED_EDGE('',*,*,#130,.F.);
#130 = EDGE_CURVE('',#131,#123,#133,.T.);
#131 = VERTEX_POINT('',#132);
#132 = CARTESIAN_POINT('',(140.,200.,0.));
#133 = LINE('',#134,#135);
#134 = CARTESIAN_POINT('',(200.,200.,0.));
#135 = VECTOR('',#136,1.);
#136 = DIRECTION('',(-1.,0.,0.));
#137 = ORIENTED_EDGE('',*,*,#138,.T.);
#138 = EDGE_CURVE('',#131,#139,#141,.T.);
#139 = VERTEX_POINT('',#140);
#140 = CARTESIAN_POINT('',(140.,154.9,0.));
#141 = LINE('',#142,#143);
#142 = CARTESIAN_POINT('',(140.,250.,0.));
#143 = VECTOR('',#144,1.);
#144 = DIRECTION('',(0.,-1.,0.));
#145 = ORIENTED_EDGE('',*,*,#146,.F.);
#146 = EDGE_CURVE('',#22,#139,#147,.T.);
#147 = CIRCLE('',#148,4.9);
#148 = AXIS2_PLACEMENT_3D('',#149,#150,#151);
#149 = CARTESIAN_POINT('',(144.9,154.9,0.));
#150 = DIRECTION('',(0.,-0.,-1.));
#151 = DIRECTION('',(0.,1.,-0.));
#152 = PLANE('',#153);
#153 = AXIS2_PLACEMENT_3D('',#154,#155,#156);
#154 = CARTESIAN_POINT('',(0.,18.888888888889,0.));
#155 = DIRECTION('',(-0.,-0.,-1.));
#156 = DIRECTION('',(-1.,0.,0.));
#157 = ADVANCED_FACE('',(#158),#183,.F.);
#158 = FACE_BOUND('',#159,.F.);
#159 = EDGE_LOOP('',(#160,#170,#176,#177));
#160 = ORIENTED_EDGE('',*,*,#161,.F.);
#161 = EDGE_CURVE('',#162,#164,#166,.T.);
#162 = VERTEX_POINT('',#163);
#163 = CARTESIAN_POINT('',(144.9,150.,5.));
#164 = VERTEX_POINT('',#165);
#165 = CARTESIAN_POINT('',(145.1,150.,5.));
#166 = LINE('',#167,#168);
#167 = CARTESIAN_POINT('',(140.,150.,5.));
#168 = VECTOR('',#169,1.);
#169 = DIRECTION('',(1.,0.,0.));
#170 = ORIENTED_EDGE('',*,*,#171,.T.);
#171 = EDGE_CURVE('',#162,#22,#172,.T.);
#172 = LINE('',#173,#174);
#173 = CARTESIAN_POINT('',(144.9,150.,5.));
#174 = VECTOR('',#175,1.);
#175 = DIRECTION('',(-0.,-0.,-1.));
#176 = ORIENTED_EDGE('',*,*,#21,.T.);
#177 = ORIENTED_EDGE('',*,*,#178,.T.);
#178 = EDGE_CURVE('',#24,#164,#179,.T.);
#179 = LINE('',#180,#181);
#180 = CARTESIAN_POINT('',(145.1,150.,1.09E-15));
#181 = VECTOR('',#182,1.);
#182 = DIRECTION('',(0.,2.2E-16,1.));
#183 = PLANE('',#184);
#184 = AXIS2_PLACEMENT_3D('',#185,#186,#187);
#185 = CARTESIAN_POINT('',(140.,150.,5.));
#186 = DIRECTION('',(0.,-1.,0.));
#187 = DIRECTION('',(1.,0.,0.));
#188 = ADVANCED_FACE('',(#189),#208,.F.);
#189 = FACE_BOUND('',#190,.F.);
#190 = EDGE_LOOP('',(#191,#200,#206,#207));
#191 = ORIENTED_EDGE('',*,*,#192,.T.);
#192 = EDGE_CURVE('',#162,#193,#195,.T.);
#193 = VERTEX_POINT('',#194);
#194 = CARTESIAN_POINT('',(140.,154.9,5.));
#195 = CIRCLE('',#196,4.9);
#196 = AXIS2_PLACEMENT_3D('',#197,#198,#199);
#197 = CARTESIAN_POINT('',(144.9,154.9,5.));
#198 = DIRECTION('',(0.,-0.,-1.));
#199 = DIRECTION('',(0.,1.,-0.));
#200 = ORIENTED_EDGE('',*,*,#201,.T.);
#201 = EDGE_CURVE('',#193,#139,#202,.T.);
#202 = LINE('',#203,#204);
#203 = CARTESIAN_POINT('',(140.,154.9,5.));
#204 = VECTOR('',#205,1.);
#205 = DIRECTION('',(-0.,-0.,-1.));
#206 = ORIENTED_EDGE('',*,*,#146,.F.);
#207 = ORIENTED_EDGE('',*,*,#171,.F.);
#208 = CYLINDRICAL_SURFACE('',#209,4.9);
#209 = AXIS2_PLACEMENT_3D('',#210,#211,#212);
#210 = CARTESIAN_POINT('',(144.9,154.9,5.));
#211 = DIRECTION('',(-0.,-0.,-1.));
#212 = DIRECTION('',(0.,-1.,0.));
#213 = ADVANCED_FACE('',(#214),#233,.F.);
#214 = FACE_BOUND('',#215,.F.);
#215 = EDGE_LOOP('',(#216,#217,#225,#232));
#216 = ORIENTED_EDGE('',*,*,#31,.T.);
#217 = ORIENTED_EDGE('',*,*,#218,.T.);
#218 = EDGE_CURVE('',#32,#219,#221,.T.);
#219 = VERTEX_POINT('',#220);
#220 = CARTESIAN_POINT('',(150.,154.9,5.));
#221 = LINE('',#222,#223);
#222 = CARTESIAN_POINT('',(150.,154.9,0.));
#223 = VECTOR('',#224,1.);
#224 = DIRECTION('',(0.,2.2E-16,1.));
#225 = ORIENTED_EDGE('',*,*,#226,.F.);
#226 = EDGE_CURVE('',#164,#219,#227,.T.);
#227 = CIRCLE('',#228,4.9);
#228 = AXIS2_PLACEMENT_3D('',#229,#230,#231);
#229 = CARTESIAN_POINT('',(145.1,154.9,5.));
#230 = DIRECTION('',(-0.,2.2E-16,1.));
#231 = DIRECTION('',(0.,-1.,2.2E-16));
#232 = ORIENTED_EDGE('',*,*,#178,.F.);
#233 = CYLINDRICAL_SURFACE('',#234,4.9);
#234 = AXIS2_PLACEMENT_3D('',#235,#236,#237);
#235 = CARTESIAN_POINT('',(145.1,154.9,0.));
#236 = DIRECTION('',(0.,2.2E-16,1.));
#237 = DIRECTION('',(0.,-1.,2.2E-16));
#238 = ADVANCED_FACE('',(#239),#309,.T.);
#239 = FACE_BOUND('',#240,.T.);
#240 = EDGE_LOOP('',(#241,#249,#250,#251,#260,#269,#278,#286,#294,#302)
  );
#241 = ORIENTED_EDGE('',*,*,#242,.T.);
#242 = EDGE_CURVE('',#243,#193,#245,.T.);
#243 = VERTEX_POINT('',#244);
#244 = CARTESIAN_POINT('',(140.,200.,5.));
#245 = LINE('',#246,#247);
#246 = CARTESIAN_POINT('',(140.,250.,5.));
#247 = VECTOR('',#248,1.);
#248 = DIRECTION('',(0.,-1.,0.));
#249 = ORIENTED_EDGE('',*,*,#201,.T.);
#250 = ORIENTED_EDGE('',*,*,#138,.F.);
#251 = ORIENTED_EDGE('',*,*,#252,.F.);
#252 = EDGE_CURVE('',#253,#131,#255,.T.);
#253 = VERTEX_POINT('',#254);
#254 = CARTESIAN_POINT('',(140.,201.73648177666,0.151922469871));
#255 = CIRCLE('',#256,10.);
#256 = AXIS2_PLACEMENT_3D('',#257,#258,#259);
#257 = CARTESIAN_POINT('',(140.,200.,10.));
#258 = DIRECTION('',(-1.,0.,0.));
#259 = DIRECTION('',(0.,0.,-1.));
#260 = ORIENTED_EDGE('',*,*,#261,.F.);
#261 = EDGE_CURVE('',#262,#253,#264,.T.);
#262 = VERTEX_POINT('',#263);
#263 = CARTESIAN_POINT('',(140.,208.66025403784,5.));
#264 = CIRCLE('',#265,10.);
#265 = AXIS2_PLACEMENT_3D('',#266,#267,#268);
#266 = CARTESIAN_POINT('',(140.,200.,10.));
#267 = DIRECTION('',(-1.,0.,0.));
#268 = DIRECTION('',(0.,0.,-1.));
#269 = ORIENTED_EDGE('',*,*,#270,.F.);
#270 = EDGE_CURVE('',#271,#262,#273,.T.);
#271 = VERTEX_POINT('',#272);
#272 = CARTESIAN_POINT('',(140.,209.39692620785,6.579798566743));
#273 = CIRCLE('',#274,10.);
#274 = AXIS2_PLACEMENT_3D('',#275,#276,#277);
#275 = CARTESIAN_POINT('',(140.,200.,10.));
#276 = DIRECTION('',(-1.,0.,0.));
#277 = DIRECTION('',(0.,0.,-1.));
#278 = ORIENTED_EDGE('',*,*,#279,.F.);
#279 = EDGE_CURVE('',#280,#271,#282,.T.);
#280 = VERTEX_POINT('',#281);
#281 = CARTESIAN_POINT('',(140.,364.3313413119,432.25860556151));
#282 = LINE('',#283,#284);
#283 = CARTESIAN_POINT('',(140.,456.40354713185,685.22491201122));
#284 = VECTOR('',#285,1.);
#285 = DIRECTION('',(0.,-0.342020143326,-0.939692620786));
#286 = ORIENTED_EDGE('',*,*,#287,.T.);
#287 = EDGE_CURVE('',#280,#288,#290,.T.);
#288 = VERTEX_POINT('',#289);
#289 = CARTESIAN_POINT('',(140.,359.63287820797,433.96870627814));
#290 = LINE('',#291,#292);
#291 = CARTESIAN_POINT('',(140.,364.3313413119,432.25860556151));
#292 = VECTOR('',#293,1.);
#293 = DIRECTION('',(0.,-0.939692620786,0.342020143326));
#294 = ORIENTED_EDGE('',*,*,#295,.T.);
#295 = EDGE_CURVE('',#288,#296,#298,.T.);
#296 = VERTEX_POINT('',#297);
#297 = CARTESIAN_POINT('',(140.,204.69846310393,8.289899283372));
#298 = LINE('',#299,#300);
#299 = CARTESIAN_POINT('',(140.,451.70508402793,686.93501272785));
#300 = VECTOR('',#301,1.);
#301 = DIRECTION('',(0.,-0.342020143326,-0.939692620786));
#302 = ORIENTED_EDGE('',*,*,#303,.F.);
#303 = EDGE_CURVE('',#243,#296,#304,.T.);
#304 = CIRCLE('',#305,5.);
#305 = AXIS2_PLACEMENT_3D('',#306,#307,#308);
#306 = CARTESIAN_POINT('',(140.,200.,10.));
#307 = DIRECTION('',(1.,-0.,0.));
#308 = DIRECTION('',(0.,0.,-1.));
#309 = PLANE('',#310);
#310 = AXIS2_PLACEMENT_3D('',#311,#312,#313);
#311 = CARTESIAN_POINT('',(140.,272.23742929999,195.37077106866));
#312 = DIRECTION('',(1.,0.,0.));
#313 = DIRECTION('',(0.,0.,1.));
#314 = ADVANCED_FACE('',(#315),#367,.T.);
#315 = FACE_BOUND('',#316,.T.);
#316 = EDGE_LOOP('',(#317,#325,#334,#342,#350,#358,#365,#366));
#317 = ORIENTED_EDGE('',*,*,#318,.T.);
#318 = EDGE_CURVE('',#219,#319,#321,.T.);
#319 = VERTEX_POINT('',#320);
#320 = CARTESIAN_POINT('',(150.,200.,5.));
#321 = LINE('',#322,#323);
#322 = CARTESIAN_POINT('',(150.,150.,5.));
#323 = VECTOR('',#324,1.);
#324 = DIRECTION('',(0.,1.,0.));
#325 = ORIENTED_EDGE('',*,*,#326,.T.);
#326 = EDGE_CURVE('',#319,#327,#329,.T.);
#327 = VERTEX_POINT('',#328);
#328 = CARTESIAN_POINT('',(150.,209.39692620785,-1.579798566743));
#329 = CIRCLE('',#330,10.);
#330 = AXIS2_PLACEMENT_3D('',#331,#332,#333);
#331 = CARTESIAN_POINT('',(150.,200.,-5.));
#332 = DIRECTION('',(-1.,0.,0.));
#333 = DIRECTION('',(0.,0.,1.));
#334 = ORIENTED_EDGE('',*,*,#335,.F.);
#335 = EDGE_CURVE('',#336,#327,#338,.T.);
#336 = VERTEX_POINT('',#337);
#337 = CARTESIAN_POINT('',(150.,359.20103916202,-413.1632162497));
#338 = LINE('',#339,#340);
#339 = CARTESIAN_POINT('',(150.,360.91113987864,-417.8616793536));
#340 = VECTOR('',#341,1.);
#341 = DIRECTION('',(0.,-0.342020143326,0.939692620786));
#342 = ORIENTED_EDGE('',*,*,#343,.F.);
#343 = EDGE_CURVE('',#344,#336,#346,.T.);
#344 = VERTEX_POINT('',#345);
#345 = CARTESIAN_POINT('',(150.,354.50257605809,-414.8733169663));
#346 = LINE('',#347,#348);
#347 = CARTESIAN_POINT('',(150.,354.50257605809,-414.8733169663));
#348 = VECTOR('',#349,1.);
#349 = DIRECTION('',(0.,0.939692620786,0.342020143326));
#350 = ORIENTED_EDGE('',*,*,#351,.T.);
#351 = EDGE_CURVE('',#344,#352,#354,.T.);
#352 = VERTEX_POINT('',#353);
#353 = CARTESIAN_POINT('',(150.,204.69846310393,-3.289899283372));
#354 = LINE('',#355,#356);
#355 = CARTESIAN_POINT('',(150.,356.21267677471,-419.5717800702));
#356 = VECTOR('',#357,1.);
#357 = DIRECTION('',(0.,-0.342020143326,0.939692620786));
#358 = ORIENTED_EDGE('',*,*,#359,.F.);
#359 = EDGE_CURVE('',#41,#352,#360,.T.);
#360 = CIRCLE('',#361,5.);
#361 = AXIS2_PLACEMENT_3D('',#362,#363,#364);
#362 = CARTESIAN_POINT('',(150.,200.,-5.));
#363 = DIRECTION('',(-1.,0.,0.));
#364 = DIRECTION('',(0.,0.,1.));
#365 = ORIENTED_EDGE('',*,*,#40,.F.);
#366 = ORIENTED_EDGE('',*,*,#218,.T.);
#367 = PLANE('',#368);
#368 = AXIS2_PLACEMENT_3D('',#369,#370,#371);
#369 = CARTESIAN_POINT('',(150.,270.48746828546,-185.7396673626));
#370 = DIRECTION('',(-1.,-0.,-0.));
#371 = DIRECTION('',(0.,0.,-1.));
#372 = ADVANCED_FACE('',(#373),#412,.T.);
#373 = FACE_BOUND('',#374,.F.);
#374 = EDGE_LOOP('',(#375,#376,#377,#378,#379,#387,#396,#405));
#375 = ORIENTED_EDGE('',*,*,#130,.F.);
#376 = ORIENTED_EDGE('',*,*,#252,.F.);
#377 = ORIENTED_EDGE('',*,*,#261,.F.);
#378 = ORIENTED_EDGE('',*,*,#270,.F.);
#379 = ORIENTED_EDGE('',*,*,#380,.T.);
#380 = EDGE_CURVE('',#271,#381,#383,.T.);
#381 = VERTEX_POINT('',#382);
#382 = CARTESIAN_POINT('',(-140.,209.39692620785,6.579798566743));
#383 = LINE('',#384,#385);
#384 = CARTESIAN_POINT('',(200.,209.39692620785,6.579798566743));
#385 = VECTOR('',#386,1.);
#386 = DIRECTION('',(-1.,0.,0.));
#387 = ORIENTED_EDGE('',*,*,#388,.T.);
#388 = EDGE_CURVE('',#381,#389,#391,.T.);
#389 = VERTEX_POINT('',#390);
#390 = CARTESIAN_POINT('',(-140.,208.66025403784,5.));
#391 = CIRCLE('',#392,10.);
#392 = AXIS2_PLACEMENT_3D('',#393,#394,#395);
#393 = CARTESIAN_POINT('',(-140.,200.,10.));
#394 = DIRECTION('',(-1.,0.,0.));
#395 = DIRECTION('',(0.,0.,-1.));
#396 = ORIENTED_EDGE('',*,*,#397,.T.);
#397 = EDGE_CURVE('',#389,#398,#400,.T.);
#398 = VERTEX_POINT('',#399);
#399 = CARTESIAN_POINT('',(-140.,201.73648177666,0.151922469878));
#400 = CIRCLE('',#401,10.);
#401 = AXIS2_PLACEMENT_3D('',#402,#403,#404);
#402 = CARTESIAN_POINT('',(-140.,200.,10.));
#403 = DIRECTION('',(-1.,0.,0.));
#404 = DIRECTION('',(0.,0.,-1.));
#405 = ORIENTED_EDGE('',*,*,#406,.T.);
#406 = EDGE_CURVE('',#398,#123,#407,.T.);
#407 = CIRCLE('',#408,10.);
#408 = AXIS2_PLACEMENT_3D('',#409,#410,#411);
#409 = CARTESIAN_POINT('',(-140.,200.,10.));
#410 = DIRECTION('',(-1.,0.,0.));
#411 = DIRECTION('',(0.,0.,-1.));
#412 = CYLINDRICAL_SURFACE('',#413,10.);
#413 = AXIS2_PLACEMENT_3D('',#414,#415,#416);
#414 = CARTESIAN_POINT('',(200.,200.,10.));
#415 = DIRECTION('',(-1.,0.,0.));
#416 = DIRECTION('',(0.,0.,-1.));
#417 = ADVANCED_FACE('',(#418),#437,.F.);
#418 = FACE_BOUND('',#419,.T.);
#419 = EDGE_LOOP('',(#420,#421,#429,#436));
#420 = ORIENTED_EDGE('',*,*,#359,.T.);
#421 = ORIENTED_EDGE('',*,*,#422,.T.);
#422 = EDGE_CURVE('',#352,#423,#425,.T.);
#423 = VERTEX_POINT('',#424);
#424 = CARTESIAN_POINT('',(200.,204.69846310393,-3.289899283372));
#425 = LINE('',#426,#427);
#426 = CARTESIAN_POINT('',(150.,204.69846310393,-3.289899283372));
#427 = VECTOR('',#428,1.);
#428 = DIRECTION('',(1.,0.,0.));
#429 = ORIENTED_EDGE('',*,*,#430,.F.);
#430 = EDGE_CURVE('',#49,#423,#431,.T.);
#431 = CIRCLE('',#432,5.);
#432 = AXIS2_PLACEMENT_3D('',#433,#434,#435);
#433 = CARTESIAN_POINT('',(200.,200.,-5.));
#434 = DIRECTION('',(-1.,0.,0.));
#435 = DIRECTION('',(0.,0.,1.));
#436 = ORIENTED_EDGE('',*,*,#48,.T.);
#437 = CYLINDRICAL_SURFACE('',#438,5.);
#438 = AXIS2_PLACEMENT_3D('',#439,#440,#441);
#439 = CARTESIAN_POINT('',(150.,200.,-5.));
#440 = DIRECTION('',(1.,0.,0.));
#441 = DIRECTION('',(0.,0.,1.));
#442 = ADVANCED_FACE('',(#443),#496,.T.);
#443 = FACE_BOUND('',#444,.T.);
#444 = EDGE_LOOP('',(#445,#446,#454,#462,#471,#479,#487,#493,#494,#495)
  );
#445 = ORIENTED_EDGE('',*,*,#122,.F.);
#446 = ORIENTED_EDGE('',*,*,#447,.F.);
#447 = EDGE_CURVE('',#448,#114,#450,.T.);
#448 = VERTEX_POINT('',#449);
#449 = CARTESIAN_POINT('',(-140.,154.9,5.));
#450 = LINE('',#451,#452);
#451 = CARTESIAN_POINT('',(-140.,154.9,5.));
#452 = VECTOR('',#453,1.);
#453 = DIRECTION('',(-0.,-0.,-1.));
#454 = ORIENTED_EDGE('',*,*,#455,.T.);
#455 = EDGE_CURVE('',#448,#456,#458,.T.);
#456 = VERTEX_POINT('',#457);
#457 = CARTESIAN_POINT('',(-140.,200.,5.));
#458 = LINE('',#459,#460);
#459 = CARTESIAN_POINT('',(-140.,150.,5.));
#460 = VECTOR('',#461,1.);
#461 = DIRECTION('',(0.,1.,0.));
#462 = ORIENTED_EDGE('',*,*,#463,.T.);
#463 = EDGE_CURVE('',#456,#464,#466,.T.);
#464 = VERTEX_POINT('',#465);
#465 = CARTESIAN_POINT('',(-140.,204.69846310393,8.289899283372));
#466 = CIRCLE('',#467,5.);
#467 = AXIS2_PLACEMENT_3D('',#468,#469,#470);
#468 = CARTESIAN_POINT('',(-140.,200.,10.));
#469 = DIRECTION('',(1.,-0.,0.));
#470 = DIRECTION('',(0.,0.,-1.));
#471 = ORIENTED_EDGE('',*,*,#472,.T.);
#472 = EDGE_CURVE('',#464,#473,#475,.T.);
#473 = VERTEX_POINT('',#474);
#474 = CARTESIAN_POINT('',(-140.,359.63287820797,433.96870627814));
#475 = LINE('',#476,#477);
#476 = CARTESIAN_POINT('',(-140.,143.88695503482,-158.7883459794));
#477 = VECTOR('',#478,1.);
#478 = DIRECTION('',(0.,0.342020143326,0.939692620786));
#479 = ORIENTED_EDGE('',*,*,#480,.T.);
#480 = EDGE_CURVE('',#473,#481,#483,.T.);
#481 = VERTEX_POINT('',#482);
#482 = CARTESIAN_POINT('',(-140.,364.3313413119,432.25860556151));
#483 = LINE('',#484,#485);
#484 = CARTESIAN_POINT('',(-140.,359.63287820797,433.96870627814));
#485 = VECTOR('',#486,1.);
#486 = DIRECTION('',(0.,0.939692620786,-0.342020143326));
#487 = ORIENTED_EDGE('',*,*,#488,.F.);
#488 = EDGE_CURVE('',#381,#481,#489,.T.);
#489 = LINE('',#490,#491);
#490 = CARTESIAN_POINT('',(-140.,148.58541813875,-160.498446696));
#491 = VECTOR('',#492,1.);
#492 = DIRECTION('',(0.,0.342020143326,0.939692620786));
#493 = ORIENTED_EDGE('',*,*,#388,.T.);
#494 = ORIENTED_EDGE('',*,*,#397,.T.);
#495 = ORIENTED_EDGE('',*,*,#406,.T.);
#496 = PLANE('',#497);
#497 = AXIS2_PLACEMENT_3D('',#498,#499,#500);
#498 = CARTESIAN_POINT('',(-140.,272.23742929999,195.37077106866));
#499 = DIRECTION('',(-1.,-0.,-0.));
#500 = DIRECTION('',(0.,0.,-1.));
#501 = ADVANCED_FACE('',(#502),#587,.T.);
#502 = FACE_BOUND('',#503,.T.);
#503 = EDGE_LOOP('',(#504,#514,#523,#531,#540,#548,#556,#564,#571,#572,
    #573,#581));
#504 = ORIENTED_EDGE('',*,*,#505,.F.);
#505 = EDGE_CURVE('',#506,#508,#510,.T.);
#506 = VERTEX_POINT('',#507);
#507 = CARTESIAN_POINT('',(200.,209.39692620785,-1.579798566743));
#508 = VERTEX_POINT('',#509);
#509 = CARTESIAN_POINT('',(200.,359.20103916202,-413.1632162497));
#510 = LINE('',#511,#512);
#511 = CARTESIAN_POINT('',(200.,209.39692620785,-1.579798566743));
#512 = VECTOR('',#513,1.);
#513 = DIRECTION('',(0.,0.342020143326,-0.939692620786));
#514 = ORIENTED_EDGE('',*,*,#515,.F.);
#515 = EDGE_CURVE('',#516,#506,#518,.T.);
#516 = VERTEX_POINT('',#517);
#517 = CARTESIAN_POINT('',(200.,200.,5.));
#518 = CIRCLE('',#519,10.);
#519 = AXIS2_PLACEMENT_3D('',#520,#521,#522);
#520 = CARTESIAN_POINT('',(200.,200.,-5.));
#521 = DIRECTION('',(-1.,0.,0.));
#522 = DIRECTION('',(0.,0.,1.));
#523 = ORIENTED_EDGE('',*,*,#524,.F.);
#524 = EDGE_CURVE('',#525,#516,#527,.T.);
#525 = VERTEX_POINT('',#526);
#526 = CARTESIAN_POINT('',(200.,-200.,5.));
#527 = LINE('',#528,#529);
#528 = CARTESIAN_POINT('',(200.,-200.,5.));
#529 = VECTOR('',#530,1.);
#530 = DIRECTION('',(0.,1.,0.));
#531 = ORIENTED_EDGE('',*,*,#532,.T.);
#532 = EDGE_CURVE('',#525,#533,#535,.T.);
#533 = VERTEX_POINT('',#534);
#534 = CARTESIAN_POINT('',(200.,-209.3969262078,-1.579798566743));
#535 = CIRCLE('',#536,10.);
#536 = AXIS2_PLACEMENT_3D('',#537,#538,#539);
#537 = CARTESIAN_POINT('',(200.,-200.,-5.));
#538 = DIRECTION('',(1.,0.,-0.));
#539 = DIRECTION('',(0.,0.,1.));
#540 = ORIENTED_EDGE('',*,*,#541,.F.);
#541 = EDGE_CURVE('',#542,#533,#544,.T.);
#542 = VERTEX_POINT('',#543);
#543 = CARTESIAN_POINT('',(200.,-359.201039162,-413.1632162497));
#544 = LINE('',#545,#546);
#545 = CARTESIAN_POINT('',(200.,-360.9111398786,-417.8616793536));
#546 = VECTOR('',#547,1.);
#547 = DIRECTION('',(0.,0.342020143326,0.939692620786));
#548 = ORIENTED_EDGE('',*,*,#549,.F.);
#549 = EDGE_CURVE('',#550,#542,#552,.T.);
#550 = VERTEX_POINT('',#551);
#551 = CARTESIAN_POINT('',(200.,-354.502576058,-414.8733169663));
#552 = LINE('',#553,#554);
#553 = CARTESIAN_POINT('',(200.,-354.502576058,-414.8733169663));
#554 = VECTOR('',#555,1.);
#555 = DIRECTION('',(0.,-0.939692620786,0.342020143326));
#556 = ORIENTED_EDGE('',*,*,#557,.T.);
#557 = EDGE_CURVE('',#550,#558,#560,.T.);
#558 = VERTEX_POINT('',#559);
#559 = CARTESIAN_POINT('',(200.,-204.6984631039,-3.289899283372));
#560 = LINE('',#561,#562);
#561 = CARTESIAN_POINT('',(200.,-356.2126767747,-419.5717800702));
#562 = VECTOR('',#563,1.);
#563 = DIRECTION('',(0.,0.342020143326,0.939692620786));
#564 = ORIENTED_EDGE('',*,*,#565,.F.);
#565 = EDGE_CURVE('',#57,#558,#566,.T.);
#566 = CIRCLE('',#567,5.);
#567 = AXIS2_PLACEMENT_3D('',#568,#569,#570);
#568 = CARTESIAN_POINT('',(200.,-200.,-5.));
#569 = DIRECTION('',(1.,0.,-0.));
#570 = DIRECTION('',(0.,0.,1.));
#571 = ORIENTED_EDGE('',*,*,#56,.T.);
#572 = ORIENTED_EDGE('',*,*,#430,.T.);
#573 = ORIENTED_EDGE('',*,*,#574,.T.);
#574 = EDGE_CURVE('',#423,#575,#577,.T.);
#575 = VERTEX_POINT('',#576);
#576 = CARTESIAN_POINT('',(200.,354.50257605809,-414.8733169663));
#577 = LINE('',#578,#579);
#578 = CARTESIAN_POINT('',(200.,204.69846310393,-3.289899283372));
#579 = VECTOR('',#580,1.);
#580 = DIRECTION('',(0.,0.342020143326,-0.939692620786));
#581 = ORIENTED_EDGE('',*,*,#582,.T.);
#582 = EDGE_CURVE('',#575,#508,#583,.T.);
#583 = LINE('',#584,#585);
#584 = CARTESIAN_POINT('',(200.,354.50257605809,-414.8733169663));
#585 = VECTOR('',#586,1.);
#586 = DIRECTION('',(0.,0.939692620786,0.342020143326));
#587 = PLANE('',#588);
#588 = AXIS2_PLACEMENT_3D('',#589,#590,#591);
#589 = CARTESIAN_POINT('',(200.,5.56E-15,-143.3237678201));
#590 = DIRECTION('',(1.,0.,0.));
#591 = DIRECTION('',(0.,0.,1.));
#592 = ADVANCED_FACE('',(#593),#612,.F.);
#593 = FACE_BOUND('',#594,.T.);
#594 = EDGE_LOOP('',(#595,#604,#605,#606));
#595 = ORIENTED_EDGE('',*,*,#596,.T.);
#596 = EDGE_CURVE('',#597,#448,#599,.T.);
#597 = VERTEX_POINT('',#598);
#598 = CARTESIAN_POINT('',(-144.9,150.,5.));
#599 = CIRCLE('',#600,4.9);
#600 = AXIS2_PLACEMENT_3D('',#601,#602,#603);
#601 = CARTESIAN_POINT('',(-144.9,154.9,5.));
#602 = DIRECTION('',(0.,-0.,1.));
#603 = DIRECTION('',(0.,1.,0.));
#604 = ORIENTED_EDGE('',*,*,#447,.T.);
#605 = ORIENTED_EDGE('',*,*,#113,.F.);
#606 = ORIENTED_EDGE('',*,*,#607,.F.);
#607 = EDGE_CURVE('',#597,#106,#608,.T.);
#608 = LINE('',#609,#610);
#609 = CARTESIAN_POINT('',(-144.9,150.,5.));
#610 = VECTOR('',#611,1.);
#611 = DIRECTION('',(-0.,-0.,-1.));
#612 = CYLINDRICAL_SURFACE('',#613,4.9);
#613 = AXIS2_PLACEMENT_3D('',#614,#615,#616);
#614 = CARTESIAN_POINT('',(-144.9,154.9,5.));
#615 = DIRECTION('',(-0.,-0.,-1.));
#616 = DIRECTION('',(0.,-1.,0.));
#617 = ADVANCED_FACE('',(#618),#637,.F.);
#618 = FACE_BOUND('',#619,.T.);
#619 = EDGE_LOOP('',(#620,#621,#629,#636));
#620 = ORIENTED_EDGE('',*,*,#565,.T.);
#621 = ORIENTED_EDGE('',*,*,#622,.T.);
#622 = EDGE_CURVE('',#558,#623,#625,.T.);
#623 = VERTEX_POINT('',#624);
#624 = CARTESIAN_POINT('',(-200.,-204.6984631039,-3.289899283372));
#625 = LINE('',#626,#627);
#626 = CARTESIAN_POINT('',(200.,-204.6984631039,-3.289899283372));
#627 = VECTOR('',#628,1.);
#628 = DIRECTION('',(-1.,0.,0.));
#629 = ORIENTED_EDGE('',*,*,#630,.F.);
#630 = EDGE_CURVE('',#65,#623,#631,.T.);
#631 = CIRCLE('',#632,5.);
#632 = AXIS2_PLACEMENT_3D('',#633,#634,#635);
#633 = CARTESIAN_POINT('',(-200.,-200.,-5.));
#634 = DIRECTION('',(1.,0.,-0.));
#635 = DIRECTION('',(0.,0.,1.));
#636 = ORIENTED_EDGE('',*,*,#64,.T.);
#637 = CYLINDRICAL_SURFACE('',#638,5.);
#638 = AXIS2_PLACEMENT_3D('',#639,#640,#641);
#639 = CARTESIAN_POINT('',(200.,-200.,-5.));
#640 = DIRECTION('',(-1.,-0.,-0.));
#641 = DIRECTION('',(0.,0.,1.));
#642 = ADVANCED_FACE('',(#643),#661,.F.);
#643 = FACE_BOUND('',#644,.F.);
#644 = EDGE_LOOP('',(#645,#653,#659,#660));
#645 = ORIENTED_EDGE('',*,*,#646,.F.);
#646 = EDGE_CURVE('',#647,#597,#649,.T.);
#647 = VERTEX_POINT('',#648);
#648 = CARTESIAN_POINT('',(-145.1,150.,5.));
#649 = LINE('',#650,#651);
#650 = CARTESIAN_POINT('',(-200.,150.,5.));
#651 = VECTOR('',#652,1.);
#652 = DIRECTION('',(1.,0.,0.));
#653 = ORIENTED_EDGE('',*,*,#654,.T.);
#654 = EDGE_CURVE('',#647,#97,#655,.T.);
#655 = LINE('',#656,#657);
#656 = CARTESIAN_POINT('',(-145.1,150.,5.));
#657 = VECTOR('',#658,1.);
#658 = DIRECTION('',(0.,-2.2E-16,-1.));
#659 = ORIENTED_EDGE('',*,*,#105,.T.);
#660 = ORIENTED_EDGE('',*,*,#607,.F.);
#661 = PLANE('',#662);
#662 = AXIS2_PLACEMENT_3D('',#663,#664,#665);
#663 = CARTESIAN_POINT('',(-200.,150.,5.));
#664 = DIRECTION('',(0.,-1.,0.));
#665 = DIRECTION('',(1.,0.,0.));
#666 = ADVANCED_FACE('',(#667),#752,.T.);
#667 = FACE_BOUND('',#668,.T.);
#668 = EDGE_LOOP('',(#669,#679,#686,#687,#688,#696,#704,#712,#721,#729,
    #738,#746));
#669 = ORIENTED_EDGE('',*,*,#670,.T.);
#670 = EDGE_CURVE('',#671,#673,#675,.T.);
#671 = VERTEX_POINT('',#672);
#672 = CARTESIAN_POINT('',(-200.,354.50257605809,-414.8733169663));
#673 = VERTEX_POINT('',#674);
#674 = CARTESIAN_POINT('',(-200.,204.69846310393,-3.289899283372));
#675 = LINE('',#676,#677);
#676 = CARTESIAN_POINT('',(-200.,356.21267677471,-419.5717800702));
#677 = VECTOR('',#678,1.);
#678 = DIRECTION('',(0.,-0.342020143326,0.939692620786));
#679 = ORIENTED_EDGE('',*,*,#680,.F.);
#680 = EDGE_CURVE('',#73,#673,#681,.T.);
#681 = CIRCLE('',#682,5.);
#682 = AXIS2_PLACEMENT_3D('',#683,#684,#685);
#683 = CARTESIAN_POINT('',(-200.,200.,-5.));
#684 = DIRECTION('',(-1.,0.,0.));
#685 = DIRECTION('',(0.,0.,1.));
#686 = ORIENTED_EDGE('',*,*,#72,.T.);
#687 = ORIENTED_EDGE('',*,*,#630,.T.);
#688 = ORIENTED_EDGE('',*,*,#689,.T.);
#689 = EDGE_CURVE('',#623,#690,#692,.T.);
#690 = VERTEX_POINT('',#691);
#691 = CARTESIAN_POINT('',(-200.,-354.502576058,-414.8733169663));
#692 = LINE('',#693,#694);
#693 = CARTESIAN_POINT('',(-200.,-204.6984631039,-3.289899283372));
#694 = VECTOR('',#695,1.);
#695 = DIRECTION('',(0.,-0.342020143326,-0.939692620786));
#696 = ORIENTED_EDGE('',*,*,#697,.T.);
#697 = EDGE_CURVE('',#690,#698,#700,.T.);
#698 = VERTEX_POINT('',#699);
#699 = CARTESIAN_POINT('',(-200.,-359.201039162,-413.1632162497));
#700 = LINE('',#701,#702);
#701 = CARTESIAN_POINT('',(-200.,-354.502576058,-414.8733169663));
#702 = VECTOR('',#703,1.);
#703 = DIRECTION('',(0.,-0.939692620786,0.342020143326));
#704 = ORIENTED_EDGE('',*,*,#705,.F.);
#705 = EDGE_CURVE('',#706,#698,#708,.T.);
#706 = VERTEX_POINT('',#707);
#707 = CARTESIAN_POINT('',(-200.,-209.3969262078,-1.579798566743));
#708 = LINE('',#709,#710);
#709 = CARTESIAN_POINT('',(-200.,-209.3969262078,-1.579798566743));
#710 = VECTOR('',#711,1.);
#711 = DIRECTION('',(0.,-0.342020143326,-0.939692620786));
#712 = ORIENTED_EDGE('',*,*,#713,.F.);
#713 = EDGE_CURVE('',#714,#706,#716,.T.);
#714 = VERTEX_POINT('',#715);
#715 = CARTESIAN_POINT('',(-200.,-200.,5.));
#716 = CIRCLE('',#717,10.);
#717 = AXIS2_PLACEMENT_3D('',#718,#719,#720);
#718 = CARTESIAN_POINT('',(-200.,-200.,-5.));
#719 = DIRECTION('',(1.,0.,-0.));
#720 = DIRECTION('',(0.,0.,1.));
#721 = ORIENTED_EDGE('',*,*,#722,.T.);
#722 = EDGE_CURVE('',#714,#723,#725,.T.);
#723 = VERTEX_POINT('',#724);
#724 = CARTESIAN_POINT('',(-200.,200.,5.));
#725 = LINE('',#726,#727);
#726 = CARTESIAN_POINT('',(-200.,150.,5.));
#727 = VECTOR('',#728,1.);
#728 = DIRECTION('',(0.,1.,0.));
#729 = ORIENTED_EDGE('',*,*,#730,.T.);
#730 = EDGE_CURVE('',#723,#731,#733,.T.);
#731 = VERTEX_POINT('',#732);
#732 = CARTESIAN_POINT('',(-200.,209.39692620785,-1.579798566743));
#733 = CIRCLE('',#734,10.);
#734 = AXIS2_PLACEMENT_3D('',#735,#736,#737);
#735 = CARTESIAN_POINT('',(-200.,200.,-5.));
#736 = DIRECTION('',(-1.,0.,0.));
#737 = DIRECTION('',(0.,0.,1.));
#738 = ORIENTED_EDGE('',*,*,#739,.F.);
#739 = EDGE_CURVE('',#740,#731,#742,.T.);
#740 = VERTEX_POINT('',#741);
#741 = CARTESIAN_POINT('',(-200.,359.20103916202,-413.1632162497));
#742 = LINE('',#743,#744);
#743 = CARTESIAN_POINT('',(-200.,360.91113987864,-417.8616793536));
#744 = VECTOR('',#745,1.);
#745 = DIRECTION('',(0.,-0.342020143326,0.939692620786));
#746 = ORIENTED_EDGE('',*,*,#747,.F.);
#747 = EDGE_CURVE('',#671,#740,#748,.T.);
#748 = LINE('',#749,#750);
#749 = CARTESIAN_POINT('',(-200.,354.50257605809,-414.8733169663));
#750 = VECTOR('',#751,1.);
#751 = DIRECTION('',(0.,0.939692620786,0.342020143326));
#752 = PLANE('',#753);
#753 = AXIS2_PLACEMENT_3D('',#754,#755,#756);
#754 = CARTESIAN_POINT('',(-200.,1.928E-14,-143.3237678201));
#755 = DIRECTION('',(-1.,-0.,-0.));
#756 = DIRECTION('',(0.,0.,-1.));
#757 = ADVANCED_FACE('',(#758),#777,.F.);
#758 = FACE_BOUND('',#759,.T.);
#759 = EDGE_LOOP('',(#760,#769,#770,#771));
#760 = ORIENTED_EDGE('',*,*,#761,.T.);
#761 = EDGE_CURVE('',#762,#647,#764,.T.);
#762 = VERTEX_POINT('',#763);
#763 = CARTESIAN_POINT('',(-150.,154.9,5.));
#764 = CIRCLE('',#765,4.9);
#765 = AXIS2_PLACEMENT_3D('',#766,#767,#768);
#766 = CARTESIAN_POINT('',(-145.1,154.9,5.));
#767 = DIRECTION('',(0.,2.2E-16,1.));
#768 = DIRECTION('',(0.,1.,-2.2E-16));
#769 = ORIENTED_EDGE('',*,*,#654,.T.);
#770 = ORIENTED_EDGE('',*,*,#96,.F.);
#771 = ORIENTED_EDGE('',*,*,#772,.F.);
#772 = EDGE_CURVE('',#762,#89,#773,.T.);
#773 = LINE('',#774,#775);
#774 = CARTESIAN_POINT('',(-150.,154.9,5.));
#775 = VECTOR('',#776,1.);
#776 = DIRECTION('',(0.,-2.2E-16,-1.));
#777 = CYLINDRICAL_SURFACE('',#778,4.9);
#778 = AXIS2_PLACEMENT_3D('',#779,#780,#781);
#779 = CARTESIAN_POINT('',(-145.1,154.9,5.));
#780 = DIRECTION('',(0.,-2.2E-16,-1.));
#781 = DIRECTION('',(-1.,0.,0.));
#782 = ADVANCED_FACE('',(#783),#802,.F.);
#783 = FACE_BOUND('',#784,.T.);
#784 = EDGE_LOOP('',(#785,#786,#794,#801));
#785 = ORIENTED_EDGE('',*,*,#680,.T.);
#786 = ORIENTED_EDGE('',*,*,#787,.T.);
#787 = EDGE_CURVE('',#673,#788,#790,.T.);
#788 = VERTEX_POINT('',#789);
#789 = CARTESIAN_POINT('',(-150.,204.69846310393,-3.289899283372));
#790 = LINE('',#791,#792);
#791 = CARTESIAN_POINT('',(-200.,204.69846310393,-3.289899283372));
#792 = VECTOR('',#793,1.);
#793 = DIRECTION('',(1.,0.,0.));
#794 = ORIENTED_EDGE('',*,*,#795,.F.);
#795 = EDGE_CURVE('',#81,#788,#796,.T.);
#796 = CIRCLE('',#797,5.);
#797 = AXIS2_PLACEMENT_3D('',#798,#799,#800);
#798 = CARTESIAN_POINT('',(-150.,200.,-5.));
#799 = DIRECTION('',(-1.,0.,0.));
#800 = DIRECTION('',(0.,0.,1.));
#801 = ORIENTED_EDGE('',*,*,#80,.T.);
#802 = CYLINDRICAL_SURFACE('',#803,5.);
#803 = AXIS2_PLACEMENT_3D('',#804,#805,#806);
#804 = CARTESIAN_POINT('',(-200.,200.,-5.));
#805 = DIRECTION('',(1.,0.,0.));
#806 = DIRECTION('',(0.,0.,1.));
#807 = ADVANCED_FACE('',(#808),#852,.T.);
#808 = FACE_BOUND('',#809,.T.);
#809 = EDGE_LOOP('',(#810,#811,#812,#820,#828,#836,#845,#851));
#810 = ORIENTED_EDGE('',*,*,#88,.T.);
#811 = ORIENTED_EDGE('',*,*,#795,.T.);
#812 = ORIENTED_EDGE('',*,*,#813,.T.);
#813 = EDGE_CURVE('',#788,#814,#816,.T.);
#814 = VERTEX_POINT('',#815);
#815 = CARTESIAN_POINT('',(-150.,354.50257605809,-414.8733169663));
#816 = LINE('',#817,#818);
#817 = CARTESIAN_POINT('',(-150.,204.69846310393,-3.289899283372));
#818 = VECTOR('',#819,1.);
#819 = DIRECTION('',(0.,0.342020143326,-0.939692620786));
#820 = ORIENTED_EDGE('',*,*,#821,.T.);
#821 = EDGE_CURVE('',#814,#822,#824,.T.);
#822 = VERTEX_POINT('',#823);
#823 = CARTESIAN_POINT('',(-150.,359.20103916202,-413.1632162497));
#824 = LINE('',#825,#826);
#825 = CARTESIAN_POINT('',(-150.,354.50257605809,-414.8733169663));
#826 = VECTOR('',#827,1.);
#827 = DIRECTION('',(0.,0.939692620786,0.342020143326));
#828 = ORIENTED_EDGE('',*,*,#829,.F.);
#829 = EDGE_CURVE('',#830,#822,#832,.T.);
#830 = VERTEX_POINT('',#831);
#831 = CARTESIAN_POINT('',(-150.,209.39692620785,-1.579798566743));
#832 = LINE('',#833,#834);
#833 = CARTESIAN_POINT('',(-150.,209.39692620785,-1.579798566743));
#834 = VECTOR('',#835,1.);
#835 = DIRECTION('',(0.,0.342020143326,-0.939692620786));
#836 = ORIENTED_EDGE('',*,*,#837,.F.);
#837 = EDGE_CURVE('',#838,#830,#840,.T.);
#838 = VERTEX_POINT('',#839);
#839 = CARTESIAN_POINT('',(-150.,200.,5.));
#840 = CIRCLE('',#841,10.);
#841 = AXIS2_PLACEMENT_3D('',#842,#843,#844);
#842 = CARTESIAN_POINT('',(-150.,200.,-5.));
#843 = DIRECTION('',(-1.,0.,0.));
#844 = DIRECTION('',(0.,0.,1.));
#845 = ORIENTED_EDGE('',*,*,#846,.F.);
#846 = EDGE_CURVE('',#762,#838,#847,.T.);
#847 = LINE('',#848,#849);
#848 = CARTESIAN_POINT('',(-150.,150.,5.));
#849 = VECTOR('',#850,1.);
#850 = DIRECTION('',(0.,1.,0.));
#851 = ORIENTED_EDGE('',*,*,#772,.T.);
#852 = PLANE('',#853);
#853 = AXIS2_PLACEMENT_3D('',#854,#855,#856);
#854 = CARTESIAN_POINT('',(-150.,270.48746828546,-185.7396673626));
#855 = DIRECTION('',(1.,0.,0.));
#856 = DIRECTION('',(0.,0.,1.));
#857 = ADVANCED_FACE('',(#858),#896,.T.);
#858 = FACE_BOUND('',#859,.T.);
#859 = EDGE_LOOP('',(#860,#861,#862,#863,#869,#870,#871,#872,#873,#874,
    #880,#881,#887,#888,#894,#895));
#860 = ORIENTED_EDGE('',*,*,#161,.F.);
#861 = ORIENTED_EDGE('',*,*,#192,.T.);
#862 = ORIENTED_EDGE('',*,*,#242,.F.);
#863 = ORIENTED_EDGE('',*,*,#864,.T.);
#864 = EDGE_CURVE('',#243,#456,#865,.T.);
#865 = LINE('',#866,#867);
#866 = CARTESIAN_POINT('',(200.,200.,5.));
#867 = VECTOR('',#868,1.);
#868 = DIRECTION('',(-1.,0.,0.));
#869 = ORIENTED_EDGE('',*,*,#455,.F.);
#870 = ORIENTED_EDGE('',*,*,#596,.F.);
#871 = ORIENTED_EDGE('',*,*,#646,.F.);
#872 = ORIENTED_EDGE('',*,*,#761,.F.);
#873 = ORIENTED_EDGE('',*,*,#846,.T.);
#874 = ORIENTED_EDGE('',*,*,#875,.F.);
#875 = EDGE_CURVE('',#723,#838,#876,.T.);
#876 = LINE('',#877,#878);
#877 = CARTESIAN_POINT('',(-200.,200.,5.));
#878 = VECTOR('',#879,1.);
#879 = DIRECTION('',(1.,0.,0.));
#880 = ORIENTED_EDGE('',*,*,#722,.F.);
#881 = ORIENTED_EDGE('',*,*,#882,.T.);
#882 = EDGE_CURVE('',#714,#525,#883,.T.);
#883 = LINE('',#884,#885);
#884 = CARTESIAN_POINT('',(-200.,-200.,5.));
#885 = VECTOR('',#886,1.);
#886 = DIRECTION('',(1.,0.,0.));
#887 = ORIENTED_EDGE('',*,*,#524,.T.);
#888 = ORIENTED_EDGE('',*,*,#889,.F.);
#889 = EDGE_CURVE('',#319,#516,#890,.T.);
#890 = LINE('',#891,#892);
#891 = CARTESIAN_POINT('',(150.,200.,5.));
#892 = VECTOR('',#893,1.);
#893 = DIRECTION('',(1.,0.,0.));
#894 = ORIENTED_EDGE('',*,*,#318,.F.);
#895 = ORIENTED_EDGE('',*,*,#226,.F.);
#896 = PLANE('',#897);
#897 = AXIS2_PLACEMENT_3D('',#898,#899,#900);
#898 = CARTESIAN_POINT('',(0.,18.888888888889,5.));
#899 = DIRECTION('',(0.,0.,1.));
#900 = DIRECTION('',(1.,0.,0.));
#901 = ADVANCED_FACE('',(#902),#913,.F.);
#902 = FACE_BOUND('',#903,.F.);
#903 = EDGE_LOOP('',(#904,#905,#906,#912));
#904 = ORIENTED_EDGE('',*,*,#864,.T.);
#905 = ORIENTED_EDGE('',*,*,#463,.T.);
#906 = ORIENTED_EDGE('',*,*,#907,.T.);
#907 = EDGE_CURVE('',#464,#296,#908,.T.);
#908 = LINE('',#909,#910);
#909 = CARTESIAN_POINT('',(-200.,204.69846310393,8.289899283372));
#910 = VECTOR('',#911,1.);
#911 = DIRECTION('',(1.,0.,0.));
#912 = ORIENTED_EDGE('',*,*,#303,.F.);
#913 = CYLINDRICAL_SURFACE('',#914,5.);
#914 = AXIS2_PLACEMENT_3D('',#915,#916,#917);
#915 = CARTESIAN_POINT('',(-200.,200.,10.));
#916 = DIRECTION('',(1.,0.,0.));
#917 = DIRECTION('',(0.,0.,-1.));
#918 = ADVANCED_FACE('',(#919),#948,.T.);
#919 = FACE_BOUND('',#920,.T.);
#920 = EDGE_LOOP('',(#921,#931,#938,#939,#940,#941));
#921 = ORIENTED_EDGE('',*,*,#922,.T.);
#922 = EDGE_CURVE('',#923,#925,#927,.T.);
#923 = VERTEX_POINT('',#924);
#924 = CARTESIAN_POINT('',(100.,373.313683941,471.55641110958));
#925 = VERTEX_POINT('',#926);
#926 = CARTESIAN_POINT('',(-100.,373.313683941,471.55641110958));
#927 = LINE('',#928,#929);
#928 = CARTESIAN_POINT('',(200.,373.313683941,471.55641110958));
#929 = VECTOR('',#930,1.);
#930 = DIRECTION('',(-1.,0.,0.));
#931 = ORIENTED_EDGE('',*,*,#932,.T.);
#932 = EDGE_CURVE('',#925,#473,#933,.T.);
#933 = CIRCLE('',#934,40.);
#934 = AXIS2_PLACEMENT_3D('',#935,#936,#937);
#935 = CARTESIAN_POINT('',(-100.,359.63287820797,433.96870627814));
#936 = DIRECTION('',(0.,-0.939692620786,0.342020143326));
#937 = DIRECTION('',(0.,0.342020143326,0.939692620786));
#938 = ORIENTED_EDGE('',*,*,#472,.F.);
#939 = ORIENTED_EDGE('',*,*,#907,.T.);
#940 = ORIENTED_EDGE('',*,*,#295,.F.);
#941 = ORIENTED_EDGE('',*,*,#942,.T.);
#942 = EDGE_CURVE('',#288,#923,#943,.T.);
#943 = CIRCLE('',#944,40.);
#944 = AXIS2_PLACEMENT_3D('',#945,#946,#947);
#945 = CARTESIAN_POINT('',(100.,359.63287820797,433.96870627814));
#946 = DIRECTION('',(0.,-0.939692620786,0.342020143326));
#947 = DIRECTION('',(0.,-0.342020143326,-0.939692620786));
#948 = PLANE('',#949);
#949 = AXIS2_PLACEMENT_3D('',#950,#951,#952);
#950 = CARTESIAN_POINT('',(-8.15E-15,289.00607352246,239.92315519647));
#951 = DIRECTION('',(0.,-0.939692620786,0.342020143326));
#952 = DIRECTION('',(1.,0.,0.));
#953 = ADVANCED_FACE('',(#954),#973,.T.);
#954 = FACE_BOUND('',#955,.T.);
#955 = EDGE_LOOP('',(#956,#965,#971,#972));
#956 = ORIENTED_EDGE('',*,*,#957,.T.);
#957 = EDGE_CURVE('',#280,#958,#960,.T.);
#958 = VERTEX_POINT('',#959);
#959 = CARTESIAN_POINT('',(100.,378.01214704493,469.84631039295));
#960 = CIRCLE('',#961,40.);
#961 = AXIS2_PLACEMENT_3D('',#962,#963,#964);
#962 = CARTESIAN_POINT('',(100.,364.3313413119,432.25860556151));
#963 = DIRECTION('',(0.,-0.939692620786,0.342020143326));
#964 = DIRECTION('',(0.,-0.342020143326,-0.939692620786));
#965 = ORIENTED_EDGE('',*,*,#966,.T.);
#966 = EDGE_CURVE('',#958,#923,#967,.T.);
#967 = LINE('',#968,#969);
#968 = CARTESIAN_POINT('',(100.,378.01214704493,469.84631039295));
#969 = VECTOR('',#970,1.);
#970 = DIRECTION('',(0.,-0.939692620786,0.342020143326));
#971 = ORIENTED_EDGE('',*,*,#942,.F.);
#972 = ORIENTED_EDGE('',*,*,#287,.F.);
#973 = CYLINDRICAL_SURFACE('',#974,40.);
#974 = AXIS2_PLACEMENT_3D('',#975,#976,#977);
#975 = CARTESIAN_POINT('',(100.,364.3313413119,432.25860556151));
#976 = DIRECTION('',(0.,-0.939692620786,0.342020143326));
#977 = DIRECTION('',(1.,0.,0.));
#978 = ADVANCED_FACE('',(#979),#1000,.F.);
#979 = FACE_BOUND('',#980,.F.);
#980 = EDGE_LOOP('',(#981,#989,#996,#997,#998,#999));
#981 = ORIENTED_EDGE('',*,*,#982,.T.);
#982 = EDGE_CURVE('',#958,#983,#985,.T.);
#983 = VERTEX_POINT('',#984);
#984 = CARTESIAN_POINT('',(-100.,378.01214704493,469.84631039295));
#985 = LINE('',#986,#987);
#986 = CARTESIAN_POINT('',(200.,378.01214704493,469.84631039295));
#987 = VECTOR('',#988,1.);
#988 = DIRECTION('',(-1.,0.,0.));
#989 = ORIENTED_EDGE('',*,*,#990,.T.);
#990 = EDGE_CURVE('',#983,#481,#991,.T.);
#991 = CIRCLE('',#992,40.);
#992 = AXIS2_PLACEMENT_3D('',#993,#994,#995);
#993 = CARTESIAN_POINT('',(-100.,364.3313413119,432.25860556151));
#994 = DIRECTION('',(0.,-0.939692620786,0.342020143326));
#995 = DIRECTION('',(0.,0.342020143326,0.939692620786));
#996 = ORIENTED_EDGE('',*,*,#488,.F.);
#997 = ORIENTED_EDGE('',*,*,#380,.F.);
#998 = ORIENTED_EDGE('',*,*,#279,.F.);
#999 = ORIENTED_EDGE('',*,*,#957,.T.);
#1000 = PLANE('',#1001);
#1001 = AXIS2_PLACEMENT_3D('',#1002,#1003,#1004);
#1002 = CARTESIAN_POINT('',(-8.15E-15,293.70453662639,238.21305447984));
#1003 = DIRECTION('',(0.,-0.939692620786,0.342020143326));
#1004 = DIRECTION('',(1.,0.,0.));
#1005 = ADVANCED_FACE('',(#1006),#1017,.T.);
#1006 = FACE_BOUND('',#1007,.T.);
#1007 = EDGE_LOOP('',(#1008,#1009,#1015,#1016));
#1008 = ORIENTED_EDGE('',*,*,#515,.T.);
#1009 = ORIENTED_EDGE('',*,*,#1010,.T.);
#1010 = EDGE_CURVE('',#506,#327,#1011,.T.);
#1011 = LINE('',#1012,#1013);
#1012 = CARTESIAN_POINT('',(200.,209.39692620785,-1.579798566743));
#1013 = VECTOR('',#1014,1.);
#1014 = DIRECTION('',(-1.,0.,0.));
#1015 = ORIENTED_EDGE('',*,*,#326,.F.);
#1016 = ORIENTED_EDGE('',*,*,#889,.T.);
#1017 = CYLINDRICAL_SURFACE('',#1018,10.);
#1018 = AXIS2_PLACEMENT_3D('',#1019,#1020,#1021);
#1019 = CARTESIAN_POINT('',(200.,200.,-5.));
#1020 = DIRECTION('',(-1.,0.,0.));
#1021 = DIRECTION('',(0.,0.,1.));
#1022 = ADVANCED_FACE('',(#1023),#1052,.T.);
#1023 = FACE_BOUND('',#1024,.T.);
#1024 = EDGE_LOOP('',(#1025,#1035,#1042,#1043,#1044,#1045));
#1025 = ORIENTED_EDGE('',*,*,#1026,.T.);
#1026 = EDGE_CURVE('',#1027,#1029,#1031,.T.);
#1027 = VERTEX_POINT('',#1028);
#1028 = CARTESIAN_POINT('',(195.,360.91113987864,-417.8616793536));
#1029 = VERTEX_POINT('',#1030);
#1030 = CARTESIAN_POINT('',(155.,360.91113987864,-417.8616793536));
#1031 = LINE('',#1032,#1033);
#1032 = CARTESIAN_POINT('',(200.,360.91113987864,-417.8616793536));
#1033 = VECTOR('',#1034,1.);
#1034 = DIRECTION('',(-1.,0.,0.));
#1035 = ORIENTED_EDGE('',*,*,#1036,.F.);
#1036 = EDGE_CURVE('',#336,#1029,#1037,.T.);
#1037 = CIRCLE('',#1038,5.);
#1038 = AXIS2_PLACEMENT_3D('',#1039,#1040,#1041);
#1039 = CARTESIAN_POINT('',(155.,359.20103916202,-413.1632162497));
#1040 = DIRECTION('',(-0.,-0.939692620786,-0.342020143326));
#1041 = DIRECTION('',(0.,-0.342020143326,0.939692620786));
#1042 = ORIENTED_EDGE('',*,*,#335,.T.);
#1043 = ORIENTED_EDGE('',*,*,#1010,.F.);
#1044 = ORIENTED_EDGE('',*,*,#505,.T.);
#1045 = ORIENTED_EDGE('',*,*,#1046,.T.);
#1046 = EDGE_CURVE('',#508,#1027,#1047,.T.);
#1047 = CIRCLE('',#1048,5.);
#1048 = AXIS2_PLACEMENT_3D('',#1049,#1050,#1051);
#1049 = CARTESIAN_POINT('',(195.,359.20103916202,-413.1632162497));
#1050 = DIRECTION('',(-0.,0.939692620786,0.342020143326));
#1051 = DIRECTION('',(0.,-0.342020143326,0.939692620786));
#1052 = PLANE('',#1053);
#1053 = AXIS2_PLACEMENT_3D('',#1054,#1055,#1056);
#1054 = CARTESIAN_POINT('',(175.,285.15403304325,-209.7207389602));
#1055 = DIRECTION('',(0.,0.939692620786,0.342020143326));
#1056 = DIRECTION('',(1.,0.,0.));
#1057 = ADVANCED_FACE('',(#1058),#1077,.T.);
#1058 = FACE_BOUND('',#1059,.F.);
#1059 = EDGE_LOOP('',(#1060,#1069,#1075,#1076));
#1060 = ORIENTED_EDGE('',*,*,#1061,.T.);
#1061 = EDGE_CURVE('',#344,#1062,#1064,.T.);
#1062 = VERTEX_POINT('',#1063);
#1063 = CARTESIAN_POINT('',(155.,356.21267677471,-419.5717800702));
#1064 = CIRCLE('',#1065,5.);
#1065 = AXIS2_PLACEMENT_3D('',#1066,#1067,#1068);
#1066 = CARTESIAN_POINT('',(155.,354.50257605809,-414.8733169663));
#1067 = DIRECTION('',(-0.,-0.939692620786,-0.342020143326));
#1068 = DIRECTION('',(0.,-0.342020143326,0.939692620786));
#1069 = ORIENTED_EDGE('',*,*,#1070,.T.);
#1070 = EDGE_CURVE('',#1062,#1029,#1071,.T.);
#1071 = LINE('',#1072,#1073);
#1072 = CARTESIAN_POINT('',(155.,356.21267677471,-419.5717800702));
#1073 = VECTOR('',#1074,1.);
#1074 = DIRECTION('',(0.,0.939692620786,0.342020143326));
#1075 = ORIENTED_EDGE('',*,*,#1036,.F.);
#1076 = ORIENTED_EDGE('',*,*,#343,.F.);
#1077 = CYLINDRICAL_SURFACE('',#1078,5.);
#1078 = AXIS2_PLACEMENT_3D('',#1079,#1080,#1081);
#1079 = CARTESIAN_POINT('',(155.,354.50257605809,-414.8733169663));
#1080 = DIRECTION('',(0.,0.939692620786,0.342020143326));
#1081 = DIRECTION('',(-1.,0.,0.));
#1082 = ADVANCED_FACE('',(#1083),#1104,.F.);
#1083 = FACE_BOUND('',#1084,.F.);
#1084 = EDGE_LOOP('',(#1085,#1093,#1094,#1095,#1096,#1097));
#1085 = ORIENTED_EDGE('',*,*,#1086,.T.);
#1086 = EDGE_CURVE('',#1087,#1062,#1089,.T.);
#1087 = VERTEX_POINT('',#1088);
#1088 = CARTESIAN_POINT('',(195.,356.21267677471,-419.5717800702));
#1089 = LINE('',#1090,#1091);
#1090 = CARTESIAN_POINT('',(200.,356.21267677471,-419.5717800702));
#1091 = VECTOR('',#1092,1.);
#1092 = DIRECTION('',(-1.,0.,0.));
#1093 = ORIENTED_EDGE('',*,*,#1061,.F.);
#1094 = ORIENTED_EDGE('',*,*,#351,.T.);
#1095 = ORIENTED_EDGE('',*,*,#422,.T.);
#1096 = ORIENTED_EDGE('',*,*,#574,.T.);
#1097 = ORIENTED_EDGE('',*,*,#1098,.T.);
#1098 = EDGE_CURVE('',#575,#1087,#1099,.T.);
#1099 = CIRCLE('',#1100,5.);
#1100 = AXIS2_PLACEMENT_3D('',#1101,#1102,#1103);
#1101 = CARTESIAN_POINT('',(195.,354.50257605809,-414.8733169663));
#1102 = DIRECTION('',(-0.,0.939692620786,0.342020143326));
#1103 = DIRECTION('',(0.,-0.342020143326,0.939692620786));
#1104 = PLANE('',#1105);
#1105 = AXIS2_PLACEMENT_3D('',#1106,#1107,#1108);
#1106 = CARTESIAN_POINT('',(175.,280.45556993932,-211.4308396768));
#1107 = DIRECTION('',(0.,0.939692620786,0.342020143326));
#1108 = DIRECTION('',(1.,0.,0.));
#1109 = ADVANCED_FACE('',(#1110),#1121,.T.);
#1110 = FACE_BOUND('',#1111,.F.);
#1111 = EDGE_LOOP('',(#1112,#1113,#1114,#1115));
#1112 = ORIENTED_EDGE('',*,*,#932,.T.);
#1113 = ORIENTED_EDGE('',*,*,#480,.T.);
#1114 = ORIENTED_EDGE('',*,*,#990,.F.);
#1115 = ORIENTED_EDGE('',*,*,#1116,.F.);
#1116 = EDGE_CURVE('',#925,#983,#1117,.T.);
#1117 = LINE('',#1118,#1119);
#1118 = CARTESIAN_POINT('',(-100.,373.313683941,471.55641110958));
#1119 = VECTOR('',#1120,1.);
#1120 = DIRECTION('',(0.,0.939692620786,-0.342020143326));
#1121 = CYLINDRICAL_SURFACE('',#1122,40.);
#1122 = AXIS2_PLACEMENT_3D('',#1123,#1124,#1125);
#1123 = CARTESIAN_POINT('',(-100.,359.63287820797,433.96870627814));
#1124 = DIRECTION('',(0.,0.939692620786,-0.342020143326));
#1125 = DIRECTION('',(0.,0.342020143326,0.939692620786));
#1126 = ADVANCED_FACE('',(#1127),#1138,.T.);
#1127 = FACE_BOUND('',#1128,.T.);
#1128 = EDGE_LOOP('',(#1129,#1130,#1136,#1137));
#1129 = ORIENTED_EDGE('',*,*,#1098,.T.);
#1130 = ORIENTED_EDGE('',*,*,#1131,.T.);
#1131 = EDGE_CURVE('',#1087,#1027,#1132,.T.);
#1132 = LINE('',#1133,#1134);
#1133 = CARTESIAN_POINT('',(195.,356.21267677471,-419.5717800702));
#1134 = VECTOR('',#1135,1.);
#1135 = DIRECTION('',(0.,0.939692620786,0.342020143326));
#1136 = ORIENTED_EDGE('',*,*,#1046,.F.);
#1137 = ORIENTED_EDGE('',*,*,#582,.F.);
#1138 = CYLINDRICAL_SURFACE('',#1139,5.);
#1139 = AXIS2_PLACEMENT_3D('',#1140,#1141,#1142);
#1140 = CARTESIAN_POINT('',(195.,354.50257605809,-414.8733169663));
#1141 = DIRECTION('',(0.,0.939692620786,0.342020143326));
#1142 = DIRECTION('',(1.,0.,0.));
#1143 = ADVANCED_FACE('',(#1144),#1155,.T.);
#1144 = FACE_BOUND('',#1145,.T.);
#1145 = EDGE_LOOP('',(#1146,#1147,#1153,#1154));
#1146 = ORIENTED_EDGE('',*,*,#713,.T.);
#1147 = ORIENTED_EDGE('',*,*,#1148,.T.);
#1148 = EDGE_CURVE('',#706,#533,#1149,.T.);
#1149 = LINE('',#1150,#1151);
#1150 = CARTESIAN_POINT('',(-200.,-209.3969262078,-1.579798566743));
#1151 = VECTOR('',#1152,1.);
#1152 = DIRECTION('',(1.,0.,0.));
#1153 = ORIENTED_EDGE('',*,*,#532,.F.);
#1154 = ORIENTED_EDGE('',*,*,#882,.F.);
#1155 = CYLINDRICAL_SURFACE('',#1156,10.);
#1156 = AXIS2_PLACEMENT_3D('',#1157,#1158,#1159);
#1157 = CARTESIAN_POINT('',(-200.,-200.,-5.));
#1158 = DIRECTION('',(1.,0.,0.));
#1159 = DIRECTION('',(0.,0.,1.));
#1160 = ADVANCED_FACE('',(#1161),#1258,.T.);
#1161 = FACE_BOUND('',#1162,.T.);
#1162 = EDGE_LOOP('',(#1163,#1173,#1182,#1190,#1199,#1207,#1216,#1224,
    #1233,#1241,#1248,#1249,#1250,#1251));
#1163 = ORIENTED_EDGE('',*,*,#1164,.T.);
#1164 = EDGE_CURVE('',#1165,#1167,#1169,.T.);
#1165 = VERTEX_POINT('',#1166);
#1166 = CARTESIAN_POINT('',(-195.,-360.9111398786,-417.8616793536));
#1167 = VERTEX_POINT('',#1168);
#1168 = CARTESIAN_POINT('',(-155.,-360.9111398786,-417.8616793536));
#1169 = LINE('',#1170,#1171);
#1170 = CARTESIAN_POINT('',(-200.,-360.9111398786,-417.8616793536));
#1171 = VECTOR('',#1172,1.);
#1172 = DIRECTION('',(1.,0.,0.));
#1173 = ORIENTED_EDGE('',*,*,#1174,.T.);
#1174 = EDGE_CURVE('',#1167,#1175,#1177,.T.);
#1175 = VERTEX_POINT('',#1176);
#1176 = CARTESIAN_POINT('',(-150.,-359.201039162,-413.1632162497));
#1177 = CIRCLE('',#1178,5.);
#1178 = AXIS2_PLACEMENT_3D('',#1179,#1180,#1181);
#1179 = CARTESIAN_POINT('',(-155.,-359.201039162,-413.1632162497));
#1180 = DIRECTION('',(0.,-0.939692620786,0.342020143326));
#1181 = DIRECTION('',(0.,-0.342020143326,-0.939692620786));
#1182 = ORIENTED_EDGE('',*,*,#1183,.F.);
#1183 = EDGE_CURVE('',#1184,#1175,#1186,.T.);
#1184 = VERTEX_POINT('',#1185);
#1185 = CARTESIAN_POINT('',(-150.,-237.7871660701,-79.58134152118));
#1186 = LINE('',#1187,#1188);
#1187 = CARTESIAN_POINT('',(-150.,-237.7871660701,-79.58134152118));
#1188 = VECTOR('',#1189,1.);
#1189 = DIRECTION('',(0.,-0.342020143326,-0.939692620786));
#1190 = ORIENTED_EDGE('',*,*,#1191,.F.);
#1191 = EDGE_CURVE('',#1192,#1184,#1194,.T.);
#1192 = VERTEX_POINT('',#1193);
#1193 = CARTESIAN_POINT('',(-110.,-224.106360337,-41.99363668974));
#1194 = CIRCLE('',#1195,40.);
#1195 = AXIS2_PLACEMENT_3D('',#1196,#1197,#1198);
#1196 = CARTESIAN_POINT('',(-110.,-237.7871660701,-79.58134152118));
#1197 = DIRECTION('',(0.,-0.939692620786,0.342020143326));
#1198 = DIRECTION('',(1.,0.,0.));
#1199 = ORIENTED_EDGE('',*,*,#1200,.F.);
#1200 = EDGE_CURVE('',#1201,#1192,#1203,.T.);
#1201 = VERTEX_POINT('',#1202);
#1202 = CARTESIAN_POINT('',(110.,-224.106360337,-41.99363668974));
#1203 = LINE('',#1204,#1205);
#1204 = CARTESIAN_POINT('',(110.,-224.106360337,-41.99363668974));
#1205 = VECTOR('',#1206,1.);
#1206 = DIRECTION('',(-1.,0.,0.));
#1207 = ORIENTED_EDGE('',*,*,#1208,.F.);
#1208 = EDGE_CURVE('',#1209,#1201,#1211,.T.);
#1209 = VERTEX_POINT('',#1210);
#1210 = CARTESIAN_POINT('',(150.,-237.7871660701,-79.58134152118));
#1211 = CIRCLE('',#1212,40.);
#1212 = AXIS2_PLACEMENT_3D('',#1213,#1214,#1215);
#1213 = CARTESIAN_POINT('',(110.,-237.7871660701,-79.58134152118));
#1214 = DIRECTION('',(0.,-0.939692620786,0.342020143326));
#1215 = DIRECTION('',(1.,0.,0.));
#1216 = ORIENTED_EDGE('',*,*,#1217,.F.);
#1217 = EDGE_CURVE('',#1218,#1209,#1220,.T.);
#1218 = VERTEX_POINT('',#1219);
#1219 = CARTESIAN_POINT('',(150.,-359.201039162,-413.1632162497));
#1220 = LINE('',#1221,#1222);
#1221 = CARTESIAN_POINT('',(150.,-360.9144176673,-417.8706850041));
#1222 = VECTOR('',#1223,1.);
#1223 = DIRECTION('',(0.,0.342020143326,0.939692620786));
#1224 = ORIENTED_EDGE('',*,*,#1225,.F.);
#1225 = EDGE_CURVE('',#1226,#1218,#1228,.T.);
#1226 = VERTEX_POINT('',#1227);
#1227 = CARTESIAN_POINT('',(155.,-360.9111398786,-417.8616793536));
#1228 = CIRCLE('',#1229,5.);
#1229 = AXIS2_PLACEMENT_3D('',#1230,#1231,#1232);
#1230 = CARTESIAN_POINT('',(155.,-359.201039162,-413.1632162497));
#1231 = DIRECTION('',(0.,0.939692620786,-0.342020143326));
#1232 = DIRECTION('',(0.,0.342020143326,0.939692620786));
#1233 = ORIENTED_EDGE('',*,*,#1234,.T.);
#1234 = EDGE_CURVE('',#1226,#1235,#1237,.T.);
#1235 = VERTEX_POINT('',#1236);
#1236 = CARTESIAN_POINT('',(195.,-360.9111398786,-417.8616793536));
#1237 = LINE('',#1238,#1239);
#1238 = CARTESIAN_POINT('',(-200.,-360.9111398786,-417.8616793536));
#1239 = VECTOR('',#1240,1.);
#1240 = DIRECTION('',(1.,0.,0.));
#1241 = ORIENTED_EDGE('',*,*,#1242,.F.);
#1242 = EDGE_CURVE('',#542,#1235,#1243,.T.);
#1243 = CIRCLE('',#1244,5.);
#1244 = AXIS2_PLACEMENT_3D('',#1245,#1246,#1247);
#1245 = CARTESIAN_POINT('',(195.,-359.201039162,-413.1632162497));
#1246 = DIRECTION('',(0.,0.939692620786,-0.342020143326));
#1247 = DIRECTION('',(0.,-0.342020143326,-0.939692620786));
#1248 = ORIENTED_EDGE('',*,*,#541,.T.);
#1249 = ORIENTED_EDGE('',*,*,#1148,.F.);
#1250 = ORIENTED_EDGE('',*,*,#705,.T.);
#1251 = ORIENTED_EDGE('',*,*,#1252,.T.);
#1252 = EDGE_CURVE('',#698,#1165,#1253,.T.);
#1253 = CIRCLE('',#1254,5.);
#1254 = AXIS2_PLACEMENT_3D('',#1255,#1256,#1257);
#1255 = CARTESIAN_POINT('',(-195.,-359.201039162,-413.1632162497));
#1256 = DIRECTION('',(0.,-0.939692620786,0.342020143326));
#1257 = DIRECTION('',(0.,-0.342020143326,-0.939692620786));
#1258 = PLANE('',#1259);
#1259 = AXIS2_PLACEMENT_3D('',#1260,#1261,#1262);
#1260 = CARTESIAN_POINT('',(0.,-285.1540330432,-209.7207389602));
#1261 = DIRECTION('',(0.,-0.939692620786,0.342020143326));
#1262 = DIRECTION('',(1.,0.,0.));
#1263 = ADVANCED_FACE('',(#1264),#1283,.T.);
#1264 = FACE_BOUND('',#1265,.F.);
#1265 = EDGE_LOOP('',(#1266,#1275,#1281,#1282));
#1266 = ORIENTED_EDGE('',*,*,#1267,.T.);
#1267 = EDGE_CURVE('',#550,#1268,#1270,.T.);
#1268 = VERTEX_POINT('',#1269);
#1269 = CARTESIAN_POINT('',(195.,-356.2126767747,-419.5717800702));
#1270 = CIRCLE('',#1271,5.);
#1271 = AXIS2_PLACEMENT_3D('',#1272,#1273,#1274);
#1272 = CARTESIAN_POINT('',(195.,-354.502576058,-414.8733169663));
#1273 = DIRECTION('',(0.,0.939692620786,-0.342020143326));
#1274 = DIRECTION('',(0.,-0.342020143326,-0.939692620786));
#1275 = ORIENTED_EDGE('',*,*,#1276,.T.);
#1276 = EDGE_CURVE('',#1268,#1235,#1277,.T.);
#1277 = LINE('',#1278,#1279);
#1278 = CARTESIAN_POINT('',(195.,-356.2126767747,-419.5717800702));
#1279 = VECTOR('',#1280,1.);
#1280 = DIRECTION('',(0.,-0.939692620786,0.342020143326));
#1281 = ORIENTED_EDGE('',*,*,#1242,.F.);
#1282 = ORIENTED_EDGE('',*,*,#549,.F.);
#1283 = CYLINDRICAL_SURFACE('',#1284,5.);
#1284 = AXIS2_PLACEMENT_3D('',#1285,#1286,#1287);
#1285 = CARTESIAN_POINT('',(195.,-354.502576058,-414.8733169663));
#1286 = DIRECTION('',(0.,-0.939692620786,0.342020143326));
#1287 = DIRECTION('',(1.,0.,0.));
#1288 = ADVANCED_FACE('',(#1289),#1378,.F.);
#1289 = FACE_BOUND('',#1290,.F.);
#1290 = EDGE_LOOP('',(#1291,#1301,#1310,#1318,#1327,#1335,#1344,#1352,
    #1361,#1367,#1368,#1369,#1370,#1371));
#1291 = ORIENTED_EDGE('',*,*,#1292,.T.);
#1292 = EDGE_CURVE('',#1293,#1295,#1297,.T.);
#1293 = VERTEX_POINT('',#1294);
#1294 = CARTESIAN_POINT('',(-195.,-356.2126767747,-419.5717800702));
#1295 = VERTEX_POINT('',#1296);
#1296 = CARTESIAN_POINT('',(-155.,-356.2126767747,-419.5717800702));
#1297 = LINE('',#1298,#1299);
#1298 = CARTESIAN_POINT('',(-200.,-356.2126767747,-419.5717800702));
#1299 = VECTOR('',#1300,1.);
#1300 = DIRECTION('',(1.,0.,0.));
#1301 = ORIENTED_EDGE('',*,*,#1302,.T.);
#1302 = EDGE_CURVE('',#1295,#1303,#1305,.T.);
#1303 = VERTEX_POINT('',#1304);
#1304 = CARTESIAN_POINT('',(-150.,-354.502576058,-414.8733169663));
#1305 = CIRCLE('',#1306,5.);
#1306 = AXIS2_PLACEMENT_3D('',#1307,#1308,#1309);
#1307 = CARTESIAN_POINT('',(-155.,-354.502576058,-414.8733169663));
#1308 = DIRECTION('',(0.,-0.939692620786,0.342020143326));
#1309 = DIRECTION('',(0.,-0.342020143326,-0.939692620786));
#1310 = ORIENTED_EDGE('',*,*,#1311,.F.);
#1311 = EDGE_CURVE('',#1312,#1303,#1314,.T.);
#1312 = VERTEX_POINT('',#1313);
#1313 = CARTESIAN_POINT('',(-150.,-233.0887029661,-81.2914422378));
#1314 = LINE('',#1315,#1316);
#1315 = CARTESIAN_POINT('',(-150.,-233.0887029661,-81.2914422378));
#1316 = VECTOR('',#1317,1.);
#1317 = DIRECTION('',(0.,-0.342020143326,-0.939692620786));
#1318 = ORIENTED_EDGE('',*,*,#1319,.F.);
#1319 = EDGE_CURVE('',#1320,#1312,#1322,.T.);
#1320 = VERTEX_POINT('',#1321);
#1321 = CARTESIAN_POINT('',(-110.,-219.4078972331,-43.70373740637));
#1322 = CIRCLE('',#1323,40.);
#1323 = AXIS2_PLACEMENT_3D('',#1324,#1325,#1326);
#1324 = CARTESIAN_POINT('',(-110.,-233.0887029661,-81.2914422378));
#1325 = DIRECTION('',(0.,-0.939692620786,0.342020143326));
#1326 = DIRECTION('',(1.,0.,0.));
#1327 = ORIENTED_EDGE('',*,*,#1328,.F.);
#1328 = EDGE_CURVE('',#1329,#1320,#1331,.T.);
#1329 = VERTEX_POINT('',#1330);
#1330 = CARTESIAN_POINT('',(110.,-219.4078972331,-43.70373740637));
#1331 = LINE('',#1332,#1333);
#1332 = CARTESIAN_POINT('',(110.,-219.4078972331,-43.70373740637));
#1333 = VECTOR('',#1334,1.);
#1334 = DIRECTION('',(-1.,0.,0.));
#1335 = ORIENTED_EDGE('',*,*,#1336,.F.);
#1336 = EDGE_CURVE('',#1337,#1329,#1339,.T.);
#1337 = VERTEX_POINT('',#1338);
#1338 = CARTESIAN_POINT('',(150.,-233.0887029661,-81.2914422378));
#1339 = CIRCLE('',#1340,40.);
#1340 = AXIS2_PLACEMENT_3D('',#1341,#1342,#1343);
#1341 = CARTESIAN_POINT('',(110.,-233.0887029661,-81.2914422378));
#1342 = DIRECTION('',(0.,-0.939692620786,0.342020143326));
#1343 = DIRECTION('',(1.,0.,0.));
#1344 = ORIENTED_EDGE('',*,*,#1345,.F.);
#1345 = EDGE_CURVE('',#1346,#1337,#1348,.T.);
#1346 = VERTEX_POINT('',#1347);
#1347 = CARTESIAN_POINT('',(150.,-354.502576058,-414.8733169663));
#1348 = LINE('',#1349,#1350);
#1349 = CARTESIAN_POINT('',(150.,-356.2159545634,-419.5807857207));
#1350 = VECTOR('',#1351,1.);
#1351 = DIRECTION('',(0.,0.342020143326,0.939692620786));
#1352 = ORIENTED_EDGE('',*,*,#1353,.F.);
#1353 = EDGE_CURVE('',#1354,#1346,#1356,.T.);
#1354 = VERTEX_POINT('',#1355);
#1355 = CARTESIAN_POINT('',(155.,-356.2126767747,-419.5717800702));
#1356 = CIRCLE('',#1357,5.);
#1357 = AXIS2_PLACEMENT_3D('',#1358,#1359,#1360);
#1358 = CARTESIAN_POINT('',(155.,-354.502576058,-414.8733169663));
#1359 = DIRECTION('',(0.,0.939692620786,-0.342020143326));
#1360 = DIRECTION('',(0.,0.342020143326,0.939692620786));
#1361 = ORIENTED_EDGE('',*,*,#1362,.T.);
#1362 = EDGE_CURVE('',#1354,#1268,#1363,.T.);
#1363 = LINE('',#1364,#1365);
#1364 = CARTESIAN_POINT('',(-200.,-356.2126767747,-419.5717800702));
#1365 = VECTOR('',#1366,1.);
#1366 = DIRECTION('',(1.,0.,0.));
#1367 = ORIENTED_EDGE('',*,*,#1267,.F.);
#1368 = ORIENTED_EDGE('',*,*,#557,.T.);
#1369 = ORIENTED_EDGE('',*,*,#622,.T.);
#1370 = ORIENTED_EDGE('',*,*,#689,.T.);
#1371 = ORIENTED_EDGE('',*,*,#1372,.T.);
#1372 = EDGE_CURVE('',#690,#1293,#1373,.T.);
#1373 = CIRCLE('',#1374,5.);
#1374 = AXIS2_PLACEMENT_3D('',#1375,#1376,#1377);
#1375 = CARTESIAN_POINT('',(-195.,-354.502576058,-414.8733169663));
#1376 = DIRECTION('',(0.,-0.939692620786,0.342020143326));
#1377 = DIRECTION('',(0.,-0.342020143326,-0.939692620786));
#1378 = PLANE('',#1379);
#1379 = AXIS2_PLACEMENT_3D('',#1380,#1381,#1382);
#1380 = CARTESIAN_POINT('',(0.,-280.4555699393,-211.4308396768));
#1381 = DIRECTION('',(0.,-0.939692620786,0.342020143326));
#1382 = DIRECTION('',(1.,0.,0.));
#1383 = ADVANCED_FACE('',(#1384),#1413,.F.);
#1384 = FACE_BOUND('',#1385,.F.);
#1385 = EDGE_LOOP('',(#1386,#1396,#1403,#1404,#1405,#1406));
#1386 = ORIENTED_EDGE('',*,*,#1387,.T.);
#1387 = EDGE_CURVE('',#1388,#1390,#1392,.T.);
#1388 = VERTEX_POINT('',#1389);
#1389 = CARTESIAN_POINT('',(-155.,356.21267677471,-419.5717800702));
#1390 = VERTEX_POINT('',#1391);
#1391 = CARTESIAN_POINT('',(-195.,356.21267677471,-419.5717800702));
#1392 = LINE('',#1393,#1394);
#1393 = CARTESIAN_POINT('',(-150.,356.21267677471,-419.5717800702));
#1394 = VECTOR('',#1395,1.);
#1395 = DIRECTION('',(-1.,0.,0.));
#1396 = ORIENTED_EDGE('',*,*,#1397,.F.);
#1397 = EDGE_CURVE('',#671,#1390,#1398,.T.);
#1398 = CIRCLE('',#1399,5.);
#1399 = AXIS2_PLACEMENT_3D('',#1400,#1401,#1402);
#1400 = CARTESIAN_POINT('',(-195.,354.50257605809,-414.8733169663));
#1401 = DIRECTION('',(-0.,-0.939692620786,-0.342020143326));
#1402 = DIRECTION('',(0.,-0.342020143326,0.939692620786));
#1403 = ORIENTED_EDGE('',*,*,#670,.T.);
#1404 = ORIENTED_EDGE('',*,*,#787,.T.);
#1405 = ORIENTED_EDGE('',*,*,#813,.T.);
#1406 = ORIENTED_EDGE('',*,*,#1407,.T.);
#1407 = EDGE_CURVE('',#814,#1388,#1408,.T.);
#1408 = CIRCLE('',#1409,5.);
#1409 = AXIS2_PLACEMENT_3D('',#1410,#1411,#1412);
#1410 = CARTESIAN_POINT('',(-155.,354.50257605809,-414.8733169663));
#1411 = DIRECTION('',(-0.,0.939692620786,0.342020143326));
#1412 = DIRECTION('',(0.,-0.342020143326,0.939692620786));
#1413 = PLANE('',#1414);
#1414 = AXIS2_PLACEMENT_3D('',#1415,#1416,#1417);
#1415 = CARTESIAN_POINT('',(-175.,280.45556993932,-211.4308396768));
#1416 = DIRECTION('',(0.,0.939692620786,0.342020143326));
#1417 = DIRECTION('',(1.,0.,0.));
#1418 = ADVANCED_FACE('',(#1419),#1438,.T.);
#1419 = FACE_BOUND('',#1420,.F.);
#1420 = EDGE_LOOP('',(#1421,#1422,#1430,#1437));
#1421 = ORIENTED_EDGE('',*,*,#1397,.T.);
#1422 = ORIENTED_EDGE('',*,*,#1423,.T.);
#1423 = EDGE_CURVE('',#1390,#1424,#1426,.T.);
#1424 = VERTEX_POINT('',#1425);
#1425 = CARTESIAN_POINT('',(-195.,360.91113987864,-417.8616793536));
#1426 = LINE('',#1427,#1428);
#1427 = CARTESIAN_POINT('',(-195.,356.21267677471,-419.5717800702));
#1428 = VECTOR('',#1429,1.);
#1429 = DIRECTION('',(0.,0.939692620786,0.342020143326));
#1430 = ORIENTED_EDGE('',*,*,#1431,.F.);
#1431 = EDGE_CURVE('',#740,#1424,#1432,.T.);
#1432 = CIRCLE('',#1433,5.);
#1433 = AXIS2_PLACEMENT_3D('',#1434,#1435,#1436);
#1434 = CARTESIAN_POINT('',(-195.,359.20103916202,-413.1632162497));
#1435 = DIRECTION('',(-0.,-0.939692620786,-0.342020143326));
#1436 = DIRECTION('',(0.,-0.342020143326,0.939692620786));
#1437 = ORIENTED_EDGE('',*,*,#747,.F.);
#1438 = CYLINDRICAL_SURFACE('',#1439,5.);
#1439 = AXIS2_PLACEMENT_3D('',#1440,#1441,#1442);
#1440 = CARTESIAN_POINT('',(-195.,354.50257605809,-414.8733169663));
#1441 = DIRECTION('',(0.,0.939692620786,0.342020143326));
#1442 = DIRECTION('',(-1.,0.,0.));
#1443 = ADVANCED_FACE('',(#1444),#1470,.T.);
#1444 = FACE_BOUND('',#1445,.T.);
#1445 = EDGE_LOOP('',(#1446,#1454,#1455,#1456,#1462,#1463));
#1446 = ORIENTED_EDGE('',*,*,#1447,.T.);
#1447 = EDGE_CURVE('',#1448,#1424,#1450,.T.);
#1448 = VERTEX_POINT('',#1449);
#1449 = CARTESIAN_POINT('',(-155.,360.91113987864,-417.8616793536));
#1450 = LINE('',#1451,#1452);
#1451 = CARTESIAN_POINT('',(-150.,360.91113987864,-417.8616793536));
#1452 = VECTOR('',#1453,1.);
#1453 = DIRECTION('',(-1.,0.,0.));
#1454 = ORIENTED_EDGE('',*,*,#1431,.F.);
#1455 = ORIENTED_EDGE('',*,*,#739,.T.);
#1456 = ORIENTED_EDGE('',*,*,#1457,.F.);
#1457 = EDGE_CURVE('',#830,#731,#1458,.T.);
#1458 = LINE('',#1459,#1460);
#1459 = CARTESIAN_POINT('',(-150.,209.39692620785,-1.579798566743));
#1460 = VECTOR('',#1461,1.);
#1461 = DIRECTION('',(-1.,0.,0.));
#1462 = ORIENTED_EDGE('',*,*,#829,.T.);
#1463 = ORIENTED_EDGE('',*,*,#1464,.T.);
#1464 = EDGE_CURVE('',#822,#1448,#1465,.T.);
#1465 = CIRCLE('',#1466,5.);
#1466 = AXIS2_PLACEMENT_3D('',#1467,#1468,#1469);
#1467 = CARTESIAN_POINT('',(-155.,359.20103916202,-413.1632162497));
#1468 = DIRECTION('',(-0.,0.939692620786,0.342020143326));
#1469 = DIRECTION('',(0.,-0.342020143326,0.939692620786));
#1470 = PLANE('',#1471);
#1471 = AXIS2_PLACEMENT_3D('',#1472,#1473,#1474);
#1472 = CARTESIAN_POINT('',(-175.,285.15403304325,-209.7207389602));
#1473 = DIRECTION('',(0.,0.939692620786,0.342020143326));
#1474 = DIRECTION('',(1.,0.,0.));
#1475 = ADVANCED_FACE('',(#1476),#1482,.T.);
#1476 = FACE_BOUND('',#1477,.T.);
#1477 = EDGE_LOOP('',(#1478,#1479,#1480,#1481));
#1478 = ORIENTED_EDGE('',*,*,#837,.T.);
#1479 = ORIENTED_EDGE('',*,*,#1457,.T.);
#1480 = ORIENTED_EDGE('',*,*,#730,.F.);
#1481 = ORIENTED_EDGE('',*,*,#875,.T.);
#1482 = CYLINDRICAL_SURFACE('',#1483,10.);
#1483 = AXIS2_PLACEMENT_3D('',#1484,#1485,#1486);
#1484 = CARTESIAN_POINT('',(-150.,200.,-5.));
#1485 = DIRECTION('',(-1.,0.,0.));
#1486 = DIRECTION('',(0.,0.,1.));
#1487 = ADVANCED_FACE('',(#1488),#1499,.T.);
#1488 = FACE_BOUND('',#1489,.T.);
#1489 = EDGE_LOOP('',(#1490,#1491,#1497,#1498));
#1490 = ORIENTED_EDGE('',*,*,#1372,.T.);
#1491 = ORIENTED_EDGE('',*,*,#1492,.T.);
#1492 = EDGE_CURVE('',#1293,#1165,#1493,.T.);
#1493 = LINE('',#1494,#1495);
#1494 = CARTESIAN_POINT('',(-195.,-356.2126767747,-419.5717800702));
#1495 = VECTOR('',#1496,1.);
#1496 = DIRECTION('',(0.,-0.939692620786,0.342020143326));
#1497 = ORIENTED_EDGE('',*,*,#1252,.F.);
#1498 = ORIENTED_EDGE('',*,*,#697,.F.);
#1499 = CYLINDRICAL_SURFACE('',#1500,5.);
#1500 = AXIS2_PLACEMENT_3D('',#1501,#1502,#1503);
#1501 = CARTESIAN_POINT('',(-195.,-354.502576058,-414.8733169663));
#1502 = DIRECTION('',(0.,-0.939692620786,0.342020143326));
#1503 = DIRECTION('',(-1.,0.,0.));
#1504 = ADVANCED_FACE('',(#1505),#1516,.T.);
#1505 = FACE_BOUND('',#1506,.T.);
#1506 = EDGE_LOOP('',(#1507,#1508,#1514,#1515));
#1507 = ORIENTED_EDGE('',*,*,#1407,.T.);
#1508 = ORIENTED_EDGE('',*,*,#1509,.T.);
#1509 = EDGE_CURVE('',#1388,#1448,#1510,.T.);
#1510 = LINE('',#1511,#1512);
#1511 = CARTESIAN_POINT('',(-155.,356.21267677471,-419.5717800702));
#1512 = VECTOR('',#1513,1.);
#1513 = DIRECTION('',(0.,0.939692620786,0.342020143326));
#1514 = ORIENTED_EDGE('',*,*,#1464,.F.);
#1515 = ORIENTED_EDGE('',*,*,#821,.F.);
#1516 = CYLINDRICAL_SURFACE('',#1517,5.);
#1517 = AXIS2_PLACEMENT_3D('',#1518,#1519,#1520);
#1518 = CARTESIAN_POINT('',(-155.,354.50257605809,-414.8733169663));
#1519 = DIRECTION('',(0.,0.939692620786,0.342020143326));
#1520 = DIRECTION('',(1.,0.,0.));
#1521 = ADVANCED_FACE('',(#1522),#1528,.T.);
#1522 = FACE_BOUND('',#1523,.T.);
#1523 = EDGE_LOOP('',(#1524,#1525,#1526,#1527));
#1524 = ORIENTED_EDGE('',*,*,#922,.F.);
#1525 = ORIENTED_EDGE('',*,*,#966,.F.);
#1526 = ORIENTED_EDGE('',*,*,#982,.T.);
#1527 = ORIENTED_EDGE('',*,*,#1116,.F.);
#1528 = PLANE('',#1529);
#1529 = AXIS2_PLACEMENT_3D('',#1530,#1531,#1532);
#1530 = CARTESIAN_POINT('',(200.,373.313683941,471.55641110958));
#1531 = DIRECTION('',(0.,0.342020143326,0.939692620786));
#1532 = DIRECTION('',(-1.,0.,0.));
#1533 = ADVANCED_FACE('',(#1534),#1540,.F.);
#1534 = FACE_BOUND('',#1535,.F.);
#1535 = EDGE_LOOP('',(#1536,#1537,#1538,#1539));
#1536 = ORIENTED_EDGE('',*,*,#1086,.F.);
#1537 = ORIENTED_EDGE('',*,*,#1131,.T.);
#1538 = ORIENTED_EDGE('',*,*,#1026,.T.);
#1539 = ORIENTED_EDGE('',*,*,#1070,.F.);
#1540 = PLANE('',#1541);
#1541 = AXIS2_PLACEMENT_3D('',#1542,#1543,#1544);
#1542 = CARTESIAN_POINT('',(200.,356.21267677471,-419.5717800702));
#1543 = DIRECTION('',(0.,-0.342020143326,0.939692620786));
#1544 = DIRECTION('',(-1.,0.,0.));
#1545 = ADVANCED_FACE('',(#1546),#1557,.F.);
#1546 = FACE_BOUND('',#1547,.F.);
#1547 = EDGE_LOOP('',(#1548,#1549,#1550,#1551));
#1548 = ORIENTED_EDGE('',*,*,#1292,.F.);
#1549 = ORIENTED_EDGE('',*,*,#1492,.T.);
#1550 = ORIENTED_EDGE('',*,*,#1164,.T.);
#1551 = ORIENTED_EDGE('',*,*,#1552,.F.);
#1552 = EDGE_CURVE('',#1295,#1167,#1553,.T.);
#1553 = LINE('',#1554,#1555);
#1554 = CARTESIAN_POINT('',(-155.,-356.2126767747,-419.5717800702));
#1555 = VECTOR('',#1556,1.);
#1556 = DIRECTION('',(0.,-0.939692620786,0.342020143326));
#1557 = PLANE('',#1558);
#1558 = AXIS2_PLACEMENT_3D('',#1559,#1560,#1561);
#1559 = CARTESIAN_POINT('',(-200.,-356.2126767747,-419.5717800702));
#1560 = DIRECTION('',(0.,0.342020143326,0.939692620786));
#1561 = DIRECTION('',(1.,0.,0.));
#1562 = ADVANCED_FACE('',(#1563),#1574,.T.);
#1563 = FACE_BOUND('',#1564,.T.);
#1564 = EDGE_LOOP('',(#1565,#1566,#1572,#1573));
#1565 = ORIENTED_EDGE('',*,*,#1302,.T.);
#1566 = ORIENTED_EDGE('',*,*,#1567,.T.);
#1567 = EDGE_CURVE('',#1303,#1175,#1568,.T.);
#1568 = LINE('',#1569,#1570);
#1569 = CARTESIAN_POINT('',(-150.,-354.502576058,-414.8733169663));
#1570 = VECTOR('',#1571,1.);
#1571 = DIRECTION('',(0.,-0.939692620786,0.342020143326));
#1572 = ORIENTED_EDGE('',*,*,#1174,.F.);
#1573 = ORIENTED_EDGE('',*,*,#1552,.F.);
#1574 = CYLINDRICAL_SURFACE('',#1575,5.);
#1575 = AXIS2_PLACEMENT_3D('',#1576,#1577,#1578);
#1576 = CARTESIAN_POINT('',(-155.,-354.502576058,-414.8733169663));
#1577 = DIRECTION('',(0.,-0.939692620786,0.342020143326));
#1578 = DIRECTION('',(0.,-0.342020143326,-0.939692620786));
#1579 = ADVANCED_FACE('',(#1580),#1591,.F.);
#1580 = FACE_BOUND('',#1581,.F.);
#1581 = EDGE_LOOP('',(#1582,#1583,#1589,#1590));
#1582 = ORIENTED_EDGE('',*,*,#1183,.F.);
#1583 = ORIENTED_EDGE('',*,*,#1584,.T.);
#1584 = EDGE_CURVE('',#1184,#1312,#1585,.T.);
#1585 = LINE('',#1586,#1587);
#1586 = CARTESIAN_POINT('',(-150.,-237.7871660701,-79.58134152118));
#1587 = VECTOR('',#1588,1.);
#1588 = DIRECTION('',(0.,0.939692620786,-0.342020143326));
#1589 = ORIENTED_EDGE('',*,*,#1311,.T.);
#1590 = ORIENTED_EDGE('',*,*,#1567,.T.);
#1591 = PLANE('',#1592);
#1592 = AXIS2_PLACEMENT_3D('',#1593,#1594,#1595);
#1593 = CARTESIAN_POINT('',(-150.,-237.7871660701,-79.58134152118));
#1594 = DIRECTION('',(-1.,0.,0.));
#1595 = DIRECTION('',(0.,-0.342020143326,-0.939692620786));
#1596 = ADVANCED_FACE('',(#1597),#1608,.F.);
#1597 = FACE_BOUND('',#1598,.F.);
#1598 = EDGE_LOOP('',(#1599,#1605,#1606,#1607));
#1599 = ORIENTED_EDGE('',*,*,#1600,.T.);
#1600 = EDGE_CURVE('',#1192,#1320,#1601,.T.);
#1601 = LINE('',#1602,#1603);
#1602 = CARTESIAN_POINT('',(-110.,-224.106360337,-41.99363668974));
#1603 = VECTOR('',#1604,1.);
#1604 = DIRECTION('',(0.,0.939692620786,-0.342020143326));
#1605 = ORIENTED_EDGE('',*,*,#1319,.T.);
#1606 = ORIENTED_EDGE('',*,*,#1584,.F.);
#1607 = ORIENTED_EDGE('',*,*,#1191,.F.);
#1608 = CYLINDRICAL_SURFACE('',#1609,40.);
#1609 = AXIS2_PLACEMENT_3D('',#1610,#1611,#1612);
#1610 = CARTESIAN_POINT('',(-110.,-237.7871660701,-79.58134152118));
#1611 = DIRECTION('',(0.,-0.939692620786,0.342020143326));
#1612 = DIRECTION('',(1.,0.,0.));
#1613 = ADVANCED_FACE('',(#1614),#1625,.F.);
#1614 = FACE_BOUND('',#1615,.F.);
#1615 = EDGE_LOOP('',(#1616,#1622,#1623,#1624));
#1616 = ORIENTED_EDGE('',*,*,#1617,.T.);
#1617 = EDGE_CURVE('',#1201,#1329,#1618,.T.);
#1618 = LINE('',#1619,#1620);
#1619 = CARTESIAN_POINT('',(110.,-224.106360337,-41.99363668974));
#1620 = VECTOR('',#1621,1.);
#1621 = DIRECTION('',(0.,0.939692620786,-0.342020143326));
#1622 = ORIENTED_EDGE('',*,*,#1328,.T.);
#1623 = ORIENTED_EDGE('',*,*,#1600,.F.);
#1624 = ORIENTED_EDGE('',*,*,#1200,.F.);
#1625 = PLANE('',#1626);
#1626 = AXIS2_PLACEMENT_3D('',#1627,#1628,#1629);
#1627 = CARTESIAN_POINT('',(110.,-224.106360337,-41.99363668974));
#1628 = DIRECTION('',(0.,0.342020143326,0.939692620786));
#1629 = DIRECTION('',(-1.,0.,0.));
#1630 = ADVANCED_FACE('',(#1631),#1642,.F.);
#1631 = FACE_BOUND('',#1632,.F.);
#1632 = EDGE_LOOP('',(#1633,#1639,#1640,#1641));
#1633 = ORIENTED_EDGE('',*,*,#1634,.T.);
#1634 = EDGE_CURVE('',#1209,#1337,#1635,.T.);
#1635 = LINE('',#1636,#1637);
#1636 = CARTESIAN_POINT('',(150.,-237.7871660701,-79.58134152118));
#1637 = VECTOR('',#1638,1.);
#1638 = DIRECTION('',(0.,0.939692620786,-0.342020143326));
#1639 = ORIENTED_EDGE('',*,*,#1336,.T.);
#1640 = ORIENTED_EDGE('',*,*,#1617,.F.);
#1641 = ORIENTED_EDGE('',*,*,#1208,.F.);
#1642 = CYLINDRICAL_SURFACE('',#1643,40.);
#1643 = AXIS2_PLACEMENT_3D('',#1644,#1645,#1646);
#1644 = CARTESIAN_POINT('',(110.,-237.7871660701,-79.58134152118));
#1645 = DIRECTION('',(0.,-0.939692620786,0.342020143326));
#1646 = DIRECTION('',(1.,0.,0.));
#1647 = ADVANCED_FACE('',(#1648),#1659,.F.);
#1648 = FACE_BOUND('',#1649,.F.);
#1649 = EDGE_LOOP('',(#1650,#1651,#1657,#1658));
#1650 = ORIENTED_EDGE('',*,*,#1217,.F.);
#1651 = ORIENTED_EDGE('',*,*,#1652,.T.);
#1652 = EDGE_CURVE('',#1218,#1346,#1653,.T.);
#1653 = LINE('',#1654,#1655);
#1654 = CARTESIAN_POINT('',(150.,-359.201039162,-413.1632162497));
#1655 = VECTOR('',#1656,1.);
#1656 = DIRECTION('',(0.,0.939692620786,-0.342020143326));
#1657 = ORIENTED_EDGE('',*,*,#1345,.T.);
#1658 = ORIENTED_EDGE('',*,*,#1634,.F.);
#1659 = PLANE('',#1660);
#1660 = AXIS2_PLACEMENT_3D('',#1661,#1662,#1663);
#1661 = CARTESIAN_POINT('',(150.,-360.9144176673,-417.8706850041));
#1662 = DIRECTION('',(1.,0.,0.));
#1663 = DIRECTION('',(0.,0.342020143326,0.939692620786));
#1664 = ADVANCED_FACE('',(#1665),#1676,.F.);
#1665 = FACE_BOUND('',#1666,.F.);
#1666 = EDGE_LOOP('',(#1667,#1668,#1674,#1675));
#1667 = ORIENTED_EDGE('',*,*,#1362,.F.);
#1668 = ORIENTED_EDGE('',*,*,#1669,.F.);
#1669 = EDGE_CURVE('',#1226,#1354,#1670,.T.);
#1670 = LINE('',#1671,#1672);
#1671 = CARTESIAN_POINT('',(155.,-360.9111398786,-417.8616793536));
#1672 = VECTOR('',#1673,1.);
#1673 = DIRECTION('',(0.,0.939692620786,-0.342020143326));
#1674 = ORIENTED_EDGE('',*,*,#1234,.T.);
#1675 = ORIENTED_EDGE('',*,*,#1276,.F.);
#1676 = PLANE('',#1677);
#1677 = AXIS2_PLACEMENT_3D('',#1678,#1679,#1680);
#1678 = CARTESIAN_POINT('',(-200.,-356.2126767747,-419.5717800702));
#1679 = DIRECTION('',(0.,0.342020143326,0.939692620786));
#1680 = DIRECTION('',(1.,0.,0.));
#1681 = ADVANCED_FACE('',(#1682),#1688,.T.);
#1682 = FACE_BOUND('',#1683,.T.);
#1683 = EDGE_LOOP('',(#1684,#1685,#1686,#1687));
#1684 = ORIENTED_EDGE('',*,*,#1225,.T.);
#1685 = ORIENTED_EDGE('',*,*,#1652,.T.);
#1686 = ORIENTED_EDGE('',*,*,#1353,.F.);
#1687 = ORIENTED_EDGE('',*,*,#1669,.F.);
#1688 = CYLINDRICAL_SURFACE('',#1689,5.);
#1689 = AXIS2_PLACEMENT_3D('',#1690,#1691,#1692);
#1690 = CARTESIAN_POINT('',(155.,-359.201039162,-413.1632162497));
#1691 = DIRECTION('',(0.,0.939692620786,-0.342020143326));
#1692 = DIRECTION('',(0.,-0.342020143326,-0.939692620786));
#1693 = ADVANCED_FACE('',(#1694),#1700,.F.);
#1694 = FACE_BOUND('',#1695,.F.);
#1695 = EDGE_LOOP('',(#1696,#1697,#1698,#1699));
#1696 = ORIENTED_EDGE('',*,*,#1387,.F.);
#1697 = ORIENTED_EDGE('',*,*,#1509,.T.);
#1698 = ORIENTED_EDGE('',*,*,#1447,.T.);
#1699 = ORIENTED_EDGE('',*,*,#1423,.F.);
#1700 = PLANE('',#1701);
#1701 = AXIS2_PLACEMENT_3D('',#1702,#1703,#1704);
#1702 = CARTESIAN_POINT('',(-150.,356.21267677471,-419.5717800702));
#1703 = DIRECTION('',(0.,-0.342020143326,0.939692620786));
#1704 = DIRECTION('',(-1.,0.,0.));
#1705 = ( GEOMETRIC_REPRESENTATION_CONTEXT(3) 
GLOBAL_UNCERTAINTY_ASSIGNED_CONTEXT((#1709)) 
GLOBAL_UNIT_ASSIGNED_CONTEXT((#1706,#1707,#1708)) REPRESENTATION_CONTEXT
('Context #1','3D Context with UNIT and UNCERTAINTY') );
#1706 = ( LENGTH_UNIT() NAMED_UNIT(*) SI_UNIT(.MILLI.,.METRE.) );
#1707 = ( NAMED_UNIT(*) PLANE_ANGLE_UNIT() SI_UNIT($,.RADIAN.) );
#1708 = ( NAMED_UNIT(*) SI_UNIT($,.STERADIAN.) SOLID_ANGLE_UNIT() );
#1709 = UNCERTAINTY_MEASURE_WITH_UNIT(LENGTH_MEASURE(1.E-05),#1706,
  'distance_accuracy_value','confusion accuracy');
#1710 = PRODUCT_RELATED_PRODUCT_CATEGORY('part',$,(#7));
#1711 = MECHANICAL_DESIGN_GEOMETRIC_PRESENTATION_REPRESENTATION('',(
    #1712),#1705);
#1712 = STYLED_ITEM('color',(#1713),#15);
#1713 = PRESENTATION_STYLE_ASSIGNMENT((#1714,#1720));
#1714 = SURFACE_STYLE_USAGE(.BOTH.,#1715);
#1715 = SURFACE_SIDE_STYLE('',(#1716));
#1716 = SURFACE_STYLE_FILL_AREA(#1717);
#1717 = FILL_AREA_STYLE('',(#1718));
#1718 = FILL_AREA_STYLE_COLOUR('',#1719);
#1719 = COLOUR_RGB('',0.447058818107,0.474509808674,0.501960817233);
#1720 = CURVE_STYLE('',#1721,POSITIVE_LENGTH_MEASURE(0.1),#1722);
#1721 = DRAUGHTING_PRE_DEFINED_CURVE_FONT('continuous');
#1722 = DRAUGHTING_PRE_DEFINED_COLOUR('black');
ENDSEC;
END-ISO-10303-21;
