#VRML V2.0 utf8


Group {
  children 
    DEF o0 Group {
      children 
        DEF o1 Group {
          children 
            DEF o2 Transform {
              translation 0 0 0
              rotation 0 0 1  0
              scale 1 1 1
              scaleOrientation 0 0 1  0
              center 0 0 0
              children [ 
                DEF o3 Group {
                  children [ 
                    DEF o4 Group {
                      children 
                        DEF o5 Shape {
                          appearance 
                          Appearance {
                            material 
                            Material {
                              emissiveColor 0.098039217 0.098039217 0.098039217

                            }

                          }
                          geometry 
                          PointSet {
                            coord 
                            DEF o6 Coordinate {
                              point [ 144.89999 150 0,
                                  145.10001 150 0,
                                  146.19035 150.12285 1.0509723e-015,
                                  147.22603 150.48526 9.712444e-016,
                                  148.15511 151.06903 8.4281435e-016,
                                  148.93097 151.84489 6.7212202e-016,
                                  149.51474 152.77397 4.6772667e-016,
                                  149.87715 153.80965 2.3987756e-016,
                                  150 154.89999 0,
                                  150 200 0,
                                  200 200 0,
                                  200 -200 0,
                                  -200 -200 0,
                                  -200 200 0,
                                  -150 200 0,
                                  -150 154.89999 0,
                                  -149.87715 153.80965 2.3987756e-016,
                                  -149.51474 152.77397 4.6772667e-016,
                                  -148.93097 151.84489 6.7212202e-016,
                                  -148.15511 151.06903 8.4281435e-016,
                                  -147.22603 150.48526 9.712444e-016,
                                  -146.19035 150.12285 1.0509723e-015,
                                  -145.10001 150 0,
                                  -144.89999 150 0,
                                  -143.80965 150.12285 0,
                                  -142.77397 150.48526 0,
                                  -141.84489 151.06903 0,
                                  -141.06903 151.84489 0,
                                  -140.48526 152.77397 0,
                                  -140.12285 153.80965 0,
                                  -140 154.89999 0,
                                  -140 200 0,
                                  140 200 0,
                                  140 154.89999 0,
                                  143.80965 150.12285 0,
                                  142.77397 150.48526 0,
                                  141.84489 151.06903 0,
                                  141.06903 151.84489 0,
                                  140.48526 152.77397 0,
                                  140.12285 153.80965 0,
                                  144.89999 150 5,
                                  145.10001 150 5,
                                  144.89999 150 0,
                                  145.10001 150 0,
                                  144.89999 150 5,
                                  143.80965 150.12285 5,
                                  142.77397 150.48526 5,
                                  141.84489 151.06903 5,
                                  141.06903 151.84489 5,
                                  140.48526 152.77397 5,
                                  140.12285 153.80965 5,
                                  140 154.89999 5,
                                  140 154.89999 0,
                                  144.89999 150 0,
                                  143.80965 150.12285 0,
                                  142.77397 150.48526 0,
                                  141.84489 151.06903 0,
                                  141.06903 151.84489 0,
                                  140.48526 152.77397 0,
                                  140.12285 153.80965 0,
                                  145.10001 150 0,
                                  146.19035 150.12285 1.0509723e-015,
                                  147.22603 150.48526 9.712444e-016,
                                  148.15511 151.06903 8.4281435e-016,
                                  148.93097 151.84489 6.7212202e-016,
                                  149.51474 152.77397 4.6772667e-016,
                                  149.87715 153.80965 2.3987756e-016,
                                  150 154.89999 0,
                                  150 154.89999 5,
                                  145.10001 150 5,
                                  146.19035 150.12285 5,
                                  147.22603 150.48526 5,
                                  148.15511 151.06903 5,
                                  148.93097 151.84489 5,
                                  149.51474 152.77397 5,
                                  149.87715 153.80965 5,
                                  140 200 5,
                                  140 154.89999 5,
                                  140 154.89999 0,
                                  140 200 0,
                                  140 201.73648 0.15192246,
                                  140 201.16093 0.067616425,
                                  140 200.58145 0.016918417,
                                  140 208.66025 5,
                                  140 207.37277 3.2440979,
                                  140 205.73576 1.8084795,
                                  140 203.82683 0.76120466,
                                  140 209.39693 6.5797987,
                                  140 209.18216 6.0392022,
                                  140 208.93633 5.5120082,
                                  140 364.33133 432.25861,
                                  140 359.63287 433.96872,
                                  140 204.69846 8.2898989,
                                  140 201.20961 5.1485214,
                                  140 202.34735 5.5852618,
                                  140 203.34566 6.284276,
                                  140 204.14519 7.2040353,
                                  150 154.89999 5,
                                  150 200 5,
                                  150 202.41922 4.7029572,
                                  150 204.69472 3.8294759,
                                  150 206.6913 2.4314482,
                                  150 208.29037 0.59192902,
                                  150 209.39693 -1.5797986,
                                  150 359.20105 -413.16321,
                                  150 354.50256 -414.87332,
                                  150 204.69846 -3.2898993,
                                  150 200 0,
                                  150 201.20961 -0.14852136,
                                  150 202.34735 -0.58526206,
                                  150 203.34566 -1.2842759,
                                  150 204.14519 -2.2040355,
                                  150 154.89999 0,
                                  140 200 0,
                                  -140 200 0,
                                  140 201.73648 0.15192246,
                                  140 201.16093 0.067616425,
                                  140 200.58145 0.016918417,
                                  140 208.66025 5,
                                  140 207.37277 3.2440979,
                                  140 205.73576 1.8084795,
                                  140 203.82683 0.76120466,
                                  140 209.39693 6.5797987,
                                  140 209.18216 6.0392022,
                                  140 208.93633 5.5120082,
                                  -140 209.39693 6.5797987,
                                  -140 209.18216 6.0392022,
                                  -140 208.93633 5.5120082,
                                  -140 208.66025 5,
                                  -140 207.37277 3.2440979,
                                  -140 205.73576 1.8084795,
                                  -140 203.82683 0.76120466,
                                  -140 201.73648 0.15192246,
                                  -140 201.16093 0.067616425,
                                  -140 200.58145 0.016918417,
                                  150 200 0,
                                  150 201.20961 -0.14852136,
                                  150 202.34735 -0.58526206,
                                  150 203.34566 -1.2842759,
                                  150 204.14519 -2.2040355,
                                  150 204.69846 -3.2898993,
                                  200 204.69846 -3.2898993,
                                  200 200 0,
                                  200 201.20961 -0.14852136,
                                  200 202.34735 -0.58526206,
                                  200 203.34566 -1.2842759,
                                  200 204.14519 -2.2040355,
                                  -140 154.89999 0,
                                  -140 200 0,
                                  -140 154.89999 5,
                                  -140 200 5,
                                  -140 201.20961 5.1485214,
                                  -140 202.34735 5.5852618,
                                  -140 203.34566 6.284276,
                                  -140 204.14519 7.2040353,
                                  -140 204.69846 8.2898989,
                                  -140 359.63287 433.96872,
                                  -140 364.33133 432.25861,
                                  -140 209.39693 6.5797987,
                                  -140 209.18216 6.0392022,
                                  -140 208.93633 5.5120082,
                                  -140 208.66025 5,
                                  -140 207.37277 3.2440979,
                                  -140 205.73576 1.8084795,
                                  -140 203.82683 0.76120466,
                                  -140 201.73648 0.15192246,
                                  -140 201.16093 0.067616425,
                                  -140 200.58145 0.016918417,
                                  200 209.39693 -1.5797986,
                                  200 359.20105 -413.16321,
                                  200 200 5,
                                  200 202.41922 4.7029572,
                                  200 204.69472 3.8294759,
                                  200 206.6913 2.4314482,
                                  200 208.29037 0.59192902,
                                  200 -200 5,
                                  200 -202.41922 4.7029572,
                                  200 -204.69472 3.8294759,
                                  200 -206.6913 2.4314482,
                                  200 -208.29037 0.59192902,
                                  200 -209.39693 -1.5797986,
                                  200 -359.20105 -413.16321,
                                  200 -354.50256 -414.87332,
                                  200 -204.69846 -3.2898993,
                                  200 -200 0,
                                  200 -201.20961 -0.14852136,
                                  200 -202.34735 -0.58526206,
                                  200 -203.34566 -1.2842759,
                                  200 -204.14519 -2.2040355,
                                  200 200 0,
                                  200 201.20961 -0.14852136,
                                  200 202.34735 -0.58526206,
                                  200 203.34566 -1.2842759,
                                  200 204.14519 -2.2040355,
                                  200 204.69846 -3.2898993,
                                  200 354.50256 -414.87332,
                                  -144.89999 150 5,
                                  -143.80965 150.12285 5,
                                  -142.77397 150.48526 5,
                                  -141.84489 151.06903 5,
                                  -141.06903 151.84489 5,
                                  -140.48526 152.77397 5,
                                  -140.12285 153.80965 5,
                                  -140 154.89999 5,
                                  -140 154.89999 0,
                                  -144.89999 150 0,
                                  -143.80965 150.12285 0,
                                  -142.77397 150.48526 0,
                                  -141.84489 151.06903 0,
                                  -141.06903 151.84489 0,
                                  -140.48526 152.77397 0,
                                  -140.12285 153.80965 0,
                                  200 -200 0,
                                  200 -201.20961 -0.14852136,
                                  200 -202.34735 -0.58526206,
                                  200 -203.34566 -1.2842759,
                                  200 -204.14519 -2.2040355,
                                  200 -204.69846 -3.2898993,
                                  -200 -204.69846 -3.2898993,
                                  -200 -200 0,
                                  -200 -201.20961 -0.14852136,
                                  -200 -202.34735 -0.58526206,
                                  -200 -203.34566 -1.2842759,
                                  -200 -204.14519 -2.2040355,
                                  -145.10001 150 5,
                                  -144.89999 150 5,
                                  -145.10001 150 0,
                                  -144.89999 150 0,
                                  -200 354.50256 -414.87332,
                                  -200 204.69846 -3.2898993,
                                  -200 200 0,
                                  -200 201.20961 -0.14852136,
                                  -200 202.34735 -0.58526206,
                                  -200 203.34566 -1.2842759,
                                  -200 204.14519 -2.2040355,
                                  -200 -200 0,
                                  -200 -201.20961 -0.14852136,
                                  -200 -202.34735 -0.58526206,
                                  -200 -203.34566 -1.2842759,
                                  -200 -204.14519 -2.2040355,
                                  -200 -204.69846 -3.2898993,
                                  -200 -354.50256 -414.87332,
                                  -200 -359.20105 -413.16321,
                                  -200 -209.39693 -1.5797986,
                                  -200 -200 5,
                                  -200 -202.41922 4.7029572,
                                  -200 -204.69472 3.8294759,
                                  -200 -206.6913 2.4314482,
                                  -200 -208.29037 0.59192902,
                                  -200 200 5,
                                  -200 202.41922 4.7029572,
                                  -200 204.69472 3.8294759,
                                  -200 206.6913 2.4314482,
                                  -200 208.29037 0.59192902,
                                  -200 209.39693 -1.5797986,
                                  -200 359.20105 -413.16321,
                                  -150 154.89999 5,
                                  -149.87715 153.80965 5,
                                  -149.51474 152.77397 5,
                                  -148.93097 151.84489 5,
                                  -148.15511 151.06903 5,
                                  -147.22603 150.48526 5,
                                  -146.19035 150.12285 5,
                                  -145.10001 150 5,
                                  -145.10001 150 0,
                                  -150 154.89999 0,
                                  -149.87715 153.80965 2.3987756e-016,
                                  -149.51474 152.77397 4.6772667e-016,
                                  -148.93097 151.84489 6.7212202e-016,
                                  -148.15511 151.06903 8.4281435e-016,
                                  -147.22603 150.48526 9.712444e-016,
                                  -146.19035 150.12285 1.0509723e-015,
                                  -200 200 0,
                                  -200 201.20961 -0.14852136,
                                  -200 202.34735 -0.58526206,
                                  -200 203.34566 -1.2842759,
                                  -200 204.14519 -2.2040355,
                                  -200 204.69846 -3.2898993,
                                  -150 204.69846 -3.2898993,
                                  -150 200 0,
                                  -150 201.20961 -0.14852136,
                                  -150 202.34735 -0.58526206,
                                  -150 203.34566 -1.2842759,
                                  -150 204.14519 -2.2040355,
                                  -150 154.89999 0,
                                  -150 200 0,
                                  -150 201.20961 -0.14852136,
                                  -150 202.34735 -0.58526206,
                                  -150 203.34566 -1.2842759,
                                  -150 204.14519 -2.2040355,
                                  -150 204.69846 -3.2898993,
                                  -150 354.50256 -414.87332,
                                  -150 359.20105 -413.16321,
                                  -150 209.39693 -1.5797986,
                                  -150 200 5,
                                  -150 202.41922 4.7029572,
                                  -150 204.69472 3.8294759,
                                  -150 206.6913 2.4314482,
                                  -150 208.29037 0.59192902,
                                  -150 154.89999 5,
                                  144.89999 150 5,
                                  145.10001 150 5,
                                  143.80965 150.12285 5,
                                  142.77397 150.48526 5,
                                  141.84489 151.06903 5,
                                  141.06903 151.84489 5,
                                  140.48526 152.77397 5,
                                  140.12285 153.80965 5,
                                  140 154.89999 5,
                                  140 200 5,
                                  -140 200 5,
                                  -140 154.89999 5,
                                  -144.89999 150 5,
                                  -143.80965 150.12285 5,
                                  -142.77397 150.48526 5,
                                  -141.84489 151.06903 5,
                                  -141.06903 151.84489 5,
                                  -140.48526 152.77397 5,
                                  -140.12285 153.80965 5,
                                  -145.10001 150 5,
                                  -150 154.89999 5,
                                  -149.87715 153.80965 5,
                                  -149.51474 152.77397 5,
                                  -148.93097 151.84489 5,
                                  -148.15511 151.06903 5,
                                  -147.22603 150.48526 5,
                                  -146.19035 150.12285 5,
                                  -150 200 5,
                                  -200 200 5,
                                  -200 -200 5,
                                  200 -200 5,
                                  200 200 5,
                                  150 200 5,
                                  150 154.89999 5,
                                  146.19035 150.12285 5,
                                  147.22603 150.48526 5,
                                  148.15511 151.06903 5,
                                  148.93097 151.84489 5,
                                  149.51474 152.77397 5,
                                  149.87715 153.80965 5,
                                  140 200 5,
                                  -140 200 5,
                                  -140 201.20961 5.1485214,
                                  -140 202.34735 5.5852618,
                                  -140 203.34566 6.284276,
                                  -140 204.14519 7.2040353,
                                  -140 204.69846 8.2898989,
                                  140 204.69846 8.2898989,
                                  140 201.20961 5.1485214,
                                  140 202.34735 5.5852618,
                                  140 203.34566 6.284276,
                                  140 204.14519 7.2040353,
                                  100 373.31369 471.5564,
                                  -100 373.31369 471.5564,
                                  -108.90084 372.97067 470.61401,
                                  -117.35535 371.95886 467.83405,
                                  -124.93959 370.32895 463.35596,
                                  -131.27325 368.16272 457.40427,
                                  -136.03876 365.56876 450.2774,
                                  -138.99712 362.67715 442.33276,
                                  -140 359.63287 433.96872,
                                  -140 204.69846 8.2898989,
                                  140 204.69846 8.2898989,
                                  140 359.63287 433.96872,
                                  138.99712 362.67715 442.33276,
                                  136.03876 365.56876 450.2774,
                                  131.27325 368.16272 457.40427,
                                  124.93959 370.32895 463.35596,
                                  117.35535 371.95886 467.83405,
                                  108.90084 372.97067 470.61401,
                                  140 364.33133 432.25861,
                                  138.99712 367.37561 440.62265,
                                  136.03876 370.26721 448.56729,
                                  131.27325 372.86118 455.69415,
                                  124.93959 375.02744 461.64584,
                                  117.35535 376.65732 466.12396,
                                  108.90084 377.66913 468.9039,
                                  100 378.01215 469.84631,
                                  100 373.31369 471.5564,
                                  140 359.63287 433.96872,
                                  138.99712 362.67715 442.33276,
                                  136.03876 365.56876 450.2774,
                                  131.27325 368.16272 457.40427,
                                  124.93959 370.32895 463.35596,
                                  117.35535 371.95886 467.83405,
                                  108.90084 372.97067 470.61401,
                                  100 378.01215 469.84631,
                                  -100 378.01215 469.84631,
                                  -108.90084 377.66913 468.9039,
                                  -117.35535 376.65732 466.12396,
                                  -124.93959 375.02744 461.64584,
                                  -131.27325 372.86118 455.69415,
                                  -136.03876 370.26721 448.56729,
                                  -138.99712 367.37561 440.62265,
                                  -140 364.33133 432.25861,
                                  -140 209.39693 6.5797987,
                                  140 209.39693 6.5797987,
                                  140 364.33133 432.25861,
                                  138.99712 367.37561 440.62265,
                                  136.03876 370.26721 448.56729,
                                  131.27325 372.86118 455.69415,
                                  124.93959 375.02744 461.64584,
                                  117.35535 376.65732 466.12396,
                                  108.90084 377.66913 468.9039,
                                  200 200 5,
                                  200 202.41922 4.7029572,
                                  200 204.69472 3.8294759,
                                  200 206.6913 2.4314482,
                                  200 208.29037 0.59192902,
                                  200 209.39693 -1.5797986,
                                  150 209.39693 -1.5797986,
                                  150 200 5,
                                  150 202.41922 4.7029572,
                                  150 204.69472 3.8294759,
                                  150 206.6913 2.4314482,
                                  150 208.29037 0.59192902,
                                  195 360.91113 -417.86169,
                                  155 360.91113 -417.86169,
                                  150 359.20105 -413.16321,
                                  150.12537 359.58157 -414.20871,
                                  150.49516 359.94302 -415.20181,
                                  151.09084 360.26727 -416.09265,
                                  151.88255 360.53806 -416.83661,
                                  152.83058 360.74179 -417.39639,
                                  153.88739 360.86826 -417.74387,
                                  150 209.39693 -1.5797986,
                                  200 209.39693 -1.5797986,
                                  200 359.20105 -413.16321,
                                  199.87463 359.58157 -414.20871,
                                  199.50484 359.94302 -415.20181,
                                  198.90916 360.26727 -416.09265,
                                  198.11745 360.53806 -416.83661,
                                  197.16942 360.74179 -417.39639,
                                  196.11261 360.86826 -417.74387,
                                  150 354.50256 -414.87332,
                                  150.12537 354.88312 -415.91882,
                                  150.49516 355.24457 -416.9119,
                                  151.09084 355.56882 -417.80276,
                                  151.88255 355.8396 -418.54672,
                                  152.83058 356.04333 -419.10648,
                                  153.88739 356.1698 -419.45398,
                                  155 356.21268 -419.57178,
                                  155 360.91113 -417.86169,
                                  150 359.20105 -413.16321,
                                  150.12537 359.58157 -414.20871,
                                  150.49516 359.94302 -415.20181,
                                  151.09084 360.26727 -416.09265,
                                  151.88255 360.53806 -416.83661,
                                  152.83058 360.74179 -417.39639,
                                  153.88739 360.86826 -417.74387,
                                  195 356.21268 -419.57178,
                                  155 356.21268 -419.57178,
                                  150 354.50256 -414.87332,
                                  150.12537 354.88312 -415.91882,
                                  150.49516 355.24457 -416.9119,
                                  151.09084 355.56882 -417.80276,
                                  151.88255 355.8396 -418.54672,
                                  152.83058 356.04333 -419.10648,
                                  153.88739 356.1698 -419.45398,
                                  150 204.69846 -3.2898993,
                                  200 204.69846 -3.2898993,
                                  200 354.50256 -414.87332,
                                  199.87463 354.88312 -415.91882,
                                  199.50484 355.24457 -416.9119,
                                  198.90916 355.56882 -417.80276,
                                  198.11745 355.8396 -418.54672,
                                  197.16942 356.04333 -419.10648,
                                  196.11261 356.1698 -419.45398,
                                  -100 373.31369 471.5564,
                                  -108.90084 372.97067 470.61401,
                                  -117.35535 371.95886 467.83405,
                                  -124.93959 370.32895 463.35596,
                                  -131.27325 368.16272 457.40427,
                                  -136.03876 365.56876 450.2774,
                                  -138.99712 362.67715 442.33276,
                                  -140 359.63287 433.96872,
                                  -140 364.33133 432.25861,
                                  -100 378.01215 469.84631,
                                  -108.90084 377.66913 468.9039,
                                  -117.35535 376.65732 466.12396,
                                  -124.93959 375.02744 461.64584,
                                  -131.27325 372.86118 455.69415,
                                  -136.03876 370.26721 448.56729,
                                  -138.99712 367.37561 440.62265,
                                  200 354.50256 -414.87332,
                                  199.87463 354.88312 -415.91882,
                                  199.50484 355.24457 -416.9119,
                                  198.90916 355.56882 -417.80276,
                                  198.11745 355.8396 -418.54672,
                                  197.16942 356.04333 -419.10648,
                                  196.11261 356.1698 -419.45398,
                                  195 356.21268 -419.57178,
                                  195 360.91113 -417.86169,
                                  200 359.20105 -413.16321,
                                  199.87463 359.58157 -414.20871,
                                  199.50484 359.94302 -415.20181,
                                  198.90916 360.26727 -416.09265,
                                  198.11745 360.53806 -416.83661,
                                  197.16942 360.74179 -417.39639,
                                  196.11261 360.86826 -417.74387,
                                  -200 -200 5,
                                  -200 -202.41922 4.7029572,
                                  -200 -204.69472 3.8294759,
                                  -200 -206.6913 2.4314482,
                                  -200 -208.29037 0.59192902,
                                  -200 -209.39693 -1.5797986,
                                  200 -209.39693 -1.5797986,
                                  200 -200 5,
                                  200 -202.41922 4.7029572,
                                  200 -204.69472 3.8294759,
                                  200 -206.6913 2.4314482,
                                  200 -208.29037 0.59192902,
                                  -195 -360.91113 -417.86169,
                                  -155 -360.91113 -417.86169,
                                  -153.88739 -360.86826 -417.74387,
                                  -152.83058 -360.74179 -417.39639,
                                  -151.88255 -360.53806 -416.83661,
                                  -151.09084 -360.26727 -416.09265,
                                  -150.49516 -359.94302 -415.20181,
                                  -150.12537 -359.58157 -414.20871,
                                  -150 -359.20105 -413.16321,
                                  -150 -237.78717 -79.581345,
                                  -110 -224.10635 -41.993637,
                                  -118.90084 -224.44937 -42.936039,
                                  -127.35535 -225.46118 -45.715988,
                                  -134.93959 -227.09108 -50.194092,
                                  -141.27325 -229.25732 -56.14579,
                                  -146.03876 -231.85129 -63.272648,
                                  -148.99712 -234.7429 -71.217293,
                                  110 -224.10635 -41.993637,
                                  150 -237.78717 -79.581345,
                                  148.99712 -234.7429 -71.217293,
                                  146.03876 -231.85129 -63.272648,
                                  141.27325 -229.25732 -56.14579,
                                  134.93959 -227.09108 -50.194092,
                                  127.35535 -225.46118 -45.715988,
                                  118.90084 -224.44937 -42.936039,
                                  150 -359.20105 -413.16321,
                                  155 -360.91113 -417.86169,
                                  153.88739 -360.86826 -417.74387,
                                  152.83058 -360.74179 -417.39639,
                                  151.88255 -360.53806 -416.83661,
                                  151.09084 -360.26727 -416.09265,
                                  150.49516 -359.94302 -415.20181,
                                  150.12537 -359.58157 -414.20871,
                                  195 -360.91113 -417.86169,
                                  200 -359.20105 -413.16321,
                                  199.87463 -359.58157 -414.20871,
                                  199.50484 -359.94302 -415.20181,
                                  198.90916 -360.26727 -416.09265,
                                  198.11745 -360.53806 -416.83661,
                                  197.16942 -360.74179 -417.39639,
                                  196.11261 -360.86826 -417.74387,
                                  200 -209.39693 -1.5797986,
                                  -200 -209.39693 -1.5797986,
                                  -200 -359.20105 -413.16321,
                                  -199.87463 -359.58157 -414.20871,
                                  -199.50484 -359.94302 -415.20181,
                                  -198.90916 -360.26727 -416.09265,
                                  -198.11745 -360.53806 -416.83661,
                                  -197.16942 -360.74179 -417.39639,
                                  -196.11261 -360.86826 -417.74387,
                                  200 -354.50256 -414.87332,
                                  199.87463 -354.88312 -415.91882,
                                  199.50484 -355.24457 -416.9119,
                                  198.90916 -355.56882 -417.80276,
                                  198.11745 -355.8396 -418.54672,
                                  197.16942 -356.04333 -419.10648,
                                  196.11261 -356.1698 -419.45398,
                                  195 -356.21268 -419.57178,
                                  195 -360.91113 -417.86169,
                                  200 -359.20105 -413.16321,
                                  199.87463 -359.58157 -414.20871,
                                  199.50484 -359.94302 -415.20181,
                                  198.90916 -360.26727 -416.09265,
                                  198.11745 -360.53806 -416.83661,
                                  197.16942 -360.74179 -417.39639,
                                  196.11261 -360.86826 -417.74387,
                                  -195 -356.21268 -419.57178,
                                  -155 -356.21268 -419.57178,
                                  -153.88739 -356.1698 -419.45398,
                                  -152.83058 -356.04333 -419.10648,
                                  -151.88255 -355.8396 -418.54672,
                                  -151.09084 -355.56882 -417.80276,
                                  -150.49516 -355.24457 -416.9119,
                                  -150.12537 -354.88312 -415.91882,
                                  -150 -354.50256 -414.87332,
                                  -150 -233.0887 -81.291443,
                                  -110 -219.4079 -43.703739,
                                  -118.90084 -219.7509 -44.646141,
                                  -127.35535 -220.76273 -47.42609,
                                  -134.93959 -222.39262 -51.90419,
                                  -141.27325 -224.55885 -57.855892,
                                  -146.03876 -227.15282 -64.98275,
                                  -148.99712 -230.04443 -72.927391,
                                  110 -219.4079 -43.703739,
                                  150 -233.0887 -81.291443,
                                  148.99712 -230.04443 -72.927391,
                                  146.03876 -227.15282 -64.98275,
                                  141.27325 -224.55885 -57.855892,
                                  134.93959 -222.39262 -51.90419,
                                  127.35535 -220.76273 -47.42609,
                                  118.90084 -219.7509 -44.646141,
                                  150 -354.50256 -414.87332,
                                  155 -356.21268 -419.57178,
                                  153.88739 -356.1698 -419.45398,
                                  152.83058 -356.04333 -419.10648,
                                  151.88255 -355.8396 -418.54672,
                                  151.09084 -355.56882 -417.80276,
                                  150.49516 -355.24457 -416.9119,
                                  150.12537 -354.88312 -415.91882,
                                  195 -356.21268 -419.57178,
                                  200 -354.50256 -414.87332,
                                  199.87463 -354.88312 -415.91882,
                                  199.50484 -355.24457 -416.9119,
                                  198.90916 -355.56882 -417.80276,
                                  198.11745 -355.8396 -418.54672,
                                  197.16942 -356.04333 -419.10648,
                                  196.11261 -356.1698 -419.45398,
                                  200 -204.69846 -3.2898993,
                                  -200 -204.69846 -3.2898993,
                                  -200 -354.50256 -414.87332,
                                  -199.87463 -354.88312 -415.91882,
                                  -199.50484 -355.24457 -416.9119,
                                  -198.90916 -355.56882 -417.80276,
                                  -198.11745 -355.8396 -418.54672,
                                  -197.16942 -356.04333 -419.10648,
                                  -196.11261 -356.1698 -419.45398,
                                  -155 356.21268 -419.57178,
                                  -195 356.21268 -419.57178,
                                  -200 354.50256 -414.87332,
                                  -199.87463 354.88312 -415.91882,
                                  -199.50484 355.24457 -416.9119,
                                  -198.90916 355.56882 -417.80276,
                                  -198.11745 355.8396 -418.54672,
                                  -197.16942 356.04333 -419.10648,
                                  -196.11261 356.1698 -419.45398,
                                  -200 204.69846 -3.2898993,
                                  -150 204.69846 -3.2898993,
                                  -150 354.50256 -414.87332,
                                  -150.12537 354.88312 -415.91882,
                                  -150.49516 355.24457 -416.9119,
                                  -151.09084 355.56882 -417.80276,
                                  -151.88255 355.8396 -418.54672,
                                  -152.83058 356.04333 -419.10648,
                                  -153.88739 356.1698 -419.45398,
                                  -200 354.50256 -414.87332,
                                  -199.87463 354.88312 -415.91882,
                                  -199.50484 355.24457 -416.9119,
                                  -198.90916 355.56882 -417.80276,
                                  -198.11745 355.8396 -418.54672,
                                  -197.16942 356.04333 -419.10648,
                                  -196.11261 356.1698 -419.45398,
                                  -195 356.21268 -419.57178,
                                  -195 360.91113 -417.86169,
                                  -200 359.20105 -413.16321,
                                  -199.87463 359.58157 -414.20871,
                                  -199.50484 359.94302 -415.20181,
                                  -198.90916 360.26727 -416.09265,
                                  -198.11745 360.53806 -416.83661,
                                  -197.16942 360.74179 -417.39639,
                                  -196.11261 360.86826 -417.74387,
                                  -155 360.91113 -417.86169,
                                  -195 360.91113 -417.86169,
                                  -200 359.20105 -413.16321,
                                  -199.87463 359.58157 -414.20871,
                                  -199.50484 359.94302 -415.20181,
                                  -198.90916 360.26727 -416.09265,
                                  -198.11745 360.53806 -416.83661,
                                  -197.16942 360.74179 -417.39639,
                                  -196.11261 360.86826 -417.74387,
                                  -200 209.39693 -1.5797986,
                                  -150 209.39693 -1.5797986,
                                  -150 359.20105 -413.16321,
                                  -150.12537 359.58157 -414.20871,
                                  -150.49516 359.94302 -415.20181,
                                  -151.09084 360.26727 -416.09265,
                                  -151.88255 360.53806 -416.83661,
                                  -152.83058 360.74179 -417.39639,
                                  -153.88739 360.86826 -417.74387,
                                  -150 200 5,
                                  -150 202.41922 4.7029572,
                                  -150 204.69472 3.8294759,
                                  -150 206.6913 2.4314482,
                                  -150 208.29037 0.59192902,
                                  -150 209.39693 -1.5797986,
                                  -200 209.39693 -1.5797986,
                                  -200 200 5,
                                  -200 202.41922 4.7029572,
                                  -200 204.69472 3.8294759,
                                  -200 206.6913 2.4314482,
                                  -200 208.29037 0.59192902,
                                  -200 -354.50256 -414.87332,
                                  -199.87463 -354.88312 -415.91882,
                                  -199.50484 -355.24457 -416.9119,
                                  -198.90916 -355.56882 -417.80276,
                                  -198.11745 -355.8396 -418.54672,
                                  -197.16942 -356.04333 -419.10648,
                                  -196.11261 -356.1698 -419.45398,
                                  -195 -356.21268 -419.57178,
                                  -195 -360.91113 -417.86169,
                                  -200 -359.20105 -413.16321,
                                  -199.87463 -359.58157 -414.20871,
                                  -199.50484 -359.94302 -415.20181,
                                  -198.90916 -360.26727 -416.09265,
                                  -198.11745 -360.53806 -416.83661,
                                  -197.16942 -360.74179 -417.39639,
                                  -196.11261 -360.86826 -417.74387,
                                  -150 354.50256 -414.87332,
                                  -150.12537 354.88312 -415.91882,
                                  -150.49516 355.24457 -416.9119,
                                  -151.09084 355.56882 -417.80276,
                                  -151.88255 355.8396 -418.54672,
                                  -152.83058 356.04333 -419.10648,
                                  -153.88739 356.1698 -419.45398,
                                  -155 356.21268 -419.57178,
                                  -155 360.91113 -417.86169,
                                  -150 359.20105 -413.16321,
                                  -150.12537 359.58157 -414.20871,
                                  -150.49516 359.94302 -415.20181,
                                  -151.09084 360.26727 -416.09265,
                                  -151.88255 360.53806 -416.83661,
                                  -152.83058 360.74179 -417.39639,
                                  -153.88739 360.86826 -417.74387,
                                  100 373.31369 471.5564,
                                  -100 373.31369 471.5564,
                                  100 378.01215 469.84631,
                                  -100 378.01215 469.84631,
                                  195 356.21268 -419.57178,
                                  155 356.21268 -419.57178,
                                  195 360.91113 -417.86169,
                                  155 360.91113 -417.86169,
                                  -195 -356.21268 -419.57178,
                                  -155 -356.21268 -419.57178,
                                  -195 -360.91113 -417.86169,
                                  -155 -360.91113 -417.86169,
                                  -155 -356.21268 -419.57178,
                                  -153.88739 -356.1698 -419.45398,
                                  -152.83058 -356.04333 -419.10648,
                                  -151.88255 -355.8396 -418.54672,
                                  -151.09084 -355.56882 -417.80276,
                                  -150.49516 -355.24457 -416.9119,
                                  -150.12537 -354.88312 -415.91882,
                                  -150 -354.50256 -414.87332,
                                  -150 -359.20105 -413.16321,
                                  -155 -360.91113 -417.86169,
                                  -153.88739 -360.86826 -417.74387,
                                  -152.83058 -360.74179 -417.39639,
                                  -151.88255 -360.53806 -416.83661,
                                  -151.09084 -360.26727 -416.09265,
                                  -150.49516 -359.94302 -415.20181,
                                  -150.12537 -359.58157 -414.20871,
                                  -150 -237.78717 -79.581345,
                                  -150 -359.20105 -413.16321,
                                  -150 -233.0887 -81.291443,
                                  -150 -354.50256 -414.87332,
                                  -110 -224.10635 -41.993637,
                                  -110 -219.4079 -43.703739,
                                  -118.90084 -219.7509 -44.646141,
                                  -127.35535 -220.76273 -47.42609,
                                  -134.93959 -222.39262 -51.90419,
                                  -141.27325 -224.55885 -57.855892,
                                  -146.03876 -227.15282 -64.98275,
                                  -148.99712 -230.04443 -72.927391,
                                  -150 -233.0887 -81.291443,
                                  -150 -237.78717 -79.581345,
                                  -118.90084 -224.44937 -42.936039,
                                  -127.35535 -225.46118 -45.715988,
                                  -134.93959 -227.09108 -50.194092,
                                  -141.27325 -229.25732 -56.14579,
                                  -146.03876 -231.85129 -63.272648,
                                  -148.99712 -234.7429 -71.217293,
                                  110 -224.10635 -41.993637,
                                  110 -219.4079 -43.703739,
                                  -110 -219.4079 -43.703739,
                                  -110 -224.10635 -41.993637,
                                  150 -237.78717 -79.581345,
                                  150 -233.0887 -81.291443,
                                  148.99712 -230.04443 -72.927391,
                                  146.03876 -227.15282 -64.98275,
                                  141.27325 -224.55885 -57.855892,
                                  134.93959 -222.39262 -51.90419,
                                  127.35535 -220.76273 -47.42609,
                                  118.90084 -219.7509 -44.646141,
                                  110 -219.4079 -43.703739,
                                  110 -224.10635 -41.993637,
                                  148.99712 -234.7429 -71.217293,
                                  146.03876 -231.85129 -63.272648,
                                  141.27325 -229.25732 -56.14579,
                                  134.93959 -227.09108 -50.194092,
                                  127.35535 -225.46118 -45.715988,
                                  118.90084 -224.44937 -42.936039,
                                  150 -359.20105 -413.16321,
                                  150 -237.78717 -79.581345,
                                  150 -354.50256 -414.87332,
                                  150 -233.0887 -81.291443,
                                  155 -356.21268 -419.57178,
                                  195 -356.21268 -419.57178,
                                  155 -360.91113 -417.86169,
                                  195 -360.91113 -417.86169,
                                  155 -360.91113 -417.86169,
                                  153.88739 -360.86826 -417.74387,
                                  152.83058 -360.74179 -417.39639,
                                  151.88255 -360.53806 -416.83661,
                                  151.09084 -360.26727 -416.09265,
                                  150.49516 -359.94302 -415.20181,
                                  150.12537 -359.58157 -414.20871,
                                  150 -359.20105 -413.16321,
                                  150 -354.50256 -414.87332,
                                  155 -356.21268 -419.57178,
                                  153.88739 -356.1698 -419.45398,
                                  152.83058 -356.04333 -419.10648,
                                  151.88255 -355.8396 -418.54672,
                                  151.09084 -355.56882 -417.80276,
                                  150.49516 -355.24457 -416.9119,
                                  150.12537 -354.88312 -415.91882,
                                  -155 356.21268 -419.57178,
                                  -195 356.21268 -419.57178,
                                  -155 360.91113 -417.86169,
                                  -195 360.91113 -417.86169,
                                  144.89999 150 0,
                                  145.10001 150 0,
                                  140 154.89999 0,
                                  150 154.89999 0,
                                  140 200 0,
                                  150 200 0,
                                  -140 200 0,
                                  200 200 0,
                                  -140 154.89999 0,
                                  200 -200 0,
                                  -144.89999 150 0,
                                  -200 -200 0,
                                  -145.10001 150 0,
                                  -200 200 0,
                                  -150 154.89999 0,
                                  -150 200 0,
                                  144.89999 150 5,
                                  145.10001 150 5,
                                  140 154.89999 5,
                                  150 154.89999 5,
                                  140 200 5,
                                  140 204.69846 8.2898989,
                                  140 359.63287 433.96872,
                                  140 201.73648 0.15192246,
                                  140 364.33133 432.25861,
                                  140 208.66025 5,
                                  140 209.39693 6.5797987,
                                  150 200 5,
                                  150 209.39693 -1.5797986,
                                  150 359.20105 -413.16321,
                                  150 204.69846 -3.2898993,
                                  150 354.50256 -414.87332,
                                  -140 201.73648 0.15192246,
                                  -140 208.66025 5,
                                  -140 209.39693 6.5797987,
                                  200 204.69846 -3.2898993,
                                  -140 154.89999 5,
                                  -140 200 5,
                                  -140 204.69846 8.2898989,
                                  -140 359.63287 433.96872,
                                  -140 364.33133 432.25861,
                                  200 359.20105 -413.16321,
                                  200 209.39693 -1.5797986,
                                  200 354.50256 -414.87332,
                                  200 200 5,
                                  200 -200 5,
                                  200 -209.39693 -1.5797986,
                                  200 -359.20105 -413.16321,
                                  200 -204.69846 -3.2898993,
                                  200 -354.50256 -414.87332,
                                  -144.89999 150 5,
                                  -200 -204.69846 -3.2898993,
                                  -145.10001 150 5,
                                  -200 354.50256 -414.87332,
                                  -200 204.69846 -3.2898993,
                                  -200 359.20105 -413.16321,
                                  -200 209.39693 -1.5797986,
                                  -200 200 5,
                                  -200 -200 5,
                                  -200 -354.50256 -414.87332,
                                  -200 -209.39693 -1.5797986,
                                  -200 -359.20105 -413.16321,
                                  -150 154.89999 5,
                                  -150 204.69846 -3.2898993,
                                  -150 200 5,
                                  -150 354.50256 -414.87332,
                                  -150 209.39693 -1.5797986,
                                  -150 359.20105 -413.16321,
                                  -100 373.31369 471.5564,
                                  100 373.31369 471.5564,
                                  100 378.01215 469.84631,
                                  -100 378.01215 469.84631,
                                  155 360.91113 -417.86169,
                                  195 360.91113 -417.86169,
                                  155 356.21268 -419.57178,
                                  195 356.21268 -419.57178,
                                  -155 -360.91113 -417.86169,
                                  -195 -360.91113 -417.86169,
                                  -150 -359.20105 -413.16321,
                                  -150 -237.78717 -79.581345,
                                  -110 -224.10635 -41.993637,
                                  110 -224.10635 -41.993637,
                                  150 -237.78717 -79.581345,
                                  195 -360.91113 -417.86169,
                                  150 -359.20105 -413.16321,
                                  155 -360.91113 -417.86169,
                                  195 -356.21268 -419.57178,
                                  -155 -356.21268 -419.57178,
                                  -195 -356.21268 -419.57178,
                                  -150 -354.50256 -414.87332,
                                  -150 -233.0887 -81.291443,
                                  -110 -219.4079 -43.703739,
                                  110 -219.4079 -43.703739,
                                  150 -233.0887 -81.291443,
                                  150 -354.50256 -414.87332,
                                  155 -356.21268 -419.57178,
                                  -195 356.21268 -419.57178,
                                  -155 356.21268 -419.57178,
                                  -195 360.91113 -417.86169,
                                  -155 360.91113 -417.86169 ]

                            }

                          }

                        }

                    },
                      
                    DEF o7 Group {
                      children 
                        DEF o8 Shape {
                          appearance 
                          Appearance {
                            material 
                            Material {
                              diffuseColor 0.44705883 0.47450981 0.50196081
                              ambientIntensity 0.33333334
                              specularColor 0.53333336 0.53333336 0.53333336
                              shininess 0.89999998

                            }

                          }
                          geometry 
                          IndexedFaceSet {
                            coord 
                            USE o6
                            coordIndex [ 5, 10, 11, -1, 5, 11, 4, -1,
                                6, 10, 5, -1, 3, 4, 11, -1,
                                2, 3, 11, -1, 7, 10, 6, -1,
                                1, 2, 11, -1, 8, 10, 7, -1,
                                0, 1, 11, -1, 34, 0, 11, -1,
                                35, 34, 11, -1, 36, 11, 12, -1,
                                36, 35, 11, -1, 9, 10, 8, -1,
                                26, 36, 12, -1, 27, 37, 36, -1,
                                27, 38, 37, -1, 27, 36, 26, -1,
                                25, 26, 12, -1, 28, 38, 27, -1,
                                24, 25, 12, -1, 29, 39, 38, -1,
                                29, 38, 28, -1, 30, 33, 39, -1,
                                30, 39, 29, -1, 23, 24, 12, -1,
                                22, 23, 12, -1, 21, 22, 12, -1,
                                20, 21, 12, -1, 19, 20, 12, -1,
                                18, 19, 12, -1, 31, 32, 33, -1,
                                31, 33, 30, -1, 13, 18, 12, -1,
                                13, 14, 15, -1, 13, 15, 16, -1,
                                13, 16, 17, -1, 13, 17, 18, -1,
                                40, 41, 42, -1, 42, 41, 43, -1,
                                44, 54, 45, -1, 53, 54, 44, -1,
                                45, 55, 46, -1, 54, 55, 45, -1,
                                46, 56, 47, -1, 55, 56, 46, -1,
                                47, 57, 48, -1, 48, 57, 49, -1,
                                56, 57, 47, -1, 57, 58, 49, -1,
                                49, 59, 50, -1, 50, 59, 51, -1,
                                58, 59, 49, -1, 59, 52, 51, -1,
                                60, 69, 61, -1, 69, 70, 61, -1,
                                61, 71, 62, -1, 70, 71, 61, -1,
                                62, 72, 63, -1, 71, 72, 62, -1,
                                63, 73, 64, -1, 72, 73, 63, -1,
                                64, 74, 65, -1, 73, 74, 64, -1,
                                65, 75, 66, -1, 74, 75, 65, -1,
                                66, 68, 67, -1, 75, 68, 66, -1,
                                95, 85, 84, -1, 96, 84, 83, -1,
                                96, 83, 89, -1, 96, 95, 84, -1,
                                94, 86, 85, -1, 94, 85, 95, -1,
                                92, 88, 87, -1, 92, 89, 88, -1,
                                92, 96, 89, -1, 93, 81, 80, -1,
                                93, 80, 86, -1, 93, 86, 94, -1,
                                76, 82, 81, -1, 76, 79, 82, -1,
                                76, 81, 93, -1, 77, 78, 79, -1,
                                77, 79, 76, -1, 90, 92, 87, -1,
                                91, 92, 90, -1, 111, 101, 102, -1,
                                111, 102, 103, -1, 111, 110, 101, -1,
                                109, 100, 101, -1, 109, 101, 110, -1,
                                106, 111, 103, -1, 108, 99, 100, -1,
                                108, 100, 109, -1, 107, 98, 99, -1,
                                107, 99, 108, -1, 112, 97, 98, -1,
                                112, 98, 107, -1, 105, 103, 104, -1,
                                105, 106, 103, -1, 113, 114, 117, -1,
                                117, 134, 116, -1, 114, 134, 117, -1,
                                116, 133, 115, -1, 134, 133, 116, -1,
                                115, 132, 121, -1, 133, 132, 115, -1,
                                121, 131, 120, -1, 132, 131, 121, -1,
                                120, 130, 119, -1, 131, 130, 120, -1,
                                119, 129, 118, -1, 130, 129, 119, -1,
                                129, 128, 118, -1, 118, 127, 124, -1,
                                128, 127, 118, -1, 123, 126, 122, -1,
                                124, 126, 123, -1, 127, 126, 124, -1,
                                126, 125, 122, -1, 142, 135, 136, -1,
                                143, 142, 136, -1, 144, 136, 137, -1,
                                144, 143, 136, -1, 145, 137, 138, -1,
                                145, 138, 139, -1, 145, 144, 137, -1,
                                146, 145, 139, -1, 141, 139, 140, -1,
                                141, 146, 139, -1, 155, 156, 157, -1,
                                155, 157, 158, -1, 155, 158, 159, -1,
                                155, 159, 160, -1, 154, 160, 161, -1,
                                154, 155, 160, -1, 162, 154, 161, -1,
                                153, 154, 162, -1, 163, 152, 153, -1,
                                163, 153, 162, -1, 164, 151, 152, -1,
                                164, 152, 163, -1, 165, 151, 164, -1,
                                166, 150, 151, -1, 166, 151, 165, -1,
                                167, 150, 166, -1, 148, 150, 167, -1,
                                147, 149, 150, -1, 147, 150, 148, -1,
                                168, 195, 169, -1, 194, 195, 168, -1,
                                193, 168, 174, -1, 193, 194, 168, -1,
                                192, 193, 174, -1, 173, 192, 174, -1,
                                172, 191, 192, -1, 172, 192, 173, -1,
                                171, 190, 191, -1, 171, 191, 172, -1,
                                170, 189, 190, -1, 170, 190, 171, -1,
                                183, 181, 182, -1, 175, 185, 184, -1,
                                175, 184, 189, -1, 175, 189, 170, -1,
                                176, 185, 175, -1, 180, 181, 183, -1,
                                177, 186, 185, -1, 177, 187, 186, -1,
                                177, 185, 176, -1, 179, 188, 187, -1,
                                179, 183, 188, -1, 179, 180, 183, -1,
                                178, 179, 187, -1, 178, 187, 177, -1,
                                206, 196, 197, -1, 206, 205, 196, -1,
                                207, 197, 198, -1, 207, 206, 197, -1,
                                208, 198, 199, -1, 208, 207, 198, -1,
                                209, 199, 200, -1, 209, 200, 201, -1,
                                209, 208, 199, -1, 210, 209, 201, -1,
                                211, 201, 202, -1, 211, 202, 203, -1,
                                211, 210, 201, -1, 204, 211, 203, -1,
                                219, 212, 213, -1, 220, 219, 213, -1,
                                221, 213, 214, -1, 221, 220, 213, -1,
                                222, 214, 215, -1, 222, 215, 216, -1,
                                222, 221, 214, -1, 223, 222, 216, -1,
                                218, 216, 217, -1, 218, 223, 216, -1,
                                224, 225, 226, -1, 226, 225, 227, -1,
                                234, 252, 253, -1, 234, 233, 252, -1,
                                232, 251, 252, -1, 232, 252, 233, -1,
                                229, 253, 254, -1, 229, 234, 253, -1,
                                231, 250, 251, -1, 231, 251, 232, -1,
                                230, 249, 250, -1, 230, 250, 231, -1,
                                228, 254, 255, -1, 228, 229, 254, -1,
                                235, 244, 249, -1, 235, 249, 230, -1,
                                236, 245, 244, -1, 236, 246, 245, -1,
                                236, 244, 235, -1, 237, 246, 236, -1,
                                238, 247, 246, -1, 238, 246, 237, -1,
                                248, 238, 239, -1, 248, 247, 238, -1,
                                240, 248, 239, -1, 243, 248, 240, -1,
                                242, 240, 241, -1, 242, 243, 240, -1,
                                266, 256, 257, -1, 266, 265, 256, -1,
                                267, 257, 258, -1, 267, 266, 257, -1,
                                268, 258, 259, -1, 268, 259, 260, -1,
                                268, 267, 258, -1, 269, 268, 260, -1,
                                270, 260, 261, -1, 270, 269, 260, -1,
                                271, 261, 262, -1, 271, 270, 261, -1,
                                264, 262, 263, -1, 264, 271, 262, -1,
                                279, 272, 273, -1, 280, 279, 273, -1,
                                281, 273, 274, -1, 281, 280, 273, -1,
                                282, 274, 275, -1, 282, 275, 276, -1,
                                282, 281, 274, -1, 283, 282, 276, -1,
                                278, 276, 277, -1, 278, 283, 276, -1,
                                290, 291, 292, -1, 290, 292, 293, -1,
                                289, 293, 298, -1, 289, 290, 293, -1,
                                288, 289, 298, -1, 297, 288, 298, -1,
                                296, 287, 288, -1, 296, 288, 297, -1,
                                295, 286, 287, -1, 295, 287, 296, -1,
                                294, 285, 286, -1, 294, 286, 295, -1,
                                299, 284, 285, -1, 299, 285, 294, -1,
                                323, 328, 329, -1, 323, 329, 324, -1,
                                325, 324, 329, -1, 322, 328, 323, -1,
                                326, 325, 329, -1, 321, 328, 322, -1,
                                320, 328, 321, -1, 319, 326, 329, -1,
                                312, 319, 329, -1, 313, 312, 329, -1,
                                314, 313, 329, -1, 315, 314, 329, -1,
                                327, 328, 320, -1, 304, 329, 330, -1,
                                304, 315, 329, -1, 305, 316, 315, -1,
                                305, 317, 316, -1, 305, 315, 304, -1,
                                303, 304, 330, -1, 306, 317, 305, -1,
                                307, 318, 317, -1, 307, 317, 306, -1,
                                302, 303, 330, -1, 308, 311, 318, -1,
                                308, 318, 307, -1, 300, 302, 330, -1,
                                301, 300, 330, -1, 334, 301, 330, -1,
                                335, 334, 330, -1, 336, 335, 330, -1,
                                337, 336, 330, -1, 309, 310, 311, -1,
                                309, 311, 308, -1, 331, 337, 330, -1,
                                331, 332, 333, -1, 331, 338, 337, -1,
                                331, 339, 338, -1, 331, 333, 339, -1,
                                340, 348, 341, -1, 341, 348, 342, -1,
                                342, 349, 343, -1, 348, 349, 342, -1,
                                343, 350, 344, -1, 349, 350, 343, -1,
                                344, 351, 345, -1, 345, 351, 346, -1,
                                350, 351, 344, -1, 351, 347, 346, -1,
                                357, 358, 359, -1, 356, 359, 360, -1,
                                356, 357, 359, -1, 354, 355, 356, -1,
                                353, 356, 360, -1, 353, 354, 356, -1,
                                363, 360, 361, -1, 363, 361, 362, -1,
                                352, 360, 363, -1, 352, 353, 360, -1,
                                364, 352, 363, -1, 368, 369, 352, -1,
                                366, 364, 365, -1, 366, 367, 368, -1,
                                366, 368, 352, -1, 366, 352, 364, -1,
                                379, 370, 371, -1, 380, 371, 372, -1,
                                380, 379, 371, -1, 381, 372, 373, -1,
                                381, 380, 372, -1, 382, 373, 374, -1,
                                382, 381, 373, -1, 383, 382, 374, -1,
                                384, 374, 375, -1, 384, 375, 376, -1,
                                384, 383, 374, -1, 385, 384, 376, -1,
                                378, 376, 377, -1, 378, 385, 376, -1,
                                393, 392, 394, -1, 392, 391, 394, -1,
                                391, 390, 394, -1, 389, 388, 390, -1,
                                390, 387, 394, -1, 388, 387, 390, -1,
                                394, 397, 395, -1, 395, 397, 396, -1,
                                394, 386, 397, -1, 387, 386, 394, -1,
                                397, 401, 398, -1, 398, 401, 399, -1,
                                402, 401, 403, -1, 403, 401, 386, -1,
                                386, 401, 397, -1, 401, 400, 399, -1,
                                411, 404, 405, -1, 412, 411, 405, -1,
                                413, 405, 406, -1, 413, 412, 405, -1,
                                414, 406, 407, -1, 414, 407, 408, -1,
                                414, 413, 406, -1, 415, 414, 408, -1,
                                410, 408, 409, -1, 410, 415, 408, -1,
                                418, 425, 426, -1, 420, 419, 418, -1,
                                423, 422, 421, -1, 424, 421, 420, -1,
                                424, 423, 421, -1, 417, 420, 418, -1,
                                417, 424, 420, -1, 427, 418, 426, -1,
                                416, 417, 418, -1, 416, 418, 427, -1,
                                429, 427, 428, -1, 429, 416, 427, -1,
                                431, 432, 433, -1, 430, 433, 416, -1,
                                430, 431, 433, -1, 430, 416, 429, -1,
                                434, 443, 435, -1, 435, 444, 436, -1,
                                443, 444, 435, -1, 436, 445, 437, -1,
                                444, 445, 436, -1, 437, 446, 438, -1,
                                445, 446, 437, -1, 438, 447, 439, -1,
                                446, 447, 438, -1, 439, 448, 440, -1,
                                447, 448, 439, -1, 440, 449, 441, -1,
                                448, 449, 440, -1, 449, 442, 441, -1,
                                453, 454, 452, -1, 454, 455, 452, -1,
                                457, 458, 456, -1, 456, 451, 455, -1,
                                455, 451, 452, -1, 458, 451, 456, -1,
                                452, 461, 459, -1, 459, 461, 460, -1,
                                451, 461, 452, -1, 451, 450, 461, -1,
                                450, 462, 461, -1, 466, 465, 467, -1,
                                462, 464, 463, -1, 467, 464, 450, -1,
                                450, 464, 462, -1, 465, 464, 467, -1,
                                468, 478, 469, -1, 477, 478, 468, -1,
                                469, 479, 470, -1, 478, 479, 469, -1,
                                470, 480, 471, -1, 479, 480, 470, -1,
                                471, 481, 472, -1, 480, 481, 471, -1,
                                472, 482, 473, -1, 481, 482, 472, -1,
                                473, 483, 474, -1, 474, 483, 475, -1,
                                482, 483, 473, -1, 483, 476, 475, -1,
                                494, 484, 485, -1, 494, 485, 486, -1,
                                494, 493, 484, -1, 495, 486, 487, -1,
                                495, 494, 486, -1, 496, 487, 488, -1,
                                496, 495, 487, -1, 497, 488, 489, -1,
                                497, 496, 488, -1, 498, 489, 490, -1,
                                498, 497, 489, -1, 499, 498, 490, -1,
                                492, 490, 491, -1, 492, 499, 490, -1,
                                507, 500, 501, -1, 508, 507, 501, -1,
                                509, 501, 502, -1, 509, 508, 501, -1,
                                510, 502, 503, -1, 510, 503, 504, -1,
                                510, 509, 502, -1, 511, 510, 504, -1,
                                506, 504, 505, -1, 506, 511, 504, -1,
                                560, 558, 559, -1, 561, 558, 560, -1,
                                556, 557, 558, -1, 512, 556, 558, -1,
                                512, 558, 561, -1, 555, 556, 512, -1,
                                513, 555, 512, -1, 515, 513, 514, -1,
                                516, 513, 515, -1, 518, 516, 517, -1,
                                518, 513, 516, -1, 520, 518, 519, -1,
                                520, 555, 513, -1, 520, 513, 518, -1,
                                543, 542, 541, -1, 539, 541, 540, -1,
                                538, 544, 543, -1, 538, 541, 539, -1,
                                538, 543, 541, -1, 537, 544, 538, -1,
                                551, 545, 552, -1, 549, 545, 551, -1,
                                549, 551, 550, -1, 546, 537, 538, -1,
                                546, 545, 549, -1, 546, 538, 545, -1,
                                546, 548, 547, -1, 546, 549, 548, -1,
                                521, 555, 520, -1, 554, 528, 527, -1,
                                554, 521, 528, -1, 554, 555, 521, -1,
                                526, 554, 527, -1, 525, 554, 526, -1,
                                524, 554, 525, -1, 523, 554, 524, -1,
                                522, 554, 523, -1, 530, 537, 546, -1,
                                553, 531, 530, -1, 553, 532, 531, -1,
                                553, 533, 532, -1, 553, 534, 533, -1,
                                553, 535, 534, -1, 553, 536, 535, -1,
                                553, 529, 536, -1, 553, 530, 546, -1,
                                553, 554, 522, -1, 553, 522, 529, -1,
                                562, 572, 563, -1, 563, 572, 564, -1,
                                571, 572, 562, -1, 564, 573, 565, -1,
                                572, 573, 564, -1, 565, 574, 566, -1,
                                573, 574, 565, -1, 566, 575, 567, -1,
                                574, 575, 566, -1, 567, 576, 568, -1,
                                575, 576, 567, -1, 568, 577, 569, -1,
                                576, 577, 568, -1, 577, 570, 569, -1,
                                625, 627, 626, -1, 623, 578, 624, -1,
                                624, 578, 625, -1, 625, 578, 627, -1,
                                622, 621, 623, -1, 623, 621, 578, -1,
                                621, 579, 578, -1, 579, 581, 580, -1,
                                579, 582, 581, -1, 582, 584, 583, -1,
                                579, 584, 582, -1, 584, 586, 585, -1,
                                621, 586, 579, -1, 579, 586, 584, -1,
                                608, 606, 607, -1, 606, 603, 605, -1,
                                609, 603, 608, -1, 610, 603, 609, -1,
                                608, 603, 606, -1, 603, 604, 605, -1,
                                617, 615, 616, -1, 618, 615, 617, -1,
                                618, 614, 615, -1, 618, 613, 614, -1,
                                618, 612, 613, -1, 604, 612, 611, -1,
                                611, 612, 618, -1, 603, 612, 604, -1,
                                621, 587, 586, -1, 594, 620, 593, -1,
                                587, 620, 594, -1, 621, 620, 587, -1,
                                620, 592, 593, -1, 620, 591, 592, -1,
                                620, 590, 591, -1, 620, 589, 590, -1,
                                620, 588, 589, -1, 603, 596, 612, -1,
                                597, 619, 596, -1, 598, 619, 597, -1,
                                599, 619, 598, -1, 600, 619, 599, -1,
                                601, 619, 600, -1, 602, 619, 601, -1,
                                595, 619, 602, -1, 596, 619, 612, -1,
                                620, 619, 588, -1, 588, 619, 595, -1,
                                631, 632, 630, -1, 632, 633, 630, -1,
                                633, 634, 630, -1, 634, 635, 630, -1,
                                636, 629, 635, -1, 635, 629, 630, -1,
                                628, 639, 629, -1, 630, 639, 637, -1,
                                637, 639, 638, -1, 629, 639, 630, -1,
                                628, 645, 639, -1, 639, 641, 640, -1,
                                645, 641, 639, -1, 641, 643, 642, -1,
                                644, 643, 645, -1, 645, 643, 641, -1,
                                646, 656, 647, -1, 647, 656, 648, -1,
                                655, 656, 646, -1, 648, 657, 649, -1,
                                656, 657, 648, -1, 649, 658, 650, -1,
                                657, 658, 649, -1, 650, 659, 651, -1,
                                658, 659, 650, -1, 651, 660, 652, -1,
                                659, 660, 651, -1, 660, 661, 652, -1,
                                652, 654, 653, -1, 661, 654, 652, -1,
                                666, 665, 664, -1, 669, 667, 666, -1,
                                669, 668, 667, -1, 670, 669, 666, -1,
                                663, 666, 664, -1, 663, 670, 666, -1,
                                673, 664, 671, -1, 673, 671, 672, -1,
                                662, 664, 673, -1, 662, 663, 664, -1,
                                679, 662, 673, -1, 678, 673, 674, -1,
                                678, 679, 673, -1, 676, 674, 675, -1,
                                676, 677, 678, -1, 676, 678, 674, -1,
                                687, 680, 681, -1, 688, 687, 681, -1,
                                689, 681, 682, -1, 689, 688, 681, -1,
                                690, 682, 683, -1, 690, 683, 684, -1,
                                690, 689, 682, -1, 691, 690, 684, -1,
                                686, 684, 685, -1, 686, 691, 684, -1,
                                702, 692, 693, -1, 702, 701, 692, -1,
                                703, 693, 694, -1, 703, 702, 693, -1,
                                704, 694, 695, -1, 704, 703, 694, -1,
                                705, 695, 696, -1, 705, 704, 695, -1,
                                706, 696, 697, -1, 706, 705, 696, -1,
                                707, 697, 698, -1, 707, 698, 699, -1,
                                707, 706, 697, -1, 700, 707, 699, -1,
                                718, 708, 709, -1, 718, 717, 708, -1,
                                719, 709, 710, -1, 719, 718, 709, -1,
                                720, 710, 711, -1, 720, 719, 710, -1,
                                721, 711, 712, -1, 721, 720, 711, -1,
                                722, 712, 713, -1, 722, 721, 712, -1,
                                723, 713, 714, -1, 723, 722, 713, -1,
                                716, 714, 715, -1, 716, 723, 714, -1,
                                725, 724, 726, -1, 725, 726, 727, -1,
                                728, 729, 730, -1, 730, 729, 731, -1,
                                732, 733, 734, -1, 734, 733, 735, -1,
                                746, 736, 737, -1, 746, 745, 736, -1,
                                747, 737, 738, -1, 747, 746, 737, -1,
                                748, 738, 739, -1, 748, 747, 738, -1,
                                749, 739, 740, -1, 749, 748, 739, -1,
                                750, 740, 741, -1, 750, 749, 740, -1,
                                751, 741, 742, -1, 751, 750, 741, -1,
                                744, 742, 743, -1, 744, 751, 742, -1,
                                752, 753, 754, -1, 754, 753, 755, -1,
                                756, 766, 757, -1, 757, 766, 758, -1,
                                758, 767, 759, -1, 766, 767, 758, -1,
                                759, 768, 760, -1, 767, 768, 759, -1,
                                760, 769, 761, -1, 761, 769, 762, -1,
                                768, 769, 760, -1, 769, 770, 762, -1,
                                762, 771, 763, -1, 763, 771, 764, -1,
                                770, 771, 762, -1, 771, 765, 764, -1,
                                772, 774, 773, -1, 772, 775, 774, -1,
                                776, 786, 777, -1, 777, 786, 778, -1,
                                778, 787, 779, -1, 779, 787, 780, -1,
                                786, 787, 778, -1, 787, 788, 780, -1,
                                780, 789, 781, -1, 781, 789, 782, -1,
                                788, 789, 780, -1, 782, 790, 783, -1,
                                789, 790, 782, -1, 790, 791, 783, -1,
                                783, 785, 784, -1, 791, 785, 783, -1,
                                792, 795, 794, -1, 792, 793, 795, -1,
                                796, 797, 798, -1, 798, 797, 799, -1,
                                810, 800, 801, -1, 810, 809, 800, -1,
                                811, 801, 802, -1, 811, 810, 801, -1,
                                812, 802, 803, -1, 812, 811, 802, -1,
                                813, 803, 804, -1, 813, 812, 803, -1,
                                814, 804, 805, -1, 814, 813, 804, -1,
                                815, 805, 806, -1, 815, 814, 805, -1,
                                808, 806, 807, -1, 808, 815, 806, -1,
                                816, 817, 818, -1, 818, 817, 819, -1 ]
                            ccw TRUE
                            solid FALSE
                            convex TRUE
                            creaseAngle 0

                          }

                        }

                    },
                      
                    DEF o9 Group {
                      children 
                        DEF o10 Shape {
                          appearance 
                          Appearance {
                            material 
                            Material {
                              diffuseColor 0 0 0
                              shininess 1

                            }

                          }
                          geometry 
                          IndexedLineSet {
                            coord 
                            USE o6
                            coordIndex [ 0, 1, -1, 0, 34, 35, 36, 37,
                                38, 39, 33, -1, 1, 2, 3, 4,
                                5, 6, 7, 8, -1, 32, 33, -1,
                                8, 9, -1, 32, 31, -1, 10, 9,
                                -1, 30, 31, -1, 11, 10, -1, 23,
                                24, 25, 26, 27, 28, 29, 30, -1,
                                12, 11, -1, 22, 23, -1, 13, 12,
                                -1, 15, 16, 17, 18, 19, 20, 21,
                                22, -1, 14, 13, -1, 15, 14, -1,
                                40, 41, -1, 40, 42, -1, 43, 41,
                                -1, 44, 45, 46, 47, 48, 49, 50,
                                51, -1, 51, 52, -1, 67, 68, -1,
                                69, 70, 71, 72, 73, 74, 75, 68,
                                -1, 76, 77, -1, 76, 93, 94, 95,
                                96, 92, -1, 91, 92, -1, 80, 81,
                                82, 79, -1, 90, 91, -1, 83, 84,
                                85, 86, 80, -1, 90, 87, -1, 87,
                                88, 89, 83, -1, 97, 98, -1, 98,
                                99, 100, 101, 102, 103, -1, 104, 103,
                                -1, 107, 108, 109, 110, 111, 106, -1,
                                105, 104, -1, 105, 106, -1, 132, 133,
                                134, 114, -1, 128, 129, 130, 131, 132,
                                -1, 125, 126, 127, 128, -1, 122, 125,
                                -1, 142, 143, 144, 145, 146, 141, -1,
                                140, 141, -1, 149, 147, -1, 149, 150,
                                -1, 150, 151, 152, 153, 154, 155, -1,
                                155, 156, -1, 158, 157, -1, 156, 157,
                                -1, 168, 169, -1, 195, 169, -1, 170,
                                171, 172, 173, 174, 168, -1, 194, 195,
                                -1, 175, 170, -1, 175, 176, 177, 178,
                                179, 180, -1, 181, 180, -1, 184, 185,
                                186, 187, 188, 183, -1, 182, 181, -1,
                                182, 183, -1, 196, 197, 198, 199, 200,
                                201, 202, 203, -1, 196, 205, -1, 219,
                                220, 221, 222, 223, 218, -1, 217, 218,
                                -1, 224, 225, -1, 224, 226, -1, 228,
                                229, -1, 228, 255, -1, 230, 231, 232,
                                233, 234, 229, -1, 255, 254, -1, 249,
                                250, 251, 252, 253, 254, -1, 244, 249,
                                -1, 240, 241, -1, 244, 245, 246, 247,
                                248, 243, -1, 241, 242, -1, 243, 242,
                                -1, 256, 257, 258, 259, 260, 261, 262,
                                263, -1, 256, 265, -1, 279, 280, 281,
                                282, 283, 278, -1, 277, 278, -1, 299,
                                294, -1, 290, 291, -1, 294, 295, 296,
                                297, 298, 293, -1, 291, 292, -1, 293,
                                292, -1, 309, 310, -1, 332, 331, -1,
                                329, 330, -1, 328, 327, -1, 346, 347,
                                -1, 352, 353, -1, 353, 354, 355, 356,
                                357, 358, 359, 360, -1, 363, 364, 365,
                                366, 367, 368, 369, 352, -1, 370, 371,
                                372, 373, 374, 375, 376, 377, -1, 377,
                                378, -1, 386, 387, -1, 387, 388, 389,
                                390, 391, 392, 393, 394, -1, 409, 410,
                                -1, 416, 417, -1, 418, 419, 420, 421,
                                422, 423, 424, 417, -1, 427, 428, 429,
                                430, 431, 432, 433, 416, -1, 434, 435,
                                436, 437, 438, 439, 440, 441, -1, 441,
                                442, -1, 450, 451, -1, 461, 462, 463,
                                464, 465, 466, 467, 450, -1, 468, 477,
                                -1, 491, 492, -1, 505, 506, -1, 512,
                                513, -1, 513, 514, 515, 516, 517, 518,
                                519, 520, -1, 555, 556, 557, 558, 559,
                                560, 561, 512, -1, 521, 520, -1, 522,
                                523, 524, 525, 526, 527, 528, 521, -1,
                                529, 522, -1, 530, 531, 532, 533, 534,
                                535, 536, 529, -1, 546, 547, 548, 549,
                                550, 551, 552, 545, -1, 537, 530, -1,
                                538, 545, -1, 538, 539, 540, 541, 542,
                                543, 544, 537, -1, 562, 563, 564, 565,
                                566, 567, 568, 569, -1, 569, 570, -1,
                                578, 579, -1, 579, 580, 581, 582, 583,
                                584, 585, 586, -1, 621, 622, 623, 624,
                                625, 626, 627, 578, -1, 587, 586, -1,
                                588, 589, 590, 591, 592, 593, 594, 587,
                                -1, 595, 588, -1, 596, 597, 598, 599,
                                600, 601, 602, 595, -1, 603, 596, -1,
                                604, 611, -1, 604, 605, 606, 607, 608,
                                609, 610, 603, -1, 628, 629, -1, 630,
                                631, 632, 633, 634, 635, 636, 629, -1,
                                639, 640, 641, 642, 643, 644, 645, 628,
                                -1, 653, 654, -1, 655, 656, 657, 658,
                                659, 660, 661, 654, -1, 662, 663, -1,
                                673, 674, 675, 676, 677, 678, 679, 662,
                                -1, 672, 671, -1, 699, 700, -1, 715,
                                716, -1, 733, 735, -1, 743, 744, -1,
                                752, 754, -1, 756, 757, -1, 772, 773,
                                -1, 776, 777, -1, 792, 794, -1, 798,
                                796, -1 ]

                          }

                        }

                    } ]

                },
                  
                DEF o11 Group {

                } ]

            }

        }

    }

}
