DBRep_DrawableShape

CASCADE Topology V1, (c) Matra-Datavision
Locations 286
1
              1               0               0               0 
              0               1               0               0 
              0               0               1               0 
1
              1               0               0               0 
              0               1               0               0 
              0               0               1               0 
1
              1               0               0               0 
              0               1               0               0 
              0               0               1               0 
1
              1               0               0               0 
              0               1               0               0 
              0               0               1               0 
1
              1               0               0               0 
              0               1               0               0 
              0               0               1               0 
1
              1               0               0               0 
              0               1               0               0 
              0               0               1               0 
1
              1               0               0               0 
              0               1               0               0 
              0               0               1               0 
1
              1               0               0               0 
              0               1               0               0 
              0               0               1               0 
1
              1               0               0               0 
              0               1               0               0 
              0               0               1               0 
1
              1               0               0               0 
              0               1               0               0 
              0               0               1               0 
1
              1               0               0               0 
              0               1               0               0 
              0               0               1               0 
1
              1               0               0               0 
              0               1               0               0 
              0               0               1               0 
1
              1               0               0               0 
              0               1               0               0 
              0               0               1               0 
1
              1               0               0               0 
              0               1               0               0 
              0               0               1               0 
1
              1               0               0               0 
              0               1               0               0 
              0               0               1               0 
2  2 1 3 -1 4 1 5 1 6 1 7 1 8 1 9 1 10 1 11 1 12 1 13 1 14 1 15 1 0
1
              1               0               0               0 
              0               1               0               0 
              0               0               1               0 
2  15 -1 14 -1 13 -1 12 -1 11 -1 10 -1 9 -1 8 -1 7 -1 6 -1 5 -1 4 -1 3 1 2 -1 0
1
              1               0               0               0 
              0               1               0               0 
              0               0               1               0 
1
              1               0               0               0 
              0               1               0               0 
              0               0               1               5 
1
              1               0               0               0 
              0               1               0               0 
              0               0               1               0 
1
              1               0               0              -0 
              0               1               0              -0 
              0               0               1              -5 
1
              1               0               0               0 
              0               1               0               0 
              0               0               1               0 
1
              1               0               0               0 
              0               1               0               0 
              0               0               1               0 
1
              1               0               0               0 
              0               1               0               0 
              0               0               1               0 
1
              1               0               0               0 
              0               1               0               0 
              0               0               1               0 
2  19 1 20 1 21 -1 22 1 23 1 24 -1 25 1 26 -1 17 1 2 1 3 -1 4 1 5 1 6 1 7 1 8 1 9 1 10 1 11 1 12 1 13 1 14 1 15 1 0
2  22 -1 21 1 20 -1 19 -1 0
2  26 1 25 -1 24 1 23 -1 22 -1 21 1 20 -1 19 -1 0
2  15 -1 14 -1 13 -1 12 -1 11 -1 10 -1 9 -1 8 -1 7 -1 6 -1 5 -1 4 -1 3 1 2 -1 17 -1 26 1 25 -1 24 1 23 -1 22 -1 21 1 20 -1 19 -1 0
2  14 -1 13 -1 12 -1 11 -1 10 -1 9 -1 8 -1 7 -1 6 -1 5 -1 4 -1 3 1 2 -1 17 -1 26 1 25 -1 24 1 23 -1 22 -1 21 1 20 -1 19 -1 0
2  17 1 2 1 3 -1 4 1 5 1 6 1 7 1 8 1 9 1 10 1 11 1 12 1 13 1 14 1 15 1 0
2  17 1 2 1 3 -1 4 1 5 1 6 1 7 1 8 1 9 1 10 1 11 1 12 1 13 1 14 1 0
2  25 1 26 -1 17 1 2 1 3 -1 4 1 5 1 6 1 7 1 8 1 9 1 10 1 11 1 12 1 13 1 14 1 15 1 0
2  26 1 25 -1 0
2  15 -1 14 -1 13 -1 12 -1 11 -1 10 -1 9 -1 8 -1 7 -1 6 -1 5 -1 4 -1 3 1 2 -1 17 -1 26 1 25 -1 0
2  17 -1 26 1 25 -1 0
2  14 -1 13 -1 12 -1 11 -1 10 -1 9 -1 8 -1 7 -1 6 -1 5 -1 4 -1 3 1 2 -1 17 -1 0
2  17 -1 0
1
              1               0               0               0 
              0               1               0               0 
              0               0               1               0 
1
              1               0               0               0 
              0               1               0               0 
              0               0               1               0 
1
              1               0               0               0 
              0               1               0               0 
              0               0               1               0 
1
              1               0               0               0 
              0               1               0               0 
              0               0               1               0 
1
              1               0               0               0 
              0               1               0               0 
              0               0               1               0 
1
              1               0               0               0 
              0               1               0               0 
              0               0               1               0 
1
              1               0               0               0 
              0               1               0               0 
              0               0               1               0 
1
              1               0               0               0 
              0               1               0               0 
              0               0               1               0 
1
              1               0               0               0 
              0               1               0               0 
              0               0               1               0 
1
              1               0               0               0 
              0               1               0               0 
              0               0               1               0 
1
              1               0               0               0 
              0               1               0               0 
              0               0               1               0 
1
              1               0               0               0 
              0               1               0               0 
              0               0               1               0 
2  40 1 41 1 42 1 43 1 44 -1 45 1 46 1 47 1 48 -1 49 1 50 1 51 1 21 -1 23 1 24 -1 25 1 26 -1 17 1 2 1 3 -1 4 1 5 1 6 1 7 1 8 1 9 1 10 1 11 1 12 1 13 1 14 1 15 1 0
2  45 -1 44 1 43 -1 42 -1 41 -1 40 -1 0
2  26 1 25 -1 24 1 23 -1 21 1 51 -1 50 -1 49 -1 48 1 47 -1 46 -1 45 -1 44 1 43 -1 42 -1 41 -1 40 -1 0
2  17 -1 26 1 25 -1 24 1 23 -1 21 1 51 -1 50 -1 49 -1 48 1 47 -1 46 -1 45 -1 44 1 43 -1 42 -1 41 -1 40 -1 0
1
              1               0               0               0 
              0               1               0               0 
              0               0               1               0 
1
             -1               0               0               0 
              0               0               1             150 
              0               1              -0               0 
1
              1               0               0               0 
              0               1               0               0 
              0               0               1               0 
1
              1               0               0               0 
              0               1               0               0 
              0               0               1               0 
1
              1               0               0               0 
              0               1               0               0 
              0               0               1               0 
1
              1               0               0               0 
              0               1               0              50 
              0               0               1               0 
2  56 1 57 1 58 1 59 1 60 1 26 -1 61 1 17 1 2 1 3 -1 4 1 5 1 6 1 7 1 8 1 9 1 10 1 11 1 12 1 13 1 14 1 15 1 0
2  58 -1 57 -1 56 -1 0
2  61 -1 26 1 60 -1 59 -1 58 -1 57 -1 56 -1 0
2  17 -1 61 -1 26 1 60 -1 59 -1 58 -1 57 -1 56 -1 0
2  13 -1 12 -1 11 -1 10 -1 9 -1 8 -1 7 -1 6 -1 5 -1 4 -1 3 1 2 -1 17 -1 26 1 25 -1 0
2  14 1 15 1 0
2  17 1 2 1 3 -1 4 1 5 1 6 1 7 1 8 1 9 1 10 1 11 1 12 1 13 1 0
2  46 -1 45 -1 44 1 43 -1 42 -1 41 -1 40 -1 0
2  13 -1 12 -1 11 -1 10 -1 9 -1 8 -1 7 -1 6 -1 5 -1 4 -1 3 1 2 -1 17 -1 26 1 25 -1 24 1 23 -1 22 -1 21 1 20 -1 19 -1 0
2  12 -1 11 -1 10 -1 9 -1 8 -1 7 -1 6 -1 5 -1 4 -1 3 1 2 -1 17 -1 26 1 25 -1 24 1 23 -1 22 -1 21 1 20 -1 19 -1 0
2  13 1 14 1 15 1 0
2  17 1 2 1 3 -1 4 1 5 1 6 1 7 1 8 1 9 1 10 1 11 1 12 1 0
2  12 -1 11 -1 10 -1 9 -1 8 -1 7 -1 6 -1 5 -1 4 -1 3 1 2 -1 17 -1 0
2  23 1 24 -1 25 1 26 -1 0
2  15 -1 14 -1 13 -1 12 -1 11 -1 10 -1 9 -1 8 -1 7 -1 6 -1 5 -1 4 -1 3 1 2 -1 17 -1 0
2  19 1 20 1 21 -1 23 1 24 -1 25 1 26 -1 17 1 2 1 3 -1 4 1 5 1 6 1 7 1 8 1 9 1 10 1 11 1 12 1 13 1 14 1 15 1 0
2  21 1 20 -1 19 -1 0
2  26 1 25 -1 24 1 23 -1 21 1 20 -1 19 -1 0
2  15 -1 14 -1 13 -1 12 -1 11 -1 10 -1 9 -1 8 -1 7 -1 6 -1 5 -1 4 -1 3 1 2 -1 17 -1 26 1 25 -1 24 1 23 -1 21 1 20 -1 19 -1 0
2  14 -1 13 -1 12 -1 11 -1 10 -1 9 -1 8 -1 7 -1 6 -1 5 -1 4 -1 3 1 2 -1 17 -1 26 1 25 -1 24 1 23 -1 21 1 20 -1 19 -1 0
2  23 1 24 -1 25 1 26 -1 17 1 2 1 3 -1 4 1 5 1 6 1 7 1 8 1 9 1 10 1 11 1 12 1 13 1 14 1 15 1 0
2  23 1 24 -1 25 1 26 -1 17 1 2 1 3 -1 4 1 5 1 6 1 7 1 8 1 9 1 10 1 11 1 12 1 13 1 14 1 0
2  4 1 5 1 6 1 7 1 8 1 9 1 10 1 11 1 12 1 13 1 14 1 0
2  46 1 47 1 48 -1 49 1 50 1 51 1 21 -1 23 1 24 -1 0
1
              1               0               0               0 
              0 0.342020143325669 -0.939692620785908 140.992897542725 
              0 0.939692620785908 0.342020143325669 -181.358725590438 
2  86 1 46 1 47 1 48 -1 49 1 50 1 51 1 21 -1 23 1 24 -1 0
2  24 1 23 -1 0
2  46 1 47 1 48 -1 49 1 50 1 51 1 21 -1 0
2  17 -1 26 1 25 -1 24 1 23 -1 0
2  50 1 51 1 21 -1 23 1 24 -1 25 1 26 -1 17 1 2 1 3 -1 4 1 5 1 6 1 7 1 8 1 9 1 10 1 11 1 12 1 13 1 14 1 15 1 0
2  24 1 23 -1 21 1 51 -1 50 -1 0
2  17 -1 26 1 25 -1 24 1 23 -1 21 1 51 -1 50 -1 0
2  49 1 50 1 51 1 21 -1 23 1 24 -1 25 1 26 -1 17 1 2 1 3 -1 4 1 5 1 6 1 7 1 8 1 9 1 10 1 11 1 12 1 13 1 14 1 15 1 0
2  24 1 23 -1 21 1 51 -1 50 -1 49 -1 0
2  46 1 47 1 48 -1 0
2  17 -1 26 1 25 -1 24 1 23 -1 21 1 51 -1 50 -1 49 -1 0
1
              1               0               0               0 
              0               1               0               0 
              0               0               1               0 
1
              1               0               0               0 
              0 0.342020143325669 -0.939692620785909 178.088969367395 
              0 0.939692620785909 0.342020143325669 -64.8190839008772 
1
              1               0               0               0 
              0               1               0 4.69846310392954 
              0               0               1 -1.71010071662834 
2  98 1 99 1 48 -1 100 1 49 1 50 1 51 1 21 -1 23 1 24 -1 25 1 26 -1 17 1 2 1 3 -1 4 1 5 1 6 1 7 1 8 1 9 1 10 1 11 1 12 1 13 1 14 1 15 1 0
2  24 1 23 -1 21 1 51 -1 50 -1 49 -1 100 -1 48 1 99 -1 98 -1 0
1
              1               0               0               0 
              0               1               0               0 
              0               0               1              -5 
2  103 1 86 1 46 1 47 1 48 -1 100 -1 48 1 99 -1 98 -1 0
2  17 -1 26 1 25 -1 24 1 23 -1 21 1 51 -1 50 -1 49 -1 100 -1 48 1 99 -1 98 -1 0
2  4 1 5 1 6 1 7 1 8 1 9 1 10 1 11 1 12 1 13 1 14 1 15 1 0
2  14 -1 13 -1 12 -1 11 -1 10 -1 9 -1 8 -1 7 -1 6 -1 5 -1 4 -1 0
2  2 1 3 -1 4 1 5 1 6 1 7 1 8 1 9 1 10 1 11 1 12 1 13 1 14 1 0
1
              1               0               0               0 
              0               1               0               0 
              0               0               1               5 
1
              1               0               0               0 
              0 0.342020143325669 0.939692620785908 136.294434438796 
              0 -0.939692620785908 0.342020143325669 184.64862487381 
2  109 1 110 1 2 1 3 -1 4 1 5 1 6 1 7 1 8 1 9 1 10 1 11 1 12 1 13 1 14 1 0
2  10 -1 9 -1 8 -1 7 -1 6 -1 5 -1 4 -1 3 1 2 -1 110 -1 109 -1 0
2  110 -1 109 -1 0
2  11 1 12 1 13 1 14 1 0
2  4 1 5 1 6 1 7 1 8 1 9 1 10 1 0
2  110 1 2 1 3 -1 4 1 5 1 6 1 7 1 8 1 9 1 10 1 11 1 12 1 13 1 14 1 0
2  10 -1 9 -1 8 -1 7 -1 6 -1 5 -1 4 -1 3 1 2 -1 110 -1 0
2  110 -1 0
2  40 1 41 1 42 1 43 1 44 -1 45 1 46 1 47 1 48 -1 49 1 50 1 51 1 21 -1 23 1 24 -1 0
2  23 1 24 -1 0
2  49 1 50 1 51 1 21 -1 23 1 24 -1 0
1
              1               0               0               0 
              0 0.342020143325669 -0.939692620785908 140.992897542725 
              0 0.939692620785908 0.342020143325669 -181.358725590438 
2  122 1 46 1 47 1 48 -1 49 1 50 1 51 1 21 -1 23 1 24 -1 0
2  103 1 86 1 122 -1 0
2  122 -1 0
2  17 -1 26 1 25 -1 24 1 23 -1 21 1 51 -1 50 -1 49 -1 48 1 47 -1 46 -1 122 -1 0
2  56 1 57 1 58 1 59 1 60 1 26 -1 61 1 17 1 0
1
              1               0               0               0 
              0 0.342020143325669 0.939692620785908 136.294434438796 
              0 -0.939692620785908 0.342020143325669 184.64862487381 
2  128 -1 0
2  25 1 26 -1 17 1 2 1 3 -1 4 1 5 1 6 1 7 1 8 1 9 1 10 1 11 1 12 1 13 1 0
2  23 1 24 -1 25 1 26 -1 17 1 2 1 3 -1 4 1 5 1 6 1 7 1 8 1 9 1 10 1 11 1 12 1 13 1 0
2  49 1 50 1 51 1 21 -1 23 1 24 -1 25 1 26 -1 17 1 2 1 3 -1 4 1 5 1 6 1 7 1 8 1 9 1 10 1 11 1 12 1 13 1 0
2  98 1 99 1 48 -1 100 1 49 1 50 1 51 1 21 -1 23 1 24 -1 25 1 26 -1 17 1 2 1 3 -1 4 1 5 1 6 1 7 1 8 1 9 1 10 1 11 1 12 1 13 1 0
2  51 1 21 -1 23 1 24 -1 25 1 26 -1 17 1 2 1 3 -1 4 1 5 1 6 1 7 1 8 1 9 1 10 1 11 1 12 1 13 1 0
2  24 1 23 -1 21 1 51 -1 0
2  17 -1 26 1 25 -1 24 1 23 -1 21 1 51 -1 0
2  8 -1 7 -1 6 -1 5 -1 4 -1 0
2  109 1 110 1 2 1 3 -1 4 1 5 1 6 1 7 1 8 1 0
2  8 -1 7 -1 6 -1 5 -1 4 -1 3 1 2 -1 110 -1 109 -1 0
2  4 1 5 1 6 1 7 1 8 1 0
2  2 1 3 -1 4 1 5 1 6 1 7 1 8 1 0
2  110 1 2 1 3 -1 4 1 5 1 6 1 7 1 8 1 0
2  8 -1 7 -1 6 -1 5 -1 4 -1 3 1 2 -1 110 -1 0
2  17 1 2 1 3 -1 4 1 5 1 6 1 7 1 8 1 0
2  47 1 48 -1 49 1 50 1 51 1 21 -1 23 1 24 -1 25 1 26 -1 17 1 2 1 3 -1 4 1 5 1 6 1 7 1 8 1 0
2  26 1 25 -1 24 1 23 -1 21 1 51 -1 50 -1 49 -1 48 1 47 -1 0
2  17 -1 26 1 25 -1 24 1 23 -1 21 1 51 -1 50 -1 49 -1 48 1 47 -1 0
1
              1               0               0               0 
              0               1               0               0 
              0               0               1               5 
1
              1               0               0               0 
              0 0.342020143325669 -0.939692620785908 -136.294434438796 
              0 0.939692620785908 0.342020143325669 184.64862487381 
2  148 1 149 1 47 1 48 -1 49 1 50 1 51 1 21 -1 23 1 24 -1 25 1 26 -1 17 1 2 1 3 -1 4 1 5 1 6 1 7 1 8 1 0
2  26 1 25 -1 24 1 23 -1 21 1 51 -1 50 -1 49 -1 48 1 47 -1 149 -1 148 -1 0
2  6 -1 5 -1 4 -1 3 1 2 -1 17 -1 26 1 25 -1 24 1 23 -1 21 1 51 -1 50 -1 49 -1 48 1 47 -1 149 -1 148 -1 0
2  17 -1 26 1 25 -1 24 1 23 -1 21 1 51 -1 50 -1 49 -1 48 1 47 -1 149 -1 148 -1 0
2  7 1 8 1 0
2  4 1 5 1 6 1 0
2  149 1 47 1 48 -1 49 1 50 1 51 1 21 -1 23 1 24 -1 25 1 26 -1 17 1 2 1 3 -1 4 1 5 1 6 1 7 1 8 1 0
2  26 1 25 -1 24 1 23 -1 21 1 51 -1 50 -1 49 -1 48 1 47 -1 149 -1 0
2  6 -1 5 -1 4 -1 3 1 2 -1 17 -1 26 1 25 -1 24 1 23 -1 21 1 51 -1 50 -1 49 -1 48 1 47 -1 149 -1 0
2  17 -1 26 1 25 -1 24 1 23 -1 21 1 51 -1 50 -1 49 -1 48 1 47 -1 149 -1 0
2  47 1 48 -1 49 1 50 1 51 1 21 -1 23 1 24 -1 25 1 26 -1 17 1 2 1 3 -1 4 1 5 1 6 1 7 1 8 1 9 1 10 1 11 1 12 1 13 1 14 1 15 1 0
2  40 1 41 1 42 1 43 1 44 -1 45 1 46 1 0
1
              1               0               0               0 
              0 0.342020143325669 -0.939692620785908 -136.294434438796 
              0 0.939692620785908 0.342020143325669 184.64862487381 
2  162 -1 0
2  149 1 162 -1 0
2  17 -1 26 1 25 -1 24 1 23 -1 21 1 51 -1 50 -1 49 -1 48 1 47 -1 162 -1 0
2  13 -1 12 -1 11 -1 10 -1 9 -1 8 -1 7 -1 6 -1 5 -1 4 -1 3 1 2 -1 17 -1 0
2  19 1 20 1 21 -1 23 1 24 -1 25 1 26 -1 17 1 2 1 3 -1 4 1 5 1 6 1 7 1 8 1 9 1 10 1 11 1 12 1 13 1 0
2  13 -1 12 -1 11 -1 10 -1 9 -1 8 -1 7 -1 6 -1 5 -1 4 -1 3 1 2 -1 17 -1 26 1 25 -1 24 1 23 -1 21 1 20 -1 19 -1 0
2  12 -1 11 -1 10 -1 9 -1 8 -1 7 -1 6 -1 5 -1 4 -1 3 1 2 -1 17 -1 26 1 25 -1 24 1 23 -1 21 1 20 -1 19 -1 0
2  23 1 24 -1 25 1 26 -1 17 1 2 1 3 -1 4 1 5 1 6 1 7 1 8 1 9 1 10 1 11 1 12 1 0
2  19 1 20 1 21 -1 22 1 23 1 24 -1 25 1 26 -1 17 1 2 1 3 -1 4 1 5 1 6 1 7 1 8 1 9 1 10 1 11 1 12 1 13 1 0
2  11 -1 10 -1 9 -1 8 -1 7 -1 6 -1 5 -1 4 -1 0
1
              1               0               0               0 
              0 0.342020143325669 0.939692620785908 136.294434438796 
              0 -0.939692620785908 0.342020143325669 184.64862487381 
2  173 1 2 1 3 -1 4 1 5 1 6 1 7 1 8 1 9 1 10 1 11 1 0
2  11 -1 10 -1 9 -1 8 -1 7 -1 6 -1 5 -1 4 -1 3 1 2 -1 173 -1 0
2  173 -1 0
2  4 1 5 1 6 1 7 1 8 1 9 1 10 1 11 1 0
2  2 1 3 -1 4 1 5 1 6 1 7 1 8 1 9 1 10 1 11 1 0
1
              1               0               0               0 
              0               1               0               0 
              0               0               1               5 
2  179 1 173 1 2 1 3 -1 4 1 5 1 6 1 7 1 8 1 9 1 10 1 11 1 0
2  11 -1 10 -1 9 -1 8 -1 7 -1 6 -1 5 -1 4 -1 3 1 2 -1 173 -1 179 -1 0
2  173 -1 179 -1 0
2  17 1 2 1 3 -1 4 1 5 1 6 1 7 1 8 1 9 1 10 1 11 1 0
2  47 1 48 -1 49 1 50 1 51 1 21 -1 23 1 24 -1 25 1 26 -1 17 1 2 1 3 -1 4 1 5 1 6 1 7 1 8 1 9 1 10 1 11 1 0
2  149 1 47 1 48 -1 49 1 50 1 51 1 21 -1 23 1 24 -1 25 1 26 -1 17 1 2 1 3 -1 4 1 5 1 6 1 7 1 8 1 9 1 10 1 11 1 0
2  5 -1 4 -1 3 1 2 -1 17 -1 26 1 25 -1 24 1 23 -1 21 1 51 -1 50 -1 49 -1 48 1 47 -1 149 -1 0
2  6 1 7 1 8 1 9 1 10 1 11 1 0
2  4 1 5 1 0
2  148 1 149 1 47 1 48 -1 49 1 50 1 51 1 21 -1 23 1 24 -1 25 1 26 -1 17 1 2 1 3 -1 4 1 5 1 6 1 7 1 8 1 9 1 10 1 11 1 0
2  5 -1 4 -1 3 1 2 -1 17 -1 26 1 25 -1 24 1 23 -1 21 1 51 -1 50 -1 49 -1 48 1 47 -1 149 -1 148 -1 0
2  4 1 5 1 6 1 7 1 8 1 9 1 10 1 11 1 12 1 0
1
              1               0               0               0 
              0 0.342020143325669 0.939692620785908 136.294434438796 
              0 -0.939692620785908 0.342020143325669 184.64862487381 
2  192 -1 0
2  12 -1 11 -1 10 -1 9 -1 8 -1 7 -1 6 -1 5 -1 4 -1 0
2  2 1 3 -1 4 1 5 1 6 1 7 1 8 1 9 1 10 1 11 1 12 1 0
2  173 1 2 1 3 -1 4 1 5 1 6 1 7 1 8 1 9 1 10 1 11 1 12 1 0
2  9 -1 8 -1 7 -1 6 -1 5 -1 4 -1 3 1 2 -1 173 -1 0
2  10 1 11 1 12 1 0
2  4 1 5 1 6 1 7 1 8 1 9 1 0
2  179 1 173 1 2 1 3 -1 4 1 5 1 6 1 7 1 8 1 9 1 10 1 11 1 12 1 0
2  9 -1 8 -1 7 -1 6 -1 5 -1 4 -1 3 1 2 -1 173 -1 179 -1 0
1
              1               0               0               0 
              0               1               0               0 
              0               0               1               5 
2  40 1 41 1 42 1 43 1 44 -1 202 1 45 1 46 1 47 1 48 -1 49 1 50 1 51 1 21 -1 23 1 24 -1 25 1 26 -1 17 1 2 1 3 -1 4 1 5 1 6 1 7 1 8 1 9 1 10 1 11 1 12 1 13 1 14 1 15 1 0
2  45 -1 202 -1 44 1 43 -1 42 -1 41 -1 40 -1 0
2  26 1 25 -1 24 1 23 -1 21 1 51 -1 50 -1 49 -1 48 1 47 -1 46 -1 45 -1 202 -1 44 1 43 -1 42 -1 41 -1 40 -1 0
2  17 -1 26 1 25 -1 24 1 23 -1 21 1 51 -1 50 -1 49 -1 48 1 47 -1 46 -1 45 -1 202 -1 44 1 43 -1 42 -1 41 -1 40 -1 0
2  46 -1 45 -1 202 -1 44 1 43 -1 42 -1 41 -1 40 -1 0
2  40 1 41 1 42 1 43 1 44 -1 202 1 45 1 46 1 47 1 48 -1 49 1 50 1 51 1 21 -1 23 1 24 -1 0
2  86 1 122 -1 0
2  17 -1 26 1 25 -1 24 1 23 -1 21 1 51 -1 50 -1 49 -1 48 1 47 -1 46 -1 86 -1 0
2  51 1 21 -1 23 1 24 -1 0
2  86 1 46 1 47 1 48 -1 49 1 50 1 0
2  50 1 51 1 21 -1 23 1 24 -1 0
2  86 1 46 1 47 1 48 -1 49 1 0
2  103 1 86 1 46 1 47 1 48 -1 49 1 0
2  103 1 86 1 46 1 47 1 48 -1 0
2  50 -1 49 -1 0
2  103 1 86 1 46 1 47 1 48 -1 49 1 50 1 0
2  103 -1 0
2  17 -1 26 1 25 -1 24 1 23 -1 21 1 51 -1 50 -1 49 -1 48 1 47 -1 46 -1 86 -1 103 -1 0
2  98 1 99 1 48 -1 100 1 49 1 50 1 0
2  122 1 46 1 47 1 48 -1 49 1 50 1 0
2  109 1 110 1 0
2  10 -1 9 -1 8 -1 7 -1 6 -1 5 -1 4 -1 3 1 2 -1 0
2  109 1 110 1 2 1 3 -1 4 1 5 1 6 1 7 1 8 1 9 1 10 1 0
2  9 1 10 1 0
2  128 1 2 1 3 -1 4 1 5 1 6 1 7 1 8 1 9 1 10 1 0
2  11 1 12 1 13 1 14 1 15 1 0
2  110 1 2 1 3 -1 4 1 5 1 6 1 7 1 8 1 9 1 10 1 0
2  51 1 21 -1 23 1 24 -1 25 1 26 -1 17 1 2 1 3 -1 4 1 5 1 6 1 7 1 8 1 9 1 10 1 11 1 12 1 13 1 14 1 15 1 0
2  9 1 10 1 11 1 12 1 13 1 14 1 15 1 0
2  40 1 41 1 42 1 43 1 44 -1 202 1 45 1 46 1 0
2  148 1 149 1 162 -1 0
2  148 1 149 1 47 1 48 -1 49 1 50 1 51 1 21 -1 23 1 24 -1 25 1 26 -1 17 1 2 1 3 -1 0
2  7 -1 6 -1 5 -1 4 -1 0
2  148 1 149 1 47 1 48 -1 49 1 50 1 51 1 21 -1 23 1 24 -1 25 1 26 -1 17 1 2 1 3 -1 4 1 5 1 6 1 7 1 0
2  148 -1 0
2  7 -1 6 -1 5 -1 4 -1 3 1 2 -1 17 -1 26 1 25 -1 24 1 23 -1 21 1 51 -1 50 -1 49 -1 48 1 47 -1 149 -1 148 -1 0
2  6 1 7 1 0
2  148 1 149 1 47 1 48 -1 49 1 50 1 51 1 21 -1 23 1 24 -1 25 1 26 -1 17 1 2 1 3 -1 4 1 5 1 0
1
              1               0               0               0 
              0               1               0               0 
              0               0               1               0 
1
              1               0               0               0 
              0 0.342020143325669 -0.939692620785909 -184.394401495541 
              0 0.939692620785909 0.342020143325669 67.1140735097081 
2  241 1 242 1 3 -1 4 1 5 1 6 1 7 1 0
2  7 -1 6 -1 5 -1 4 -1 3 1 242 -1 241 -1 0
2  3 1 242 -1 241 -1 0
1
              1               0               0               0 
              0               1               0 4.69846310392954 
              0               0               1 -1.71010071662834 
2  246 -1 3 1 242 -1 241 -1 0
2  162 1 47 1 48 -1 49 1 50 1 51 1 21 -1 23 1 24 -1 25 1 26 -1 17 1 2 1 3 -1 4 1 5 1 6 1 7 1 0
2  148 1 149 1 47 1 48 -1 49 1 50 1 51 1 21 -1 23 1 24 -1 25 1 26 -1 17 1 2 1 3 -1 4 1 5 1 6 1 0
2  4 -1 3 1 242 -1 241 -1 0
2  4 -1 3 1 2 -1 17 -1 26 1 25 -1 24 1 23 -1 21 1 51 -1 50 -1 49 -1 48 1 47 -1 149 -1 148 -1 0
2  5 1 6 1 7 1 0
2  148 1 149 1 47 1 48 -1 49 1 50 1 51 1 21 -1 23 1 24 -1 25 1 26 -1 17 1 2 1 3 -1 4 1 0
2  7 1 8 1 9 1 10 1 11 1 12 1 13 1 14 1 15 1 0
2  149 1 47 1 48 -1 49 1 50 1 51 1 21 -1 23 1 24 -1 25 1 26 -1 17 1 2 1 3 -1 4 1 5 1 6 1 0
2  149 1 47 1 48 -1 49 1 50 1 51 1 21 -1 23 1 24 -1 25 1 26 -1 17 1 2 1 3 -1 0
2  149 1 47 1 48 -1 49 1 50 1 51 1 21 -1 23 1 24 -1 25 1 26 -1 17 1 2 1 3 -1 4 1 5 1 6 1 7 1 0
2  7 -1 6 -1 5 -1 4 -1 3 1 2 -1 17 -1 26 1 25 -1 24 1 23 -1 21 1 51 -1 50 -1 49 -1 48 1 47 -1 149 -1 0
2  149 1 47 1 48 -1 49 1 50 1 51 1 21 -1 23 1 24 -1 25 1 26 -1 17 1 2 1 3 -1 4 1 5 1 0
2  241 1 242 1 3 -1 246 1 4 1 5 1 6 1 7 1 0
2  7 -1 6 -1 5 -1 4 -1 246 -1 3 1 242 -1 241 -1 0
2  4 -1 246 -1 3 1 242 -1 241 -1 0
2  4 -1 3 1 2 -1 17 -1 26 1 25 -1 24 1 23 -1 21 1 51 -1 50 -1 49 -1 48 1 47 -1 149 -1 0
2  149 1 47 1 48 -1 49 1 50 1 51 1 21 -1 23 1 24 -1 25 1 26 -1 17 1 2 1 3 -1 4 1 0
2  11 -1 10 -1 9 -1 8 -1 7 -1 6 -1 5 -1 4 -1 3 1 2 -1 0
2  10 1 11 1 0
2  173 1 2 1 3 -1 4 1 5 1 6 1 7 1 8 1 9 1 0
2  192 1 2 1 3 -1 4 1 5 1 6 1 7 1 8 1 9 1 10 1 11 1 0
2  12 1 13 1 14 1 15 1 0
2  179 1 173 1 0
2  179 1 173 1 2 1 3 -1 4 1 5 1 6 1 7 1 8 1 9 1 0
2  6 1 7 1 8 1 9 1 10 1 11 1 12 1 13 1 14 1 15 1 0
2  10 1 11 1 12 1 13 1 14 1 15 1 0
2  86 1 46 1 47 1 48 -1 0
2  110 1 2 1 3 -1 4 1 5 1 6 1 7 1 8 1 9 1 10 1 11 1 12 1 13 1 14 1 15 1 0
2  8 1 9 1 10 1 11 1 12 1 13 1 14 1 15 1 0
2  4 1 5 1 6 1 7 1 0
2  241 1 242 1 3 -1 0
2  241 1 242 1 3 -1 246 1 0
2  4 -1 0
2  241 1 242 1 3 -1 4 1 0
2  241 1 242 1 3 -1 246 1 4 1 0
2  6 -1 5 -1 4 -1 0
2  5 1 6 1 0
2  5 1 6 1 7 1 8 1 9 1 10 1 11 1 12 1 13 1 14 1 15 1 0
2  173 1 2 1 3 -1 4 1 5 1 6 1 7 1 8 1 9 1 10 1 11 1 12 1 13 1 14 1 15 1 0
Curve2ds 252
1 0 -5 1 0 
1 -140 131.11111111111111 -1 0 
1 -3.1415926535897931 5 1 0 
2 -144.90000000000003 136.01111111111112 0 1 -1 0 4.9000000000000004
1 0 0 1 0 
2 -145.09999999999999 136.01111111111112 0 -1 -1 -0 4.9000000000000004
1 -195.37077106866164 22.237429299993948 0 1 
1 -140 231.11111111111111 0 -1 
1 0 0 2.2e-16 -1 
1 -150 131.11111111111111 0 1 
8 0 400
1 0 0 0 1 
1 -200 181.11111111111111 1 0 
1 -2.5 200 0 -1 
1 -200 181.11111111111111 1 0 
8 0 50
1 0 50 -0 -1 
1 195.37077106866175 122.23742929999406 0 -1 
1 140 131.11111111111111 0 1 
1 -200 131.11111111111111 0 1 
1 108.8710882085625 -298.80284349966473 0 -1 
1 -3.1415926535897931 5 1 0 
2 144.90000000000009 136.01111111111112 0 1 1 -0 4.9000000000000004
1 200 -218.88888888888889 -1 0 
8 0 400
1 0 400 -0 -1 
1 0 -5 1 0 
1 200 131.11111111111111 -1 0 
1 200 181.11111111111111 0 -1 
1 -108.87108820856251 -348.80284349966473 0 1 
1 -1.5707963267948966 5 1 0 
2 145.09999999999997 136.01111111111112 0 1 1 -0 4.9000000000000004
1 -2.5 -150 0 -1 
1 150 181.11111111111111 1 0 
8 0 50
1 0 50 -0 -1 
1 5 -1.1100000000000001e-15 -2.2e-16 -1 
1 150 131.11111111111111 0 1 
1 0 0 1 0 
1 140 131.11111111111111 1 0 
1 0 0 0 1 
1 4.9000000000000341 0 -0 -1 
1 0 0 0 1 
1 5.0999999999999943 -4.9999999999999991 0 1 
1 -3.1415926535897931 0 1 0 
2 144.90000000000003 136.01111111111112 0 1 1 -0 4.9000000000000004
1 1.5707963267948966 0 0 1 
1 -190.37077106866164 117.33742929999394 -1 0 
1 1.5707963267948966 0 0 1 
1 -185.73966736265476 115.58746828546791 -1 -2.2e-16 
1 0 5 1 0 
2 145.09999999999999 136.01111111111112 0 -1 1 0 4.9000000000000004
1 -190.37077106866164 22.237429299993948 0 1 
1 140 231.11111111111111 0 -1 
2 -185.37077106866164 72.237429299993948 -1 0 -0 -1 5
1 0 340 1 0 
1 140 475.70008281805565 0 -1 
1 491.56424165918804 -179.46765472793555 -0.93969262078590854 0.34202014332566855 
2 -185.37077106866164 72.237429299993948 -1 0 0 1 10
1 6.2831853071795862 60 -1 0 
1 0 0 0 1 
1 236.88783449285623 -92.093912011910618 0.34202014332566893 0.93969262078590843 
2 -185.37077106866164 72.237429299993948 -1 0 0 1 10
1 6.2831853071795862 60 -1 0 
1 489.85414094255975 -184.16611783186505 -0.93969262078590854 0.34202014332566855 
1 140 475.70008281805565 0 -1 
2 -185.37077106866164 72.237429299993948 -1 0 0 1 10
1 6.2831853071795862 60 -1 0 
1 5 1.1100000000000001e-15 2.2e-16 -1 
1 150 131.11111111111111 0 1 
1 0 50 1 0 
2 0 0 1 0 -0 1 10
1 0 0 1 0 
2 0 0 1 0 -0 1 5
1 0 0 0 1 
1 229.13364960370285 -84.015107772622287 -0.34202014332566893 -0.93969262078590843 
2 185.37077106866175 72.237429299994062 1 0 -0 1 10
1 6.2831853071795862 340 -1 0 
2 185.37077106866175 72.237429299994062 1 0 -0 1 10
1 6.2831853071795862 340 -1 0 
2 185.37077106866175 72.237429299994062 1 0 -0 1 10
1 6.2831853071795862 340 -1 0 
1 200 -246.49896230895152 -1 0 
1 1.2217304763960306 0 0 1 
1 0 50 1 0 
2 0 0 -1 0 0 1 5
1 0 0 0 1 
1 1.2217304763960306 0 0 1 
1 1.5707963267948966 0 0 1 
1 190.37077106866175 117.33742929999406 1 0 
1 190.37077106866175 122.23742929999406 0 -1 
1 -140 131.11111111111111 0 1 
2 185.37077106866175 72.237429299994062 1 0 0 -1 5
1 0 60 1 0 
1 -140 -424.29991718194435 0 1 
1 354.15911704812981 128.35047426516627 -0.93969262078590854 -0.34202014332566855 
1 355.86921776475816 123.65201116123671 -0.93969262078590854 -0.34202014332566855 
1 -140 -424.29991718194435 0 1 
1 1.5707963267948966 0 0 1 
1 -238.59793520948446 -87.395448907981176 0.34202014332566893 -0.93969262078590843 
1 0 0 0 1 
1 -271.54954914618293 -354.50257605809026 0.34202014332566893 -0.93969262078590843 
2 0 0 -1 0 0 1 10
1 0 0 1 0 
1 200 -218.88888888888889 0 1 
1 113.8710882085625 51.197156500335296 0 -1 
1 0 400 1 0 
2 103.8710882085625 51.197156500335296 1 0 -0 1 10
1 200 -221.49896230895155 0 1 
1 -308.99059114509635 212.1082963789834 0.93969262078590843 -0.34202014332566893 
1 0 0 1 0 
2 103.8710882085625 51.197156500335296 1 0 -0 1 5
1 0 0 0 1 
1 -271.54954914618293 354.50257605809026 0.34202014332566893 0.93969262078590843 
1 200 -221.49896230895155 0 1 
1 -310.70069186172464 207.40983327505384 0.93969262078590843 -0.34202014332566893 
1 -3.1415926535897931 0 1 0 
2 -144.90000000000009 136.01111111111112 0 1 -1 0 4.9000000000000004
1 0 0 0 1 
1 55.099999999999909 0 -0 -1 
1 0 400 1 0 
2 -103.87108820856251 51.197156500335268 -1 0 0 1 5
1 1.2217304763960306 0 0 1 
1 200 221.49896230895146 -1 0 
1 0 0 1 0 
1 -200 131.11111111111111 1 0 
1 1.5707963267948966 0 0 1 
1 54.900000000000034 8.9000000000000007e-16 0 -1 
1 0 0 0 1 
1 271.54954914618287 -354.50257605809026 -0.34202014332566893 -0.93969262078590843 
1 0 0 1 0 
2 0 0 1 0 -0 1 5
1 0 50 1 0 
2 0 0 1 0 -0 1 10
1 -200 131.11111111111111 0 1 
1 -113.87108820856251 -298.80284349966473 0 -1 
1 -200 221.49896230895143 0 -1 
1 -105.58118892519086 55.895619604264795 0.93969262078590843 0.34202014332566893 
1 0 0 1 0 
2 -103.87108820856251 51.197156500335268 -1 0 0 1 10
1 0 0 0 1 
1 271.54954914618281 354.50257605809026 -0.34202014332566893 0.93969262078590843 
1 -200 221.49896230895143 0 -1 
1 -107.2912896418192 60.59408270819435 0.93969262078590843 0.34202014332566893 
1 -1.5707963267948966 0 1 0 
2 -145.09999999999997 136.01111111111112 0 1 -1 0 4.9000000000000004
1 0 0 0 1 
1 190.73966736265473 115.58746828546791 -1 2.2e-16 
1 0 50 1 0 
2 0 0 -1 0 0 1 5
1 0 0 0 1 
1 1.2217304763960306 0 0 1 
1 0 0 -2.2e-16 -1 
1 -150 131.11111111111111 0 1 
2 0 0 -1 0 0 1 10
1 0 0 1 0 
1 0 0 0 1 
1 -229.13364960370282 -84.015107772622287 0.34202014332566893 -0.93969262078590843 
8 0 400
1 0 400 -0 -1 
1 200 181.11111111111111 -1 0 
1 2.5 150 0 1 
1 150 181.11111111111111 1 0 
8 0 50
1 0 50 -0 -1 
8 0 400
1 0 0 0 1 
1 -200 -218.88888888888889 1 0 
1 2.5 -200 0 1 
1 -200 181.11111111111111 1 0 
8 0 50
1 0 50 -0 -1 
1 -200 -246.49896230895152 1 0 
1 1.2217304763960306 0 0 1 
1 200 246.49896230895149 -1 0 
1 0 0 1 0 
2 -100.00000000000001 206.49896230895149 0 1 -1 0 40
1 0 -5.3420000000000001e-14 1 0 
2 100.00000000000001 206.49896230895143 0 -1 1 0 40
1 -1.5707963267948966 4.9999999999998348 1 0 
1 -1.5707963267948966 -1.7968999999999999e-13 1 0 
2 100.00000000000001 206.49896230895141 0 -1 1 0 40
1 100 -4.9999999999998295 0 1 
1 1.5707963267948966 0 0 1 
1 0 -5 1 0 
1 200 246.49896230895149 -1 0 
1 0 5.0000000000000142 1 0 
2 -100.00000000000001 206.49896230895149 0 1 -1 0 40
1 0 0 0 1 
1 1.2217304763960306 0 0 1 
1 -1.5707963267948966 4.9999999999999609 1 0 
2 -19.999999999999972 216.49896230895152 0 -1 -1 -0 5
1 -1.5707963267948966 4.9999999999998881 1 0 
2 20.000000000000085 216.49896230895158 0 -1 1 0 5
1 -1.5707963267948966 0 1 0 
2 -19.999999999999972 216.49896230895152 0 -1 -1 -0 5
1 1.5707963267948966 0 0 1 
1 45 0 0 -1 
1 -1.5707963267948966 -5.3420000000000001e-14 1 0 
2 20.000000000000085 216.49896230895152 0 -1 1 0 5
1 300 0 0 -1 
1 0 0 0 1 
1 1.5707963267948966 0 0 1 
1 4.9999999999999432 -5.6840000000000001e-14 0 -1 
1 1.2217304763960306 0 0 1 
1 -200 221.49896230895146 1 0 
1 -200 -221.49896230895155 1 0 
1 0 -5 1 0 
1 0 4.9999999999998881 1 0 
2 -155 -216.49896230895158 0 -1 1 0 5
1 -4.712388980384679 4.9999999999999369 1 0 
2 -195.00000000000011 -216.49896230895152 0 -1 1 0 5
1 0 0 1 0 
1 0 -5 1 0 
1 0 0 1 0 
1 0 -5 1 0 
1 -4.7123889803846897 4.9999999999998881 1 0 
2 195.00000000000011 -216.49896230895158 0 -1 -1 -0 5
1 -3.1415926535897878 -1.7607999999999999e-13 1 0 
2 155.00000000000009 -216.49896230895146 0 1 1 -0 5
1 -4.7123889803846897 -5.3420000000000001e-14 1 0 
2 195.00000000000011 -216.49896230895152 0 -1 -1 -0 5
1 1.5707963267948966 0 0 1 
1 395.00000000000011 -5.6840000000000001e-14 0 -1 
1 -200 -221.49896230895155 1 0 
1 0 0 1 0 
1 0 -5.3420000000000001e-14 1 0 
2 -155 -216.49896230895152 0 -1 1 0 5
1 -4.7123889803846684 -8.1839999999999995e-14 1 0 
2 -195.00000000000011 -216.49896230895152 0 -1 1 0 5
1 -3.1415926535897878 4.9999999999998579 1 0 
2 155.00000000000009 -216.49896230895146 0 1 1 -0 5
1 -1.5707963267948966 -5.3420000000000001e-14 1 0 
2 -20.000000000000142 216.49896230895152 0 -1 -1 -0 5
1 -1.5707963267948859 0 1 0 
2 20 216.49896230895146 0 -1 1 0 5
1 1.5707963267948966 0 0 1 
1 45.000000000000114 -5.6840000000000001e-14 0 -1 
1 -1.5707963267948966 4.9999999999998881 1 0 
2 -20.000000000000142 216.49896230895158 0 -1 -1 -0 5
1 -1.5707963267948966 4.9999999999999609 1 0 
2 20 216.49896230895146 0 -1 1 0 5
1 0 0 0 1 
1 1.2217304763960306 0 0 1 
1 1.5707963267948966 0 0 1 
1 4.9999999999998863 -5.6840000000000001e-14 0 -1 
1 1.5707963267948966 0 0 1 
1 4.9999999999999716 0 0 -1 
1 0 0 0 1 
1 45 -5.6840000000000001e-14 0 -1 
1 1.5707963267948966 0 0 1 
1 354.99041638696627 -4.9999999999998579 -3.8999999999999998e-16 1 
1 3.1415926535897936 0 0 -1 
1 1.5707963267948968 0 0 -1 
1 1.5707963267948966 0 0 -1 
1 2.9999999999999999e-16 0 0 -1 
1 1.5707963267948966 0 0 1 
1 5.009583613033783 -5.6840000000000001e-14 -3.8999999999999998e-16 -1 
1 0 0 0 1 
1 355.00000000000011 -4.9999999999998579 0 1 
Curves 135
1 140 150 0 1 0 0 
8 3.1415926535897931 4.7123889803846897
2 144.90000000000003 154.90000000000001 0 -0 -0 -1 0 1 -0 1 -0 0 4.9000000000000004
8 0 1.5707963267948966
2 145.09999999999999 154.90000000000001 0 0 2.2e-16 1 0 -1 2.2e-16 1 0 -0 4.9000000000000004
1 140 250 0 0 -1 0 
1 150 150 0 0 1 0 
1 200 200 0 -1 0 0 
1 -200 0 0 1 0 0 
1 -140 150 0 0 1 0 
1 200 150 0 0 1 0 
8 3.1415926535897931 4.7123889803846897
2 -144.90000000000009 154.90000000000001 0 0 0 1 0 1 -0 -1 0 0 4.9000000000000004
1 -200 -200 0 1 0 0 
1 -200 150 0 1 0 0 
1 -200 200 0 0 -1 0 
8 1.5707963267948966 3.1415926535897931
2 -145.09999999999997 154.90000000000001 0 -0 2.2e-16 1 0 1 -2.2e-16 -1 0 -0 4.9000000000000004
1 150 0 0 1 0 0 
1 -150 150 0 0 1 0 
1 140 150 0 1 0 0 
1 144.90000000000003 150 5 -0 -0 -1 
1 145.09999999999999 150 1.09e-15 0 2.2e-16 1 
8 3.1415926535897931 4.7123889803846897
2 144.90000000000003 154.90000000000001 5 -0 -0 -1 0 1 -0 1 -0 0 4.9000000000000004
1 140.00000000000003 154.90000000000001 5 -0 -0 -1 
1 150 154.90000000000001 0 0 2.2e-16 1 
8 0 1.5707963267948966
2 145.09999999999999 154.90000000000001 5 0 2.2e-16 1 0 -1 2.2e-16 1 0 -0 4.9000000000000004
1 140 250 5 0 -1 0 
2 140 200 10 1 0 0 0 0 -1 -0 1 0 5
1 140 451.7050840279295 686.93501272784965 0 -0.34202014332566855 -0.93969262078590854 
2 140 200 10 -1 0 0 0 0 -1 -0 -1 -0 10
1 140 364.33134131190457 432.25860556151787 0 -0.93969262078590843 0.34202014332566893 
2 140 200 10 -1 0 0 0 0 -1 -0 -1 -0 10
1 140 800 0 0 -1 0 
2 140 200 10 -1 0 0 0 0 -1 -0 -1 -0 10
1 150 150 5 0 1 0 
2 150 200 -5 -1 0 0 0 0 1 0 1 -0 10
1 150 642.99792461790298 0 0 -1 0 
2 150 200 -5 -1 0 0 0 0 1 0 1 -0 5
1 150 354.5025760580902 -414.87331696635761 0 0.93969262078590843 0.34202014332566893 
2 -140 200 10 -1 0 0 0 0 -1 -0 -1 -0 10
2 -140 200 10 -1 0 0 0 0 -1 -0 -1 -0 10
2 -140 200 10 -1 0 0 0 0 -1 -0 -1 -0 10
1 200 200 0 -1 0 0 
2 200 200 -5 -1 0 0 0 0 1 0 1 -0 5
1 150 200 0 1 0 0 
1 -140.00000000000009 154.90000000000001 5 -0 -0 -1 
1 -140 150 5 0 1 0 
2 -140 200 10 1 0 0 0 0 -1 -0 1 0 5
1 -140 143.88695503482779 -158.78834597946806 0 0.34202014332566855 0.93969262078590854 
1 -140 -100 0 0 1 0 
1 -140.00000000000003 359.63287820797524 433.96870627814621 0 0.93969262078590843 -0.34202014332566893 
1 200 200 0 0 1 0 
1 200.00000000000006 354.50257605809026 -414.87331696635761 0 0.93969262078590843 0.34202014332566893 
2 200 200 -5 -1 0 0 0 0 1 0 1 -0 10
1 200 -200 5 0 1 0 
2 200 -200 -5 1 0 0 0 0 1 0 -1 0 10
1 200 -642.99792461790298 0 0 1 0 
2 200 -200 -5 1 0 0 0 0 1 0 -1 0 5
1 200.00000000000011 -354.50257605809026 -414.87331696635761 0 -0.93969262078590843 0.34202014332566893 
1 200 -642.99792461790298 0 0 1 0 
8 3.1415926535897931 4.7123889803846897
2 -144.90000000000009 154.90000000000001 5 0 0 1 0 1 -0 -1 0 0 4.9000000000000004
1 -144.90000000000009 150 5 -0 -0 -1 
2 -200 -200 -5 1 0 0 0 0 1 0 -1 0 5
1 200 -200 0 -1 0 0 
1 -200 150 0 1 0 0 
1 -145.09999999999997 150 5.0000000000000009 0 -2.2e-16 -1 
1 -200 642.99792461790298 0 0 -1 0 
1 -200.00000000000011 354.50257605809026 -414.87331696635761 0 0.93969262078590843 0.34202014332566893 
2 -200 200 -5 -1 0 0 0 0 1 0 1 -0 5
2 -200 200 -5 -1 0 0 0 0 1 0 1 -0 10
1 -200 150 5 0 1 0 
1 -200 -200 0 0 -1 0 
2 -200 -200 -5 1 0 0 0 0 1 0 -1 0 10
1 -200.00000000000011 -354.50257605809026 -414.87331696635755 0 -0.93969262078590843 0.34202014332566893 
1 -200 -200 0 0 -1 0 
8 1.5707963267948966 3.1415926535897931
2 -145.09999999999997 154.90000000000001 5 -0 2.2e-16 1 0 1 -2.2e-16 -1 0 -0 4.9000000000000004
1 -149.99999999999997 154.90000000000001 5 0 -2.2e-16 -1 
2 -150 200 -5 -1 0 0 0 0 1 0 1 -0 5
1 -200 200 0 1 0 0 
1 -150 150 5 0 1 0 
1 -150 200 0 0 1 0 
2 -150 200 -5 -1 0 0 0 0 1 0 1 -0 10
1 -149.99999999999997 354.5025760580902 -414.87331696635755 0 0.93969262078590843 0.34202014332566893 
1 200 200 0 -1 0 0 
1 -150 5 0 -1 0 0 
1 -200 -200 0 1 0 0 
1 200 5 0 -1 0 0 
1 -200 200 5 1 0 0 
1 200 692.99792461790298 5 -1 0 0 
8 0 1.5707963267948983
2 -100.00000000000003 359.63287820797518 433.96870627814621 -0 -0.93969262078590843 0.34202014332566893 0 0.34202014332566893 0.93969262078590843 -1 0 0 40
8 1.5707963267948983 3.1415926535897931
2 100 359.63287820797518 433.96870627814616 0 -0.93969262078590843 0.34202014332566893 0 -0.34202014332566893 -0.93969262078590843 1 0 0 40
8 1.570796326794897 3.1415926535897931
2 100 364.33134131190474 432.25860556151781 0 -0.93969262078590843 0.34202014332566893 0 -0.34202014332566893 -0.93969262078590843 1 0 0 40
1 100 378.01214704493134 469.84631039295419 0 -0.93969262078590843 0.34202014332566893 
1 200 692.99792461790298 5 -1 0 0 
8 0 1.5707963267948983
2 -100.00000000000003 364.33134131190479 432.25860556151787 -0 -0.93969262078590843 0.34202014332566893 0 0.34202014332566893 0.93969262078590843 -1 0 0 40
1 200 200 5 -1 0 0 
1 200 642.99792461790298 0 -1 0 0 
8 1.5707963267949152 3.1415926535897931
2 155 359.2010391620197 -413.16321624972926 -0 -0.93969262078590843 -0.34202014332566893 0 -0.34202014332566893 0.93969262078590843 -1 0 0 5
8 1.5707963267949043 3.1415926535897931
2 195.00000000000006 359.2010391620197 -413.16321624972932 0 0.93969262078590843 0.34202014332566893 0 -0.34202014332566893 0.93969262078590843 1 0 -0 5
8 1.5707963267948966 3.1415926535897931
2 155 354.5025760580902 -414.87331696635761 -0 -0.93969262078590843 -0.34202014332566893 0 -0.34202014332566893 0.93969262078590843 -1 0 0 5
1 155 356.21267677471855 -419.57178007028716 0 0.93969262078590843 0.34202014332566893 
8 1.5707963267948966 3.1415926535897931
2 195.00000000000006 354.5025760580902 -414.87331696635761 0 0.93969262078590843 0.34202014332566893 0 -0.34202014332566893 0.93969262078590843 1 0 -0 5
1 -100.00000000000003 373.31368394100201 471.55641110958254 0 0.93969262078590843 -0.34202014332566893 
1 195.00000000000006 356.2126767747186 -419.57178007028716 0 0.93969262078590843 0.34202014332566893 
1 -200 -200 5 1 0 0 
1 -200 -642.99792461790298 0 1 0 0 
8 6.0000000000000001e-17 1.5707963267948888
2 -155 -359.2010391620197 -413.16321624972932 0 -0.93969262078590843 0.34202014332566893 0 -0.34202014332566893 -0.93969262078590843 1 0 0 5
8 4.712388980384679 6.2831853071795862
2 -195.00000000000011 -359.2010391620197 -413.16321624972926 0 -0.93969262078590843 0.34202014332566893 0 -0.34202014332566893 -0.93969262078590843 1 0 0 5
1 -150 -156.10999999999999 0 0 -1 0 
2 -109.99999999999999 -156.10999999999999 0 0 0 1 1 0 -0 -0 1 0 40
1 110.00000000000004 -116.10999999999999 0 -1 0 0 
2 110.00000000000004 -156.10999999999999 0 0 0 1 1 0 -0 -0 1 0 40
8 4.7123889803846977 6.2831853071795862
2 195.00000000000011 -359.2010391620197 -413.16321624972932 -0 0.93969262078590843 -0.34202014332566893 0 -0.34202014332566893 -0.93969262078590843 -1 -0 0 5
1 150.00000000000006 -516.11000000000001 0 0 1 0 
8 3.1415926535897873 4.7123889803846897
2 155.00000000000009 -359.2010391620197 -413.1632162497292 0 0.93969262078590843 -0.34202014332566893 0 0.34202014332566893 0.93969262078590843 1 -0 0 5
8 4.7123889803846897 6.2831853071795862
2 195.00000000000011 -354.5025760580902 -414.87331696635761 -0 0.93969262078590843 -0.34202014332566893 0 -0.34202014332566893 -0.93969262078590843 -1 -0 0 5
1 195.00000000000011 -356.2126767747186 -419.57178007028716 0 -0.93969262078590843 0.34202014332566893 
1 -200 -642.99792461790298 0 1 0 0 
8 0 1.5707963267948966
2 -155 -354.5025760580902 -414.87331696635761 0 -0.93969262078590843 0.34202014332566893 0 -0.34202014332566893 -0.93969262078590843 1 0 0 5
8 4.7123889803846684 6.2831853071795862
2 -195.00000000000011 -354.5025760580902 -414.87331696635761 0 -0.93969262078590843 0.34202014332566893 0 -0.34202014332566893 -0.93969262078590843 1 0 0 5
8 3.1415926535897873 4.712388980384679
2 155.00000000000009 -354.5025760580902 -414.87331696635755 0 0.93969262078590843 -0.34202014332566893 0 0.34202014332566893 0.93969262078590843 1 -0 0 5
1 -150 642.99792461790298 0 -1 0 0 
8 1.5707963267948966 3.1415926535897931
2 -195.00000000000011 354.5025760580902 -414.87331696635761 -0 -0.93969262078590843 -0.34202014332566893 0 -0.34202014332566893 0.93969262078590843 -1 0 0 5
8 1.5707963267948859 3.1415926535897931
2 -154.99999999999997 354.5025760580902 -414.87331696635755 0 0.93969262078590843 0.34202014332566893 0 -0.34202014332566893 0.93969262078590843 1 0 -0 5
1 -195.00000000000011 356.2126767747186 -419.57178007028716 0 0.93969262078590843 0.34202014332566893 
8 1.5707963267949046 3.1415926535897931
2 -195.00000000000011 359.2010391620197 -413.16321624972932 -0 -0.93969262078590843 -0.34202014332566893 0 -0.34202014332566893 0.93969262078590843 -1 0 0 5
8 1.5707963267948966 3.1415926535897931
2 -154.99999999999997 359.2010391620197 -413.1632162497292 0 0.93969262078590843 0.34202014332566893 0 -0.34202014332566893 0.93969262078590843 1 0 -0 5
1 -150 200 5 -1 0 0 
1 -195.00000000000011 -356.2126767747186 -419.5717800702871 0 -0.93969262078590843 0.34202014332566893 
1 -154.99999999999997 356.21267677471855 -419.5717800702871 0 0.93969262078590843 0.34202014332566893 
1 -155 -356.2126767747186 -419.57178007028716 0 -0.93969262078590843 0.34202014332566893 
1 -150 -354.50257605809026 -414.87331696635761 0 -0.93969262078590843 0.34202014332566893 
1 -150 -237.78716607011069 -79.581341521180065 0 0.93969262078590854 -0.3420201433256686 
1 -109.99999999999999 -224.10636033708394 -41.993636689743724 0 0.93969262078590854 -0.3420201433256686 
1 110.00000000000004 -224.10636033708394 -41.993636689743724 0 0.93969262078590854 -0.3420201433256686 
1 150.00000000000006 -237.78716607011069 -79.581341521180093 0 0.93969262078590854 -0.3420201433256686 
1 150.00000000000009 -359.20103916201958 -413.16321624972926 0 0.93969262078590843 -0.34202014332566893 
1 155.00000000000009 -360.91113987864793 -417.86167935365881 0 0.93969262078590843 -0.34202014332566893 
Polygon3D 0
PolygonOnTriangulations 0
Surfaces 57
1 0 18.888888888888889 0 -0 -0 -1 -1 0 0 0 1 -0 
1 140 150 5 0 -1 0 1 0 0 -0 0 1 
2 144.90000000000003 154.90000000000001 5 -0 -0 -1 0 -1 0 -1 0 0 4.9000000000000004
2 145.09999999999999 154.90000000000001 0 0 2.2e-16 1 0 -1 2.2e-16 1 0 -0 4.9000000000000004
1 140.00000000000003 272.23742929999395 195.37077106866164 1 0 0 -0 0 1 0 -1 0 
1 150 150 0 1 0 0 -0 2.2e-16 1 0 -1 2.2e-16 
2 200 200 10 -1 0 0 0 0 -1 0 1 0 10
1 0 150 2.5 0 1 0 0 -0 1 1 0 -0 
2 150 200 -5 1 -0 -0 0 0 1 -0 1 -0 5
1 -140.00000000000009 272.23742929999406 195.37077106866175 -1 -0 -0 0 0 -1 0 -1 0 
1 200 -148.8028434996647 -108.8710882085625 1 0 0 -0 0 1 0 -1 0 
2 -144.90000000000009 154.90000000000001 5 -0 -0 -1 0 -1 0 1 -0 -0 4.9000000000000004
2 200 -200 -5 -1 -0 -0 -0 0 1 -0 -1 0 5
1 -200 150 5 0 -1 0 1 0 0 -0 0 1 
1 -200.00000000000009 -148.80284349966473 -108.87108820856251 -1 -0 -0 0 0 -1 0 -1 0 
2 -145.09999999999997 154.90000000000001 5 0 -2.2e-16 -1 -1 -0 0 0 -1 2.2e-16 4.9000000000000004
1 0 150 2.5 0 1 0 0 -0 1 1 0 -0 
2 -200 200 -5 1 -0 -0 0 0 1 -0 1 -0 5
1 -150 150 5 -1 0 -0 0 -2.2e-16 -1 -0 -1 2.2e-16 
1 0 18.888888888888889 5 0 0 1 1 0 -0 -0 1 0 
1 150 270.48746828546791 -185.73966736265476 -1 -0 -0 0 0 -1 0 -1 0 
2 -200 200 10 1 -0 -0 0 0 -1 0 1 0 5
1 -8.1500000000000003e-15 446.49896230895149 5 0 0 1 1 0 -0 -0 1 0 
2 100 364.33134131190457 432.25860556151787 0 -0.93969262078590843 0.34202014332566893 1 0 0 -0 0.34202014332566893 0.93969262078590843 40
1 -8.1500000000000003e-15 446.49896230895149 5 0 0 1 1 0 -0 -0 1 0 
2 200 200 -5 -1 0 0 0 0 1 0 1 -0 10
1 150 200 -5 -1 0 0 0 0 1 0 1 -0 
2 155 354.5025760580902 -414.87331696635761 0 0.93969262078590843 0.34202014332566893 -1 0 0 -0 0.34202014332566893 -0.93969262078590843 5
1 200 200 -5 -1 0 0 -0 0 -1 0 1 -0 
2 -100.00000000000003 359.63287820797524 433.96870627814621 0 0.93969262078590843 -0.34202014332566893 0 0.34202014332566893 0.93969262078590843 -1 0 -0 40
1 200.00000000000006 5.5599999999999996e-15 -143.32376782017468 1 0 0 -0 0 1 0 -1 0 
2 195.00000000000006 354.50257605809026 -414.87331696635761 0 0.93969262078590843 0.34202014332566893 1 0 -0 -0 0.34202014332566893 -0.93969262078590843 5
2 -200 -200 -5 1 0 0 0 0 1 0 -1 0 10
1 0 -421.49896230895143 0 0 0 1 1 0 -0 -0 1 0 
2 195.00000000000011 -354.50257605809026 -414.87331696635761 0 -0.93969262078590843 0.34202014332566893 1 0 0 0 -0.34202014332566893 -0.93969262078590843 5
1 0 -421.49896230895143 0 0 0 1 1 0 -0 -0 1 0 
1 -200.00000000000011 1.9280000000000001e-14 -143.32376782017474 -1 -0 -0 0 0 -1 0 -1 0 
2 -195.00000000000011 354.50257605809026 -414.87331696635761 0 0.93969262078590843 0.34202014332566893 -1 0 0 -0 0.34202014332566893 -0.93969262078590843 5
1 -200 200 -5 -1 0 0 0 0 1 0 1 -0 
2 -150 200 -5 -1 0 0 0 0 1 0 1 -0 10
2 -195.00000000000011 -354.50257605809026 -414.87331696635755 0 -0.93969262078590843 0.34202014332566893 -1 0 0 -0 -0.34202014332566893 -0.93969262078590843 5
1 -149.99999999999997 270.48746828546791 -185.73966736265473 1 0 0 -0 0 1 0 -1 0 
1 -150 200 -5 -1 0 0 -0 0 -1 0 1 -0 
2 -154.99999999999997 354.5025760580902 -414.87331696635755 0 0.93969262078590843 0.34202014332566893 1 0 -0 -0 0.34202014332566893 -0.93969262078590843 5
1 200 692.99792461790298 5 0 1 0 -1 0 0 0 -0 1 
1 174.99999999999997 421.49896230895143 0 0 0 1 1 0 -0 -0 1 0 
1 200 642.99792461790298 0 0 -1 0 -1 0 0 -0 -0 -1 
1 -200 -642.99792461790298 0 0 1 0 1 0 0 0 0 -1 
2 -155 -354.50257605809026 -414.87331696635761 0 -0.93969262078590843 0.34202014332566893 0 -0.34202014332566893 -0.93969262078590843 1 0 0 5
2 -109.99999999999999 -237.78716607011069 -79.581341521180065 0 -0.93969262078590854 0.34202014332566855 1 0 0 -0 0.34202014332566855 0.93969262078590854 40
2 110.00000000000004 -237.78716607011069 -79.581341521180065 0 -0.93969262078590854 0.34202014332566855 1 0 0 -0 0.34202014332566855 0.93969262078590854 40
2 155.00000000000009 -359.20103916201958 -413.16321624972926 0 0.93969262078590843 -0.34202014332566893 0 -0.34202014332566893 -0.93969262078590843 -1 0 -0 5
1 -174.99999999999997 421.49896230895143 0 0 0 1 1 0 -0 -0 1 0 
1 -150 642.99792461790298 0 0 -1 0 -1 0 0 -0 -0 -1 
1 -150 -237.78716607011069 -79.581341521180065 -1 0 -0 0 -0.34202014332566855 -0.93969262078590854 -0 -0.93969262078590854 0.34202014332566855 
1 110.00000000000004 -224.10636033708394 -41.993636689743724 0 0.3420201433256686 0.93969262078590854 -1 0 0 0 -0.93969262078590854 0.3420201433256686 
1 150.00000000000006 -360.91441766735136 -417.87068500410714 1 -0 0 0 0.34202014332566855 0.93969262078590854 -0 -0.93969262078590854 0.34202014332566855 
Triangulations 0

TShapes 352
Ve
1.00000028e-07
144.9 150 0
0 0

0101101
*
Ve
1.00000028e-07
145.1 150 0
0 0

0101101
*
Ed
 1.00000028e-07 1 1 0
1  1 0 4.90000000000003 5.09999999999999
2  1 2 28 4.90000000000003 5.09999999999999
2  2 1 29 4.90000000000003 5.09999999999999
0

0101000
+352 30 -351 31 *
Ve
1.00000028e-07
140 154.9 0
0 0

0101101
*
Ed
 1e-07 1 1 0
1  2 0 3.14159265358979 4.71238898038469
2  3 3 0 3.14159265358979 4.71238898038469
2  4 1 32 3.14159265358979 4.71238898038469
0

0101000
+352 0 -349 0 *
Ve
1.00000028e-07
150 154.9 0
0 0

0101101
*
Ed
 1e-07 1 1 0
1  3 0 0 1.5707963267949
2  5 4 0 0 1.5707963267949
2  6 1 33 0 1.5707963267949
0

0101000
+351 0 -347 0 *
Ve
1.00000254e-07
140 200 0
0 0

0101101
*
Ed
 1.00000028e-07 1 1 0
1  4 0 50 95.1
2  7 5 0 50 95.1
2  8 1 35 50 95.1
0

0101000
-349 36 +345 37 *
Ve
1.00000028e-07
150 200 0
0 0

0101101
*
Ed
 1.00000028e-07 1 1 0
1  5 0 4.90000000000001 50
2  9 6 0 4.90000000000001 50
2  10 1 0 4.90000000000001 50
0

0101000
+347 38 -343 39 *
Ve
1.0000018e-07
-140 200 0
0 0

0101101
*
Ed
 1.00000028e-07 1 1 0
1  6 0 60 340
2  11 7 53 60 340
2  12 1 54 60 340
0

0101000
+345 55 -341 55 *
Ve
1.00000028e-07
200 200 0
0 0

0101101
*
Ed
 1.00000028e-07 1 1 0
1  7 0 0 50
2  13 8 63 0 50
2  14 1 64 0 50
2  15 9 65 0 50
0

0101000
+339 65 -343 65 *
Ve
1.00000028e-07
-140 154.9 0
0 0

0101101
*
Ed
 1.00000028e-07 1 1 0
1  8 0 4.90000000000001 50
2  16 10 0 4.90000000000001 50
2  17 1 35 4.90000000000001 50
0

0101000
+337 66 -341 37 *
Ve
1.00000028e-07
200 -200 0
0 0

0101101
*
Ed
 1.00000028e-07 1 1 0
1  9 0 -350 50
2  18 1 0 -350 50
2  19 11 0 -350 50
0

0101000
+335 39 -339 39 *
Ve
1.00000028e-07
-144.9 150 0
0 0

0101101
*
Ed
 1e-07 1 1 0
1  10 0 3.14159265358979 4.71238898038469
2  20 12 0 3.14159265358979 4.71238898038469
2  21 1 68 3.14159265358979 4.71238898038469
0

0101000
+333 0 -337 0 *
Ve
1.00000028e-07
-200 -200 0
0 0

0101101
*
Ed
 1.00000028e-07 1 1 0
1  11 0 0 400
2  22 1 54 0 400
2  23 13 69 0 400
0

0101000
+331 55 -335 55 *
Ve
1.00000028e-07
-145.1 150 0
0 0

0101101
*
Ed
 1.00000028e-07 1 1 0
1  12 0 54.9 55.0999999999999
2  24 14 28 54.9 55.0999999999999
2  25 1 29 54.9 55.0999999999999
0

0101000
-333 70 +329 71 *
Ve
1.00000028e-07
-200 200 0
0 0

0101101
*
Ed
 1.00000028e-07 1 1 0
1  13 0 0 400
2  26 1 0 0 400
2  27 15 0 0 400
0

0101000
+327 39 -331 39 *
Ve
1.00000028e-07
-150 154.9 0
0 0

0101101
*
Ed
 1e-07 1 1 0
1  14 0 1.5707963267949 3.14159265358979
2  28 16 0 1.5707963267949 3.14159265358979
2  29 1 73 1.5707963267949 3.14159265358979
0

0101000
+325 0 -329 0 *
Ve
1.00000028e-07
-150 200 0
0 0

0101101
*
Ed
 1.00000028e-07 1 1 0
1  15 0 0 50
2  30 17 63 0 50
2  31 1 64 0 50
2  32 18 65 0 50
0

0101000
+323 65 -327 65 *
Ed
 1.00000028e-07 1 1 0
1  16 0 4.9 50
2  33 19 0 4.9 50
2  34 1 0 4.9 50
0

0101000
+325 74 -323 39 *
Wi

0101100
+350 27 -348 0 +346 15 +344 34 +342 32 -340 52 -338 62 +336 34 -334 32 +332 67 
-330 52 +328 27 -326 32 +324 72 -322 62 -321 32 *
Fa
0  1.00000028e-07 1 17

0111000
+320 18 *
Ve
1.00000028e-07
144.9 150 5
0 0

0101101
*
Ve
1.00000028e-07
145.1 150 5
0 0

0101101
*
Ed
 1.00000028e-07 1 1 0
1  17 0 4.90000000000003 5.09999999999999
2  35 2 78 4.90000000000003 5.09999999999999
2  36 20 79 4.90000000000003 5.09999999999999
0

0101000
+318 80 -317 81 *
Ed
 1e-07 1 1 0
1  18 0 -0 5
2  37 3 0 -0 5
2  38 2 82 -0 5
4 G1 3 0 2 82
0

0101000
+318 0 -352 0 *
Ed
 1e-07 1 1 0
1  19 0 -1e-15 5
2  39 4 0 -1e-15 5
2  40 2 83 -1e-15 5
4 G1 4 0 2 83
0

0101000
+351 0 -317 0 *
Wi

0101100
-316 77 +315 0 +314 15 +350 27 *
Fa
0  1e-07 2 75

0111000
+313 76 *
Ve
1.00000028e-07
140 154.9 5
0 0

0101101
*
Ed
 1e-07 1 1 0
1  20 0 3.14159265358979 4.71238898038469
2  41 3 0 3.14159265358979 4.71238898038469
2  42 20 32 3.14159265358979 4.71238898038469
0

0101000
+318 0 -311 0 *
Ed
 1e-07 1 1 0
1  21 0 -0 5
2  43 3 0 -0 5
2  44 5 34 -0 5
4 G1 3 0 5 34
0

0101000
+311 0 -349 0 *
Wi

0101100
+310 0 -315 0 +309 0 -348 0 *
Fa
0  0 3 0

0111000
+308 0 *
Ve
1.00000028e-07
150 154.9 5
0 0

0101101
*
Ed
 1e-07 1 1 0
1  22 0 -0 5
2  45 4 0 -0 5
2  46 21 84 -0 5
4 G1 4 0 21 84
0

0101000
+347 0 -306 0 *
Ed
 1e-07 1 1 0
1  23 0 0 1.5707963267949
2  47 4 0 0 1.5707963267949
2  48 20 33 0 1.5707963267949
0

0101000
+317 0 -306 0 *
Wi

0101100
+346 0 -314 0 +305 0 -304 0 *
Fa
0  0 4 0

0111000
+303 0 *
Ve
1.00000254e-07
140 200 5
0 0

0101101
*
Ed
 1.00000028e-07 1 1 0
1  24 0 50 95.1
2  49 5 0 50 95.1
2  50 20 35 50 95.1
0

0101000
-311 36 +301 37 *
Ve
0.000612497349679
140 204.69846310393 8.28989928337162
0 0

0101101
*
Ed
 1.00000254e-07 1 1 0
1  25 0 0 1.22173047639603
2  51 5 0 0 1.22173047639603
2  52 22 85 0 1.22173047639603
0

0101000
+301 37 -299 37 *
Ve
1.00000254e-07
140 359.632878207975 433.968706278146
0 0

0101101
*
Ed
 1e-07 1 1 0
1  26 0 269.201120509104 722.199045127007
2  53 23 87 269.201120509104 722.199045127007
2  54 5 0 269.201120509104 722.199045127007
0

0101000
+297 37 -299 37 *
Ve
1.00006876e-07
140 201.736481776667 0.151922469871465
0 0

0101101
*
Ed
 1.00000254e-07 1 1 0
1  27 0 6.1086523819805 6.28318530717959
2  55 5 88 6.1086523819805 6.28318530717959
2  56 7 89 6.1086523819805 6.28318530717959
0

0101000
+295 90 -345 90 *
Ve
1.00000254e-07
140 364.331341311905 432.258605561518
0 0

0101101
*
Ed
 1.00000254e-07 1 1 0
1  28 0 -2.65e-13 4.99999999999979
2  57 24 0 -2.65e-13 4.99999999999979
2  58 5 92 -2.65e-13 4.99999999999979
0

0101000
+293 93 -297 93 *
Ve
1.00000254e-07
140 208.660254037844 4.99999999999985
0 0

0101101
*
Ed
 1.00000254e-07 1 1 0
1  29 0 5.23598775598301 6.1086523819805
2  59 5 95 5.23598775598301 6.1086523819805
2  60 7 96 5.23598775598301 6.1086523819805
0

0101000
+291 97 -295 97 *
Ve
1.00000475e-07
140 209.396926207859 6.57979856674331
0 0

0101101
*
Ed
 1.00000254e-07 1 1 0
1  30 0 269.201120509104 722.199045127007
2  61 5 102 269.201120509104 722.199045127007
2  62 25 104 269.201120509104 722.199045127007
0

0101000
+293 105 -289 105 *
Ed
 1.00000254e-07 1 1 0
1  31 0 5.06145483078356 5.23598775598301
2  63 5 95 5.06145483078356 5.23598775598301
2  64 7 96 5.06145483078356 5.23598775598301
0

0101000
+289 97 -291 97 *
Wi

0101100
+300 34 +309 0 -298 34 -344 34 +296 34 -294 82 +292 91 -290 94 -288 101 -287 94 
*
Fa
0  1.00000254e-07 5 0

0111000
+286 36 *
Ve
1.00000028e-07
150 200 5
0 0

0101101
*
Ed
 1.00000028e-07 1 1 0
1  32 0 4.90000000000001 50
2  65 6 0 4.90000000000001 50
2  66 20 0 4.90000000000001 50
0

0101000
+306 38 -284 39 *
Ve
1.00000057e-07
150 209.396926207859 -1.57979856674331
0 0

0101101
*
Ed
 1.00000028e-07 1 1 0
1  33 0 0 1.22173047639603
2  67 26 0 0 1.22173047639603
2  68 27 0 0 1.22173047639603
0

0101000
+284 0 -282 0 *
Ve
1.00000028e-07
150 359.20103916202 -413.163216249729
0 0

0101101
*
Ed
 1.00000028e-07 1 1 0
1  34 0 5.00000000000002 442.997924617903
0

0101000
+280 112 -282 113 *
Ve
1.00000028e-07
150 204.69846310393 -3.28989928337165
0 0

0101101
*
Ed
 1.00000028e-07 1 1 0
1  35 0 0 1.22173047639603
2  69 9 0 0 1.22173047639603
2  70 27 0 0 1.22173047639603
0

0101000
+343 0 -278 0 *
Ve
1.00000028e-07
150 354.50257605809 -414.873316966358
0 0

0101101
*
Ed
 1e-07 1 1 0
1  36 0 1.7e-14 5.00000000000001
2  71 28 0 1.7e-14 5.00000000000001
2  72 21 115 1.7e-14 5.00000000000001
4 G1 28 0 21 115
0

0101000
+276 0 -280 0 *
Ed
 1.00000028e-07 1 1 0
1  34 0 4.99999999999996 442.997924617903
0

0101000
+276 117 -278 118 *
Wi

0101100
+283 33 +305 0 +281 108 -342 33 -279 111 -277 108 -275 114 +274 116 *
Fa
0  1.00000028e-07 21 0

0111000
+273 107 *
Ve
1.0000018e-07
-140 201.736481776669 0.151922469877945
0 0

0101101
*
Ed
 1.0000018e-07 1 1 0
1  37 0 6.10865238198015 6.28318530717959
2  73 10 88 6.10865238198015 6.28318530717959
2  74 7 89 6.10865238198015 6.28318530717959
0

0101000
+271 90 -341 90 *
Ve
1.0000018e-07
-140 208.660254037844 4.99999999999985
0 0

0101101
*
Ed
 1.0000018e-07 1 1 0
1  38 0 5.23598775598301 6.10865238198015
2  75 10 95 5.23598775598301 6.10865238198015
2  76 7 96 5.23598775598301 6.10865238198015
0

0101000
+269 97 -271 97 *
Ve
1.0000018e-07
-140 209.396926207859 6.57979856674329
0 0

0101101
*
Ed
 1.0000018e-07 1 1 0
1  39 0 5.06145483078356 5.23598775598301
2  77 10 95 5.06145483078356 5.23598775598301
2  78 7 96 5.06145483078356 5.23598775598301
0

0101000
+267 97 -269 97 *
Ed
 1.0000004e-07 1 1 0
1  40 0 60 340
2  79 25 124 60 340
2  80 7 125 60 340
0

0101000
+289 126 -267 126 *
Wi

0101100
-340 119 +270 120 +268 121 +266 121 +265 123 -287 121 -290 121 -294 120 *
Fa
0  1e-07 7 85

0111000
+264 0 *
Ve
1.00000028e-07
200 204.69846310393 -3.28989928337165
0 0

0101101
*
Ed
 1.00000028e-07 1 1 0
1  41 0 0 1.22173047639603
2  81 9 0 0 1.22173047639603
2  82 29 0 0 1.22173047639603
0

0101000
+339 0 -262 0 *
Ed
 1e-07 1 1 0
1  42 0 0 50
2  83 9 0 0 50
2  84 9 129 0 50
0

0101000
+278 129 -262 129 *
Wi

0101100
+277 0 -261 0 +338 127 +260 128 *
Fa
0  1e-07 9 0

0111000
+259 0 *
Ve
1.00000028e-07
-140 154.9 5
0 0

0101101
*
Ed
 1e-07 1 1 0
1  43 0 0 5
2  85 12 0 0 5
2  86 10 130 0 5
4 G1 12 0 10 130
0

0101000
+257 0 -337 0 *
Ve
1.0000018e-07
-140 200 5
0 0

0101101
*
Ed
 1.00000028e-07 1 1 0
1  44 0 4.90000000000001 50
2  87 10 0 4.90000000000001 50
2  88 20 35 4.90000000000001 50
0

0101000
+257 66 -255 37 *
Ve
0.000612497349679
-140 204.69846310393 8.28989928337165
0 0

0101101
*
Ed
 1.0000018e-07 1 1 0
1  45 0 0 1.22173047639603
2  89 10 0 0 1.22173047639603
2  90 22 85 0 1.22173047639603
0

0101000
+255 37 -253 37 *
Ve
1.0000018e-07
-140 359.632878207975 433.968706278146
0 0

0101101
*
Ed
 1e-07 1 1 0
1  46 0 177.800954872993 630.798879490896
2  91 23 87 177.800954872993 630.798879490896
2  92 10 0 177.800954872993 630.798879490896
0

0101000
+253 37 -251 37 *
Ve
1.0000018e-07
-140 364.331341311905 432.258605561518
0 0

0101101
*
Ed
 1.0000018e-07 1 1 0
1  47 0 177.800954872993 630.798879490896
2  93 10 102 177.800954872993 630.798879490896
2  94 25 104 177.800954872993 630.798879490896
0

0101000
-249 105 +267 105 *
Ed
 1.0000018e-07 1 1 0
1  48 0 4e-15 5.00000000000007
2  95 30 0 4e-15 5.00000000000007
2  96 10 135 4e-15 5.00000000000007
0

0101000
+251 136 -249 136 *
Wi

0101100
-336 130 -256 0 +270 131 +254 130 +268 132 +252 130 +266 132 +250 130 -248 133 +247 134 
*
Fa
0  1.0000018e-07 10 0

0111000
+246 66 *
Ve
1.00000028e-07
200 359.20103916202 -413.163216249729
0 0

0101101
*
Ve
1.00000057e-07
200 209.396926207859 -1.57979856674331
0 0

0101101
*
Ed
 1.00000028e-07 1 1 0
1  49 0 0 437.997924617903
0

0101000
-244 139 +243 113 *
Ve
1.00000028e-07
200 354.50257605809 -414.873316966358
0 0

0101101
*
Ed
 1e-07 1 1 0
1  50 0 -3.7e-14 5.00000000000002
2  97 32 0 -3.7e-14 5.00000000000002
2  98 31 140 -3.7e-14 5.00000000000002
4 G1 32 0 31 140
0

0101000
+241 0 -244 0 *
Ve
1.00000028e-07
200 200 5
0 0

0101101
*
Ed
 1.00000028e-07 1 1 0
1  51 0 0 1.22173047639603
2  99 29 0 0 1.22173047639603
2  100 26 0 0 1.22173047639603
0

0101000
+239 0 -243 0 *
Ed
 1.00000028e-07 1 1 0
1  49 0 0 437.997924617903
0

0101000
-241 143 +262 118 *
Ve
1.00000028e-07
200 -200 5
0 0

0101101
*
Ed
 1.00000028e-07 1 1 0
1  52 0 0 400
2  101 20 0 0 400
2  102 11 0 0 400
0

0101000
+236 39 -239 39 *
Ve
1.00000069e-07
200 -209.396926207859 -1.57979856674331
0 0

0101101
*
Ed
 1.00000028e-07 1 1 0
1  53 0 0 1.22173047639603
2  103 33 0 0 1.22173047639603
2  104 11 146 0 1.22173047639603
0

0101000
+236 147 -234 147 *
Ve
1.00000028e-07
200 -359.20103916202 -413.163216249729
0 0

0101101
*
Ed
 1.00000028e-07 1 1 0
1  54 0 5 442.997924617903
2  105 34 0 5 442.997924617903
2  106 11 151 5 442.997924617903
0

0101000
+232 152 -234 153 *
Ve
1.00000028e-07
200 -204.69846310393 -3.28989928337165
0 0

0101101
*
Ed
 1.00000028e-07 1 1 0
1  55 0 0 1.22173047639603
2  107 13 0 0 1.22173047639603
2  108 11 146 0 1.22173047639603
0

0101000
+335 147 -230 147 *
Ve
1.00000028e-07
200 -354.50257605809 -414.873316966358
0 0

0101101
*
Ed
 1e-07 1 1 0
1  56 0 -3.7e-14 4.99999999999996
2  109 35 0 -3.7e-14 4.99999999999996
2  110 31 155 -3.7e-14 4.99999999999996
4 G1 35 0 31 155
0

0101000
+228 0 -232 0 *
Ed
 1.00000028e-07 1 1 0
1  57 0 4.99999999999994 442.997924617903
2  111 36 0 4.99999999999994 442.997924617903
2  112 11 157 4.99999999999994 442.997924617903
0

0101000
+228 158 -230 159 *
Wi

0101100
-242 138 +240 0 -238 141 +237 142 -235 144 +261 141 +233 145 +334 144 -231 150 -229 145 
-227 154 +226 156 *
Fa
0  1.00000028e-07 31 0

0111000
+225 137 *
Ve
1.00000028e-07
-144.9 150 5
0 0

0101101
*
Ed
 1e-07 1 1 0
1  58 0 3.14159265358979 4.71238898038469
2  113 12 0 3.14159265358979 4.71238898038469
2  114 20 68 3.14159265358979 4.71238898038469
0

0101000
+223 0 -257 0 *
Ed
 1e-07 1 1 0
1  59 0 -0 5
2  115 12 0 -0 5
2  116 14 131 -0 5
4 G1 12 0 14 131
0

0101000
+223 0 -333 0 *
Wi

0101100
+222 0 -221 0 +256 0 -332 0 *
Fa
0  0 12 0

0111000
+220 0 *
Ve
1.00000028e-07
-200 -204.69846310393 -3.28989928337165
0 0

0101101
*
Ed
 1.00000028e-07 1 1 0
1  60 0 0 1.22173047639603
2  117 13 0 0 1.22173047639603
2  118 15 146 0 1.22173047639603
0

0101000
+331 147 -218 147 *
Ed
 1e-07 1 1 0
1  61 0 0 400
2  119 13 163 0 400
2  120 36 164 0 400
0

0101000
+230 165 -218 165 *
Wi

0101100
+229 0 -217 0 +330 161 +216 162 *
Fa
0  1e-07 13 0

0111000
+215 0 *
Ve
1.00000028e-07
-145.1 150 5
0 0

0101101
*
Ed
 1.00000028e-07 1 1 0
1  62 0 54.9 55.0999999999999
2  121 14 78 54.9 55.0999999999999
2  122 20 79 54.9 55.0999999999999
0

0101000
-223 168 +213 169 *
Ed
 1e-07 1 1 0
1  63 0 1e-15 5
2  123 16 0 1e-15 5
2  124 14 170 1e-15 5
4 G1 16 0 14 170
0

0101000
+213 0 -329 0 *
Wi

0101100
-212 167 -221 0 +211 13 +328 171 *
Fa
0  1e-07 14 75

0111000
+210 166 *
Ve
1.00000028e-07
-200 354.50257605809 -414.873316966358
0 0

0101101
*
Ve
1.00000028e-07
-200 204.69846310393 -3.28989928337165
0 0

0101101
*
Ed
 1.00000028e-07 1 1 0
1  64 0 4.99999999999994 442.997924617903
0

0101000
+208 175 -207 176 *
Ve
1.00000028e-07
-200 359.20103916202 -413.163216249729
0 0

0101101
*
Ed
 1e-07 1 1 0
1  65 0 -3.7e-14 4.99999999999996
2  125 38 0 -3.7e-14 4.99999999999996
2  126 37 177 -3.7e-14 4.99999999999996
4 G1 38 0 37 177
0

0101000
+208 0 -205 0 *
Ed
 1.00000028e-07 1 1 0
1  66 0 0 1.22173047639603
2  127 18 0 0 1.22173047639603
2  128 39 0 0 1.22173047639603
0

0101000
+327 0 -207 0 *
Ve
1.00000057e-07
-200 209.396926207859 -1.57979856674331
0 0

0101101
*
Ed
 1.00000028e-07 1 1 0
1  64 0 5 442.997924617903
0

0101000
+205 181 -202 182 *
Ve
1.00000028e-07
-200 200 5
0 0

0101101
*
Ed
 1.00000028e-07 1 1 0
1  67 0 0 1.22173047639603
2  129 40 0 0 1.22173047639603
2  130 39 0 0 1.22173047639603
0

0101000
+200 0 -202 0 *
Ve
1.00000028e-07
-200 -200 5
0 0

0101101
*
Ed
 1.00000028e-07 1 1 0
1  68 0 -350 50
2  131 20 0 -350 50
2  132 15 0 -350 50
0

0101000
+198 39 -200 39 *
Ve
1.00000028e-07
-200 -354.50257605809 -414.873316966358
0 0

0101101
*
Ed
 1.00000028e-07 1 1 0
1  69 0 0 437.997924617903
2  133 36 0 0 437.997924617903
2  134 15 157 0 437.997924617903
0

0101000
-196 186 +218 159 *
Ve
1.00000069e-07
-200 -209.396926207859 -1.57979856674331
0 0

0101101
*
Ed
 1.00000028e-07 1 1 0
1  70 0 0 1.22173047639603
2  135 33 0 0 1.22173047639603
2  136 15 146 0 1.22173047639603
0

0101000
+198 147 -194 147 *
Ve
1.00000028e-07
-200 -359.20103916202 -413.163216249729
0 0

0101101
*
Ed
 1e-07 1 1 0
1  71 0 -8.2e-14 4.99999999999994
2  137 41 0 -8.2e-14 4.99999999999994
2  138 37 188 -8.2e-14 4.99999999999994
4 G1 41 0 37 188
0

0101000
+196 0 -192 0 *
Ed
 1.00000028e-07 1 1 0
1  72 0 0 437.997924617903
2  139 34 0 0 437.997924617903
2  140 15 151 0 437.997924617903
0

0101000
-192 190 +194 153 *
Wi

0101100
+206 174 -204 0 -203 178 -201 180 +326 183 +199 178 +217 184 +197 183 +195 185 -193 184 
+191 187 -190 189 *
Fa
0  1.00000028e-07 37 0

0111000
+189 172 *
Ve
1.00000028e-07
-150 154.9 5
0 0

0101101
*
Ed
 1e-07 1 1 0
1  73 0 1.5707963267949 3.14159265358979
2  141 16 0 1.5707963267949 3.14159265358979
2  142 20 73 1.5707963267949 3.14159265358979
0

0101000
+187 0 -213 0 *
Ed
 1e-07 1 1 0
1  74 0 -0 5
2  143 16 0 -0 5
2  144 42 191 -0 5
4 G1 16 0 42 191
0

0101000
+187 0 -325 0 *
Wi

0101100
+186 0 -185 0 +211 0 -324 0 *
Fa
0  0 16 0

0111000
+184 0 *
Ve
1.00000028e-07
-150 204.69846310393 -3.28989928337165
0 0

0101101
*
Ed
 1.00000028e-07 1 1 0
1  75 0 0 1.22173047639603
2  145 18 0 0 1.22173047639603
2  146 43 0 0 1.22173047639603
0

0101000
+323 0 -182 0 *
Ed
 1e-07 1 1 0
1  76 0 0 50
2  147 18 0 0 50
2  148 18 193 0 50
0

0101000
+207 193 -182 193 *
Wi

0101100
+203 0 -181 0 +322 127 +180 192 *
Fa
0  1e-07 18 0

0111000
+179 0 *
Ve
1.00000028e-07
-150 200 5
0 0

0101101
*
Ed
 1.00000028e-07 1 1 0
1  77 0 4.90000000000001 50
2  149 19 0 4.90000000000001 50
2  150 20 0 4.90000000000001 50
0

0101000
+187 74 -177 39 *
Ve
1.00000028e-07
-150 354.50257605809 -414.873316966358
0 0

0101101
*
Ed
 1.00000028e-07 1 1 0
1  78 0 0 437.997924617903
0

0101000
-175 197 +182 176 *
Ve
1.00000057e-07
-150 209.396926207859 -1.57979856674331
0 0

0101101
*
Ed
 1.00000028e-07 1 1 0
1  79 0 0 1.22173047639603
2  151 43 0 0 1.22173047639603
2  152 40 0 0 1.22173047639603
0

0101000
+177 0 -173 0 *
Ve
1.00000028e-07
-150 359.20103916202 -413.163216249729
0 0

0101101
*
Ed
 1e-07 1 1 0
1  80 0 0 4.99999999999997
2  153 44 0 0 4.99999999999997
2  154 42 199 0 4.99999999999997
4 G1 44 0 42 199
0

0101000
+175 0 -171 0 *
Ed
 1.00000028e-07 1 1 0
1  78 0 0 437.997924617903
0

0101000
-171 201 +173 182 *
Wi

0101100
+321 73 +185 0 +181 195 -176 73 +174 196 -172 195 +170 198 -169 200 *
Fa
0  1.00000028e-07 42 0

0111000
+168 194 *
Ed
 1.00000028e-07 1 1 0
1  81 0 60 340
2  155 22 204 60 340
2  156 20 205 60 340
0

0101000
+301 206 -255 206 *
Ed
 1.00000028e-07 1 1 0
1  82 0 0 50
2  157 8 63 0 50
2  158 20 64 0 50
2  159 26 65 0 50
0

0101000
+284 65 -239 65 *
Ed
 1.00000028e-07 1 1 0
1  83 0 0 400
2  160 33 207 0 400
2  161 20 205 0 400
0

0101000
+198 206 -236 206 *
Ed
 1.00000028e-07 1 1 0
1  84 0 0 50
2  162 17 63 0 50
2  163 20 64 0 50
2  164 40 65 0 50
0

0101000
+200 65 -177 65 *
Wi

0101100
-316 77 +310 0 -304 15 -300 34 -283 32 +166 203 -165 62 -254 34 +235 32 -222 67 
+164 203 -212 77 -197 32 -186 72 -163 62 +176 32 *
Fa
0  1.00000028e-07 20 17

0111000
+162 18 *
Ed
 1e-07 1 1 0
1  85 0 60 340
2  165 23 209 60 340
2  166 22 125 60 340
0

0101000
+253 126 -299 126 *
Wi

0101100
+166 208 -298 0 +160 123 +252 0 *
Fa
0  1e-07 22 85

0111000
+159 0 *
Ve
1e-07
-100 373.313683941002 471.556411109583
0 0

0101101
*
Ve
1e-07
100 373.313683941002 471.556411109582
0 0

0101101
*
Ed
 1e-07 1 1 0
1  86 0 100 300
2  167 23 0 100 300
2  168 45 0 100 300
0

0101000
-157 210 +156 210 *
Ed
 1e-07 1 1 0
1  87 0 0 1.5707963267949
2  169 23 212 0 1.5707963267949
2  170 30 0 0 1.5707963267949
0

0101000
+157 136 -251 136 *
Ed
 1e-07 1 1 0
1  88 0 1.5707963267949 3.14159265358979
2  171 23 214 1.5707963267949 3.14159265358979
2  172 24 0 1.5707963267949 3.14159265358979
0

0101000
+297 93 -156 93 *
Wi

0101000
+155 87 +154 211 +153 213 -250 0 -296 0 +160 123 *
Fa
0  1e-07 23 87

0111000
+152 0 *
Ve
1e-07
100 378.012147044932 469.846310392954
0 0

0101101
*
Ed
 1e-07 1 1 0
1  89 0 1.5707963267949 3.14159265358979
2  173 24 0 1.5707963267949 3.14159265358979
2  174 25 215 1.5707963267949 3.14159265358979
0

0101000
+293 93 -150 93 *
Ed
 1e-07 1 1 0
1  90 0 -2.24e-13 4.9999999999998
2  175 45 214 -2.24e-13 4.9999999999998
2  176 24 0 -2.24e-13 4.9999999999998
4 G1 45 214 24 0
0

0101000
+150 93 -156 93 *
Wi

0101100
+149 0 -292 0 +148 0 -153 0 *
Fa
0  1e-07 24 0

0111000
+147 0 *
Ve
1e-07
-100 378.012147044932 469.846310392954
0 0

0101101
*
Ed
 1e-07 1 1 0
1  91 0 100 300
2  177 45 219 100 300
2  178 25 0 100 300
0

0101000
-145 220 +150 220 *
Ed
 1e-07 1 1 0
1  92 0 0 1.5707963267949
2  179 30 0 0 1.5707963267949
2  180 25 218 0 1.5707963267949
0

0101000
+145 136 -249 136 *
Wi

0101100
+144 218 +143 0 +149 50 -248 221 -288 221 -265 222 *
Fa
0  1e-07 25 216

0111000
+142 217 *
Ed
 1.00000028e-07 1 1 0
1  93 0 0 50
2  181 26 0 0 50
2  182 26 129 0 50
0

0101000
+243 129 -282 129 *
Wi

0101100
+238 0 -281 0 +165 127 +140 128 *
Fa
0  1e-07 26 0

0111000
+139 0 *
Ve
1e-07
155 360.911139878648 -417.861679353659
0 0

0101101
*
Ve
1e-07
195 360.911139878648 -417.861679353659
0 0

0101101
*
Ed
 1e-07 1 1 0
1  94 0 4.99999999999994 45
0

0101000
-137 112 +136 139 *
Ed
 1e-07 1 1 0
1  95 0 1.57079632679491 3.14159265358979
2  183 28 0 1.57079632679491 3.14159265358979
2  184 46 225 1.57079632679491 3.14159265358979
0

0101000
+280 0 -137 0 *
Ed
 1e-07 1 1 0
1  96 0 1.5707963267949 3.14159265358979
2  185 32 0 1.5707963267949 3.14159265358979
2  186 46 138 1.5707963267949 3.14159265358979
0

0101000
+244 0 -136 0 *
Wi

0101100
+135 225 -134 0 +133 226 +279 225 +242 225 -140 227 *
Fa
0  1e-07 46 223

0111000
+132 224 *
Ve
1e-07
155 356.212676774719 -419.571780070287
0 0

0101101
*
Ed
 1e-07 1 1 0
1  97 0 1.5707963267949 3.14159265358979
2  187 28 0 1.5707963267949 3.14159265358979
2  188 46 229 1.5707963267949 3.14159265358979
0

0101000
+276 0 -130 0 *
Ed
 1e-07 1 1 0
1  98 0 -0 5
2  189 28 0 -0 5
2  190 47 229 -0 5
4 G1 28 0 47 229
0

0101000
+130 0 -137 0 *
Wi

0101100
+129 0 -275 0 +128 0 -134 0 *
Fa
0  0 28 0

0111000
+127 0 *
Ve
1e-07
195 356.212676774719 -419.571780070287
0 0

0101101
*
Ed
 1e-07 1 1 0
1  94 0 4.99999999999994 45
0

0101000
-130 117 +125 143 *
Ed
 1e-07 1 1 0
1  99 0 1.5707963267949 3.14159265358979
2  191 32 0 1.5707963267949 3.14159265358979
2  192 46 142 1.5707963267949 3.14159265358979
0

0101000
+241 0 -125 0 *
Wi

0101100
+124 229 -129 0 +123 226 +274 229 +237 229 +260 227 *
Fa
0  1e-07 46 110

0111000
+122 224 *
Ed
 1e-07 1 1 0
1  100 0 -0 5
2  193 45 212 -0 5
2  194 30 0 -0 5
4 G1 45 212 30 0
0

0101000
+157 136 -145 136 *
Wi

0101100
+154 0 -120 0 +247 0 -143 0 *
Fa
0  1e-07 30 0

0111000
+119 0 *
Ed
 1e-07 1 1 0
1  101 0 -5.7e-14 4.99999999999994
2  195 32 0 -5.7e-14 4.99999999999994
2  196 47 142 -5.7e-14 4.99999999999994
4 G1 32 0 47 142
0

0101000
+125 0 -136 0 *
Wi

0101100
+123 0 -240 0 +117 0 -133 0 *
Fa
0  0 32 0

0111000
+116 0 *
Ed
 1.0000004e-07 1 1 0
1  102 0 0 400
2  197 33 163 0 400
2  198 34 233 0 400
0

0101000
+194 165 -234 165 *
Wi

0101100
+193 0 -233 0 -164 232 +114 162 *
Fa
0  1e-07 33 0

0111000
+113 0 *
Ve
1e-07
-155 -360.911139878648 -417.861679353659
0 0

0101101
*
Ve
1e-07
-195 -360.911139878648 -417.861679353659
0 0

0101101
*
Ed
 1e-07 1 1 0
1  103 0 4.99999999999989 45
2  199 34 0 4.99999999999989 45
2  200 48 237 4.99999999999989 45
0

0101000
-111 238 +110 190 *
Ve
1.00000127e-07
-150 -359.20103916202 -413.163216249729
0 0

0101101
*
Ed
 1e-07 1 1 0
1  104 0 0 1.57079632679489
2  201 49 0 0 1.57079632679489
2  202 34 236 0 1.57079632679489
0

0101000
+111 0 -108 0 *
Ed
 1e-07 1 1 0
1  105 0 4.71238898038468 6.28318530717959
2  203 41 0 4.71238898038468 6.28318530717959
2  204 34 240 4.71238898038468 6.28318530717959
0

0101000
+192 0 -110 0 *
Ve
1.00000127e-07
-150 -237.787166070111 -79.5813415211801
0 0

0101101
*
Ed
 1.00000127e-07 1 1 0
1  106 0 0 354.990416386966
0

0101000
-108 244 +105 245 *
Ve
1.00000061e-07
-110 -224.106360337084 -41.9936366897437
0 0

0101101
*
Ed
 1.00000061e-07 1 1 0
1  107 0 1.5707963267949 3.14159265358979
2  205 50 245 1.5707963267949 3.14159265358979
2  206 50 247 1.5707963267949 3.14159265358979
0

0101000
+103 245 -105 245 *
Ve
1.00000061e-07
110 -224.106360337084 -41.9936366897437
0 0

0101101
*
Ed
 1.00000032e-07 1 1 0
1  108 0 0 220
0

0101000
+101 245 -103 245 *
Ve
1.00000127e-07
150 -237.787166070111 -79.5813415211801
0 0

0101101
*
Ed
 1.00000061e-07 1 1 0
1  109 0 0 1.5707963267949
2  207 51 245 0 1.5707963267949
2  208 51 247 0 1.5707963267949
0

0101000
+99 245 -101 245 *
Ve
1e-07
195 -360.911139878648 -417.861679353659
0 0

0101101
*
Ed
 1e-07 1 1 0
1  110 0 4.7123889803847 6.28318530717959
2  209 35 0 4.7123889803847 6.28318530717959
2  210 34 249 4.7123889803847 6.28318530717959
0

0101000
+232 0 -97 0 *
Ve
1.00000127e-07
150 -359.20103916202 -413.163216249729
0 0

0101101
*
Ed
 1.00000127e-07 1 1 0
1  111 0 5.00958361303377 360
0

0101000
+95 250 -99 245 *
Ve
1e-07
155 -360.911139878648 -417.861679353659
0 0

0101101
*
Ed
 1e-07 1 1 0
1  103 0 355 395
2  199 34 0 355 395
2  200 48 237 355 395
0

0101000
-97 152 +93 251 *
Ed
 1e-07 1 1 0
1  112 0 3.14159265358979 4.71238898038469
2  211 52 0 3.14159265358979 4.71238898038469
2  212 34 253 3.14159265358979 4.71238898038469
0

0101000
+93 0 -95 0 *
Wi

0101100
+109 236 +107 0 +106 239 -104 243 +190 236 -102 243 -114 248 -100 243 +231 236 -98 243 
-96 7 -94 243 +92 236 -91 252 *
Fa
0  1e-07 34 234

0111000
+90 235 *
Ve
1e-07
195 -356.212676774719 -419.571780070287
0 0

0101101
*
Ed
 1e-07 1 1 0
1  113 0 4.71238898038469 6.28318530717959
2  213 35 0 4.71238898038469 6.28318530717959
2  214 36 255 4.71238898038469 6.28318530717959
0

0101000
+228 0 -88 0 *
Ed
 1e-07 1 1 0
1  114 0 -5.7e-14 4.99999999999994
2  215 35 0 -5.7e-14 4.99999999999994
2  216 48 255 -5.7e-14 4.99999999999994
4 G1 35 0 48 255
0

0101000
+88 0 -97 0 *
Wi

0101100
+87 0 -227 0 +86 0 -96 0 *
Fa
0  0 35 0

0111000
+85 0 *
Ve
1e-07
-155 -356.212676774719 -419.571780070287
0 0

0101101
*
Ve
1e-07
-195 -356.212676774719 -419.571780070287
0 0

0101101
*
Ed
 1e-07 1 1 0
1  115 0 4.99999999999989 45
2  217 36 0 4.99999999999989 45
2  218 48 0 4.99999999999989 45
0

0101000
-83 258 +82 186 *
Ve
1.00000127e-07
-150 -354.50257605809 -414.873316966358
0 0

0101101
*
Ed
 1e-07 1 1 0
1  116 0 0 1.5707963267949
2  219 49 0 0 1.5707963267949
2  220 36 257 0 1.5707963267949
0

0101000
+83 0 -80 0 *
Ed
 1e-07 1 1 0
1  117 0 4.71238898038467 6.28318530717959
2  221 41 0 4.71238898038467 6.28318530717959
2  222 36 259 4.71238898038467 6.28318530717959
0

0101000
+196 0 -82 0 *
Ve
1.00000127e-07
-150 -233.088702966181 -81.2914422378084
0 0

0101101
*
Ed
 1.00000127e-07 1 1 0
1  106 0 0 354.990416386966
0

0101000
-80 261 +77 247 *
Ve
1.00000032e-07
-110 -219.407897233154 -43.7037374063721
0 0

0101101
*
Ed
 1.00000032e-07 1 1 0
1  107 0 1.5707963267949 3.14159265358979
2  205 50 245 1.5707963267949 3.14159265358979
2  206 50 247 1.5707963267949 3.14159265358979
0

0101000
+75 247 -77 247 *
Ve
1.00000032e-07
110 -219.407897233154 -43.7037374063721
0 0

0101101
*
Ed
 1e-07 1 1 0
1  108 0 0 220
0

0101000
+73 247 -75 247 *
Ve
1.0000018e-07
150 -233.088702966181 -81.2914422378084
0 0

0101101
*
Ed
 1.00000032e-07 1 1 0
1  109 0 0 1.5707963267949
2  207 51 245 0 1.5707963267949
2  208 51 247 0 1.5707963267949
0

0101000
+71 247 -73 247 *
Ve
1.0000018e-07
150 -354.50257605809 -414.873316966358
0 0

0101101
*
Ed
 1.0000018e-07 1 1 0
1  111 0 5.00958361303369 360
0

0101000
+69 262 -71 247 *
Ve
1e-07
155 -356.212676774719 -419.571780070287
0 0

0101101
*
Ed
 1e-07 1 1 0
1  115 0 355 395
2  217 36 0 355 395
2  218 48 0 355 395
0

0101000
-88 158 +67 263 *
Ed
 1e-07 1 1 0
1  118 0 3.14159265358979 4.71238898038468
2  223 52 0 3.14159265358979 4.71238898038468
2  224 36 264 3.14159265358979 4.71238898038468
0

0101000
+67 0 -69 0 *
Wi

0101100
+81 257 +79 0 +78 239 -76 260 +195 257 -74 260 +216 248 -72 260 +226 257 -70 260 
-87 7 -68 260 +66 257 -65 252 *
Fa
0  1e-07 36 256

0111000
+64 235 *
Ve
1e-07
-195 356.212676774719 -419.571780070287
0 0

0101101
*
Ve
1e-07
-155 356.212676774719 -419.571780070287
0 0

0101101
*
Ed
 1e-07 1 1 0
1  119 0 4.99999999999997 45.0000000000001
0

0101000
-62 175 +61 197 *
Ed
 1e-07 1 1 0
1  120 0 1.5707963267949 3.14159265358979
2  225 38 0 1.5707963267949 3.14159265358979
2  226 53 174 1.5707963267949 3.14159265358979
0

0101000
+208 0 -62 0 *
Ed
 1e-07 1 1 0
1  121 0 1.57079632679489 3.14159265358979
2  227 44 0 1.57079632679489 3.14159265358979
2  228 53 267 1.57079632679489 3.14159265358979
0

0101000
+175 0 -61 0 *
Wi

0101100
+60 174 -59 0 +58 266 +206 174 +174 174 +180 268 *
Fa
0  1e-07 53 173

0111000
+57 265 *
Ve
1e-07
-195 360.911139878648 -417.861679353659
0 0

0101101
*
Ed
 1e-07 1 1 0
1  122 0 -5.7e-14 4.99999999999994
2  229 38 0 -5.7e-14 4.99999999999994
2  230 54 174 -5.7e-14 4.99999999999994
4 G1 38 0 54 174
0

0101000
+62 0 -55 0 *
Ed
 1e-07 1 1 0
1  123 0 1.5707963267949 3.14159265358979
2  231 38 0 1.5707963267949 3.14159265358979
2  232 53 180 1.5707963267949 3.14159265358979
0

0101000
+205 0 -55 0 *
Wi

0101100
+59 0 -204 0 +54 0 -53 0 *
Fa
0  0 38 0

0111000
+52 0 *
Ve
1e-07
-155 360.911139878648 -417.861679353659
0 0

0101101
*
Ed
 1e-07 1 1 0
1  119 0 4.99999999999997 45.0000000000001
0

0101000
-55 181 +50 201 *
Ed
 1e-07 1 1 0
1  124 0 1.5707963267949 3.14159265358979
2  233 44 0 1.5707963267949 3.14159265358979
2  234 53 271 1.5707963267949 3.14159265358979
0

0101000
+171 0 -50 0 *
Ed
 1.00000028e-07 1 1 0
1  125 0 0 50
2  235 40 0 0 50
2  236 40 193 0 50
0

0101000
+173 193 -202 193 *
Wi

0101100
+49 180 -53 0 +48 266 +201 180 +169 180 -47 268 *
Fa
0  1e-07 53 270

0111000
+46 265 *
Wi

0101100
+172 0 -199 0 +163 127 +47 192 *
Fa
0  1e-07 40 0

0111000
+44 0 *
Ed
 1e-07 1 1 0
1  126 0 -5.7e-14 4.99999999999994
2  237 41 0 -5.7e-14 4.99999999999994
2  238 48 259 -5.7e-14 4.99999999999994
4 G1 41 0 48 259
0

0101000
+82 0 -110 0 *
Wi

0101100
+78 0 -191 0 +42 0 -106 0 *
Fa
0  0 41 0

0111000
+41 0 *
Ed
 1e-07 1 1 0
1  127 0 -0 5
2  239 44 0 -0 5
2  240 54 267 -0 5
4 G1 44 0 54 267
0

0101000
+61 0 -50 0 *
Wi

0101100
+58 0 -170 0 +39 0 -48 0 *
Fa
0  0 44 0

0111000
+38 0 *
Wi

0101100
-155 212 -120 0 -148 50 +144 218 *
Fa
0  1e-07 45 274

0111000
+36 217 *
Wi

0101100
-124 229 -128 0 +117 226 +135 225 *
Fa
0  1e-07 47 0

0111000
+34 117 *
Ed
 1e-07 1 1 0
1  128 0 -5.7e-14 4.99999999999994
2  241 49 0 -5.7e-14 4.99999999999994
2  242 48 257 -5.7e-14 4.99999999999994
4 G1 49 0 48 257
0

0101000
+83 0 -111 0 *
Wi

0101100
-81 257 -32 0 +42 239 +109 236 *
Fa
0  1e-07 48 256

0111000
+31 235 *
Ed
 1e-07 1 1 0
1  129 0 -3e-14 5.00000000000006
2  243 49 0 -3e-14 5.00000000000006
2  244 55 277 -3e-14 5.00000000000006
4 G1 49 0 55 277
0

0101000
+80 0 -108 0 *
Wi

0101100
+79 0 -32 0 +29 0 -107 0 *
Fa
0  0 49 0

0111000
+28 0 *
Ed
 1e-07 1 1 0
1  130 0 0 5
2  245 50 0 0 5
4 G1 50 0 55 0
0

0101000
+105 0 -77 0 *
Wi

0101100
-104 243 +29 0 +26 277 +76 260 *
Fa
0  1e-07 55 0

0111000
+25 235 *
Ed
 1e-07 1 1 0
1  131 0 0 5
2  246 50 0 0 5
4 G1 56 0 50 0
0

0101000
+103 0 -75 0 *
Wi

0101100
+23 0 -26 0 -102 278 +74 279 *
Fa
0  1e-07 50 0

0111000
+22 0 *
Ed
 1e-07 1 1 0
1  132 0 0 5
2  247 51 0 0 5
4 G1 51 0 56 0
0

0101000
+101 0 -73 0 *
Wi

0101100
+20 0 -23 0 -100 278 +72 279 *
Fa
0  1e-07 56 0

0111000
+19 0 *
Ed
 1.00000014e-07 1 1 0
1  133 0 0 5
2  248 51 0 0 5
4 G1 57 0 51 0
0

0101000
+99 0 -71 0 *
Wi

0101100
+17 0 -20 0 -98 278 +70 279 *
Fa
0  1e-07 51 0

0111000
+16 0 *
Ed
 1e-07 1 1 0
1  134 0 -1.83e-13 4.99999999999986
2  249 52 0 -1.83e-13 4.99999999999986
2  250 57 4 -1.83e-13 4.99999999999986
4 G1 52 0 57 4
0

0101000
+95 0 -69 0 *
Wi

0101100
-94 281 +14 0 -17 4 +68 282 *
Fa
0  1e-07 57 0

0111000
+13 280 *
Ed
 1e-07 1 1 0
1  135 0 -1.76e-13 4.99999999999986
2  251 52 0 -1.76e-13 4.99999999999986
2  252 48 264 -1.76e-13 4.99999999999986
4 G1 52 0 48 264
0

0101000
+93 0 -67 0 *
Wi

0101100
-66 255 -86 0 -11 284 +92 249 *
Fa
0  1e-07 48 256

0111000
+10 283 *
Wi

0101100
+91 0 -11 0 +14 0 -65 0 *
Fa
0  0 52 0

0111000
+8 0 *
Wi

0101100
-60 174 -54 0 +39 266 +49 180 *
Fa
0  1e-07 54 0

0111000
+6 175 *
Sh

0101100
+319 16 -312 32 -307 0 -302 15 +285 34 +272 106 -263 34 +258 16 +245 34 +224 106 
+219 67 +214 160 -209 32 +188 106 +183 72 +178 16 +167 106 +161 16 -158 34 +151 34 
+146 91 -141 94 +138 16 +131 16 -126 228 -121 16 -118 230 +115 231 +112 160 +89 106 
-84 254 -63 106 -56 16 -51 269 +45 16 +43 16 +40 272 +37 273 +35 94 -33 275 
-30 106 +27 276 -24 106 -21 106 -18 106 -15 106 -12 106 -9 106 +7 285 -5 286 
*
So

0100000
+4 0 *
Co

0100000
+3 0 *
Co

1100000
+2 1 *

+1 0 